<svg width="46" height="46" viewBox="0 0 46 46" fill="none" xmlns="http://www.w3.org/2000/svg">
<path d="M29.9768 29.7657C32.577 29.7657 34.6848 27.6578 34.6848 25.0576C34.6848 22.4575 32.577 20.3496 29.9768 20.3496C27.3767 20.3496 25.2688 22.4575 25.2688 25.0576C25.2688 27.6578 27.3767 29.7657 29.9768 29.7657Z" fill="#2D6DA4"/>
<path d="M17.419 27.7779C20.3127 27.7779 22.6585 25.4321 22.6585 22.5383C22.6585 19.6446 20.3127 17.2988 17.419 17.2988C14.5253 17.2988 12.1794 19.6446 12.1794 22.5383C12.1794 25.4321 14.5253 27.7779 17.419 27.7779Z" fill="#2D6DA4"/>
<path fill-rule="evenodd" clip-rule="evenodd" d="M39.9424 17.2843C39.9014 17.1754 39.8099 17.0931 39.6972 17.0636C39.5845 17.0343 39.4644 17.0613 39.3754 17.1365C38.5505 17.8308 37.5743 18.3509 36.5034 18.6396C36.4072 18.6655 36.3263 18.7303 36.2796 18.8183C36.2331 18.9062 36.2251 19.0097 36.2577 19.1038C36.8007 20.6688 37.0955 22.3489 37.0955 24.0973C37.0955 32.5141 30.2622 39.3474 21.8456 39.3474C13.4288 39.3474 6.59545 32.5141 6.59545 24.0973C6.59545 15.6807 13.4288 8.84733 21.8456 8.84733C23.5946 8.84733 25.2754 9.14229 26.8401 9.68533C26.9342 9.71806 27.0377 9.71014 27.1258 9.66362C27.2138 9.61693 27.2784 9.53596 27.3044 9.43982C27.5932 8.3689 28.1133 7.39274 28.8078 6.56801C28.8827 6.47894 28.9099 6.35886 28.8805 6.24618C28.851 6.13351 28.7688 6.04202 28.6598 6.00102C26.5396 5.20127 24.2433 4.76367 21.8456 4.76367C11.175 4.76367 2.51196 13.4268 2.51196 24.0973C2.51196 34.7679 11.175 43.4309 21.8456 43.4309C23.4061 43.4309 24.924 43.2455 26.3767 42.891C26.377 42.891 26.3774 42.8908 26.3777 42.8908C26.7715 42.7934 27.1774 42.7542 27.5827 42.7741L38.4397 43.3132C39.1445 43.3482 39.8312 43.0829 40.3295 42.5831C40.8279 42.0831 41.091 41.3955 41.0536 40.6907C40.8841 37.4848 40.5903 31.9328 40.4935 29.9911C40.4935 29.9908 40.4935 29.9904 40.4933 29.9901C40.4713 29.572 40.5123 29.153 40.6153 28.7471C40.6155 28.7464 40.6156 28.7457 40.6158 28.745C40.9836 27.2565 41.179 25.6995 41.179 24.0973C41.179 21.6998 40.7416 19.4037 39.9424 17.2843Z" fill="#2D6DA4"/>
<path fill-rule="evenodd" clip-rule="evenodd" d="M34.5486 3.17383C30.012 3.17383 26.3289 6.8571 26.3289 11.3937C26.3289 15.9303 30.012 19.6136 34.5486 19.6136C39.0853 19.6136 42.7684 15.9303 42.7684 11.3937C42.7684 6.8571 39.0853 3.17383 34.5486 3.17383ZM36.1518 9.79059C36.1393 9.6283 36.1263 9.47014 36.1138 9.31681C36.0231 8.22056 35.9081 7.39773 35.8891 7.26542C35.8757 6.54406 35.2801 5.95726 34.5486 5.95726C33.8162 5.95726 33.2199 6.54561 33.2071 7.27524C33.186 7.4203 33.0729 8.23555 32.9835 9.31681C32.9708 9.47118 32.9577 9.63071 32.9451 9.79421C31.6292 9.89758 30.5793 10.0325 30.4256 10.0526C29.7003 10.0654 29.1123 10.6615 29.1123 11.3937C29.1123 12.1275 29.7027 12.7244 30.4339 12.7351C30.5922 12.7565 31.6392 12.8907 32.9489 12.9935C33.0523 14.3112 33.1875 15.363 33.2077 15.5166C33.2204 16.2421 33.8163 16.83 34.5486 16.83C35.2823 16.83 35.8793 16.2397 35.8901 15.5085C35.9115 15.3502 36.0454 14.305 36.1482 12.9972C36.3115 12.9846 36.4711 12.9715 36.6254 12.9587C37.7219 12.8683 38.5447 12.7532 38.677 12.7342C39.3982 12.7208 39.985 12.1252 39.985 11.3937C39.985 10.6611 39.3966 10.065 38.6672 10.0523C38.522 10.0311 37.7067 9.91791 36.6254 9.82867L36.1518 9.79059Z" fill="#2D6DA4"/>
<path fill-rule="evenodd" clip-rule="evenodd" d="M9.40234 31.6018C11.9482 35.8112 16.5706 38.6279 21.8458 38.6279C24.3504 38.6279 26.7082 37.9928 28.7671 36.8745C27.281 32.017 22.7599 28.4805 17.4191 28.4805C14.3299 28.4805 11.5147 29.6635 9.40234 31.6018Z" fill="#2D6DA4"/>
<path fill-rule="evenodd" clip-rule="evenodd" d="M29.4043 36.5089C31.4687 35.2481 33.1949 33.4869 34.4133 31.3943C33.0627 30.7713 31.5601 30.4238 29.9769 30.4238C28.5844 30.4238 27.2541 30.6928 26.0354 31.1812C27.5718 32.6263 28.7454 34.4529 29.4043 36.5089Z" fill="#2D6DA4"/>
</svg>
