<svg width="44" height="44" viewBox="0 0 44 44" fill="none" xmlns="http://www.w3.org/2000/svg">
<rect width="44" height="44" rx="10" fill="#2D6DA4"/>
<path d="M19.5 12C19.5 12 20.3 19.4674 23.4163 22.5837C26.5326 25.7 34 26.5 34 26.5C34 26.5 26.5326 27.3 23.4163 30.4163C20.3 33.5326 19.5 41 19.5 41C19.5 41 18.7 33.5326 15.5837 30.4163C12.4674 27.3 5 26.5 5 26.5C5 26.5 12.4674 25.7 15.5837 22.5837C18.7 19.4674 19.5 12 19.5 12Z" fill="#FFE458"/>
<path d="M30 3C30 3 30.4966 7.37745 32.4308 9.20423C34.3651 11.031 39 11.5 39 11.5C39 11.5 34.3651 11.969 32.4308 13.7958C30.4966 15.6226 30 20 30 20C30 20 29.5034 15.6226 27.5692 13.7958C25.6349 11.969 21 11.5 21 11.5C21 11.5 25.6349 11.031 27.5692 9.20423C29.5034 7.37745 30 3 30 3Z" fill="white"/>
</svg>
