<svg width="40" height="40" viewBox="0 0 40 40" fill="none" xmlns="http://www.w3.org/2000/svg">
<rect width="40" height="40" rx="8" fill="#2D6DA4"/>
<path d="M17.7277 10.9102C17.7277 10.9102 18.455 17.6987 21.288 20.5317C24.121 23.3647 30.9095 24.092 30.9095 24.092C30.9095 24.092 24.121 24.8193 21.288 27.6523C18.455 30.4852 17.7277 37.2738 17.7277 37.2738C17.7277 37.2738 17.0004 30.4852 14.1674 27.6523C11.3345 24.8193 4.5459 24.092 4.5459 24.092C4.5459 24.092 11.3345 23.3647 14.1674 20.5317C17.0004 17.6987 17.7277 10.9102 17.7277 10.9102Z" fill="#FFE458"/>
<path d="M27.2726 2.72656C27.2726 2.72656 27.7241 6.70606 29.4825 8.36677C31.2409 10.0275 35.4545 10.4538 35.4545 10.4538C35.4545 10.4538 31.2409 10.8802 29.4825 12.5409C27.7241 14.2016 27.2726 18.1811 27.2726 18.1811C27.2726 18.1811 26.8212 14.2016 25.0628 12.5409C23.3044 10.8802 19.0908 10.4538 19.0908 10.4538C19.0908 10.4538 23.3044 10.0275 25.0628 8.36677C26.8212 6.70606 27.2726 2.72656 27.2726 2.72656Z" fill="white"/>
</svg>
