<svg width="490" height="448" viewBox="0 0 490 448" fill="none" xmlns="http://www.w3.org/2000/svg">
<path d="M91.8999 434.416C91.8999 434.416 -7.87872 319.194 79.9786 241.536C167.836 163.879 159.384 105.785 271.136 116.924C382.888 128.037 434.93 237.232 394.836 310.664C354.742 384.096 414.504 427.581 414.504 427.581L91.8999 434.416Z" fill="white"/>
<path d="M126.021 228.676C124.612 230.111 123.229 231.598 122.108 233.267C120.986 234.963 120.125 236.789 119.186 238.589C118.169 240.519 117.047 242.397 115.743 244.145C114.804 245.423 113.76 246.623 112.847 247.953C110.63 251.24 109.404 255.075 107.604 258.623C108.647 254.579 109.978 250.588 110.63 246.44C110.917 244.588 111.126 242.684 111.256 240.754C114.073 238.954 116.447 236.476 118.091 233.58C120.725 228.989 121.456 223.589 123.177 218.581C124.403 215.007 126.125 211.59 126.647 207.859C126.882 206.32 126.882 204.781 127.09 203.242C127.429 200.634 128.316 198.103 129.647 195.834C127.247 196.825 125.864 199.277 124.664 201.547C123.099 204.494 121.56 207.468 119.995 210.416C119.238 211.824 118.508 213.259 117.908 214.746C115.612 220.563 115.952 227.111 114.178 233.137C113.447 235.641 112.378 238.015 111.256 240.362C111.621 234.676 111.334 228.78 110.526 223.302C110.291 221.711 109.952 220.146 109.534 218.581C110.734 216.624 111.908 214.616 112.404 212.398C112.717 210.938 112.743 209.451 112.952 207.964C113.526 203.555 115.638 199.512 116.865 195.234C118.638 188.973 118.456 182.321 118.195 175.8C118.038 171.626 117.856 167.296 119.499 163.461C118.456 165.496 117.386 167.531 116.343 169.565C115.247 171.678 114.152 173.791 113.421 176.061C112.091 180.182 112.065 184.617 111.23 188.843C110.917 190.434 110.473 191.999 110.187 193.564C108.647 201.547 110.395 209.868 109.43 217.929C107.865 212.581 105.23 207.546 102.152 202.72C103.456 195.86 104.656 188.712 102.648 182.034C102.126 180.313 101.396 178.643 100.952 176.922C100.143 173.635 100.378 170.191 99.8043 166.852C99.5174 165.157 99.0217 163.513 98.3174 161.948C96.961 158.87 94.8219 156.001 94.5611 152.662C93.1524 155.635 94.1959 159.131 94.2741 162.418C94.3263 165.052 93.7524 167.661 93.622 170.296C93.335 175.826 95.0306 181.252 96.9349 186.443C98.787 191.504 100.874 196.564 101.604 201.912C97.6131 195.782 92.9698 190.017 88.9526 184.356C88.8743 184.252 88.77 184.173 88.6656 184.147C86.1875 178.043 85.5092 171.104 81.7529 165.678C77.4226 159.418 69.936 156.34 63.7014 151.957C59.8929 149.27 56.5278 146.01 53.6844 142.332C53.9714 147.679 56.2669 152.896 60.0494 156.679C64.7188 161.374 71.4228 163.852 75.3879 169.148C78.0226 172.643 79.1965 177.052 81.8311 180.574C83.6311 183 86.1092 184.93 88.9265 186.104C92.0307 190.408 95.3958 194.738 98.5261 199.251C95.0306 195.495 91.0395 192.208 86.7092 189.443C75.8314 182.504 62.8667 179.061 52.5627 171.235C52.3019 172.774 53.2149 174.261 54.1801 175.487C55.4844 177.156 56.9452 178.669 58.406 180.208C60.832 182.739 63.284 185.321 66.2578 187.199C67.51 188.008 68.8925 188.686 70.3533 189.025C71.762 189.338 73.2489 189.338 74.6836 189.547C76.927 189.886 79.0399 190.825 81.1268 191.738C86.9701 194.295 92.8133 196.877 98.6565 199.434C104.187 207.468 108.882 215.998 109.821 225.676C109.952 226.902 110.056 228.154 110.134 229.406C109.091 227.189 108.047 224.972 107.004 222.728C105.256 219.024 103.456 215.216 100.535 212.346C99.0217 210.859 97.2218 209.659 95.448 208.459C91.9003 206.086 88.3265 203.686 84.5962 201.599C82.3528 200.347 80.0312 199.199 77.527 198.625C75.3879 198.129 73.1445 198.051 71.0837 197.295C68.8143 196.46 66.7535 194.764 64.3014 194.738C65.1361 195.99 66.31 197.008 67.4578 197.999C71.162 201.208 74.9444 204.468 79.353 206.633C83.918 208.877 89.3178 210.077 92.422 214.094C93.8046 215.868 94.5871 218.059 96.048 219.755C97.4827 221.398 99.4391 222.468 101.265 223.641C104.682 225.885 107.761 228.676 110.291 231.858C110.421 235.015 110.421 238.171 110.187 241.328C110.16 241.328 110.16 241.354 110.134 241.354H110.187C110.004 243.962 109.639 246.519 109.091 249.023C109.065 249.18 109.013 249.31 108.987 249.466C107.917 245.449 106.639 241.484 104.604 237.858C103.769 236.371 102.804 234.963 101.5 233.893C99.7782 232.537 97.587 231.911 95.5784 230.972C90.4917 228.572 86.7875 223.981 82.0398 220.955C80.3442 219.885 78.4921 218.998 76.9791 217.668C75.1531 216.076 73.901 213.937 72.675 211.824C71.762 218.033 74.3706 224.633 79.3269 228.493C82.3528 230.867 86.1614 232.25 88.9004 234.963C90.596 236.632 91.822 238.745 93.622 240.31C96.074 242.423 99.3087 243.31 102.282 244.614C104.995 245.814 107.761 247.64 108.778 250.353C107.187 256.849 104.761 263.109 105.126 269.892C105.152 270.57 106.195 270.518 106.169 269.84C105.961 266.031 106.639 262.405 107.578 258.805L108.1 257.944C109.169 255.649 110.969 253.823 112.743 251.997C117.021 247.562 121.221 242.971 124.377 237.65C126.49 234.128 128.108 230.293 130.56 227.006C131.733 225.441 133.09 223.981 133.742 222.128C130.873 224.059 128.368 226.302 126.021 228.676Z" fill="white" fill-opacity="0.5"/>
<path d="M138.02 438.302C134.681 436.502 131.942 434.024 129.359 431.337L128.89 430.451C127.507 428.338 126.881 425.833 126.255 423.381C124.716 417.408 122.994 411.434 120.125 405.982C118.221 402.356 115.821 398.965 114.282 395.13C113.551 393.33 113.03 391.374 111.804 389.861C111.83 393.2 112.43 396.487 113.238 399.747C113.708 401.704 114.282 403.66 115.116 405.486C115.951 407.338 117.099 409.034 118.116 410.756C119.238 412.634 120.255 414.59 121.064 416.599C121.664 418.086 122.134 419.599 122.786 421.033C124.429 424.659 127.064 427.711 129.151 431.077C126.255 428.077 123.542 424.868 120.36 422.129C118.925 420.903 117.412 419.729 115.847 418.607C115.795 415.269 114.908 411.956 113.317 409.034C110.76 404.391 106.56 400.921 103.195 396.852C100.795 393.956 98.7606 390.696 95.8651 388.296C94.6912 387.304 93.3608 386.47 92.1609 385.504C90.1262 383.861 88.4306 381.774 87.2045 379.453C86.7872 382.009 88.1697 384.461 89.474 386.678C91.1696 389.548 92.8913 392.417 94.5869 395.287C95.3955 396.669 96.2303 398.052 97.1954 399.33C100.978 404.339 106.717 407.469 110.917 412.112C112.664 414.042 114.125 416.208 115.56 418.399C110.891 415.112 105.726 412.295 100.639 410.103C99.1519 409.477 97.6389 408.93 96.0998 408.486C95.0564 406.451 93.9608 404.391 92.3174 402.799C91.2479 401.756 89.9696 400.947 88.8219 400.008C85.3785 397.217 83.0308 393.304 80.0048 390.017C75.5963 385.218 69.8313 381.931 64.1446 378.748C60.5186 376.714 56.7362 374.601 54.3102 371.183C55.4841 373.14 56.684 375.122 57.8579 377.079C59.0839 379.113 60.31 381.174 61.8751 382.974C64.6924 386.261 68.4488 388.583 71.6312 391.53C72.8051 392.626 73.9268 393.8 75.1268 394.895C81.1265 400.373 89.1349 403.243 95.4738 408.277C90.1001 406.817 84.4133 406.425 78.7005 406.53C73.5355 401.834 68.0575 397.061 61.3273 395.313C59.5796 394.869 57.8057 394.608 56.084 394.061C52.8494 393.043 50.0321 391.035 46.9018 389.756C45.3106 389.13 43.6411 388.687 41.9716 388.452C38.6326 388.009 35.0849 388.322 32.085 386.783C33.8849 389.548 37.4065 390.461 40.2499 392.13C42.5194 393.461 44.4497 395.313 46.6409 396.826C51.206 399.956 56.7101 401.339 62.136 402.46C67.4314 403.53 72.8312 404.391 77.7614 406.556C70.4574 406.764 63.1012 407.704 56.1884 408.173C56.058 408.173 55.9275 408.251 55.8493 408.33C49.3278 407.26 43.0933 404.208 36.4935 404.573C28.9025 404.991 22.355 409.764 15.3639 412.79C11.0858 414.616 6.54689 415.816 1.92969 416.312C6.62515 418.868 12.2858 419.625 17.4769 418.373C23.9201 416.834 29.5286 412.425 36.1283 411.799C40.4847 411.382 44.8671 412.686 49.2234 412.295C52.2494 412.034 55.1971 410.912 57.6492 409.138C62.9185 408.747 68.3966 408.121 73.8746 407.834C68.84 408.877 63.962 410.521 59.3448 412.764C47.7365 418.425 38.0065 427.659 25.9809 432.355C27.1548 433.398 28.9025 433.372 30.4416 433.19C32.5285 432.955 34.6153 432.485 36.6761 432.042C40.1195 431.311 43.5889 430.555 46.7192 429.016C48.0757 428.364 49.3539 427.555 50.3973 426.485C51.4147 425.442 52.1712 424.19 53.1102 423.068C54.5711 421.347 56.4753 420.016 58.3535 418.712C63.5968 415.06 68.84 411.434 74.0833 407.782C83.8134 407.26 93.5695 407.73 102.308 411.982C103.43 412.529 104.526 413.077 105.647 413.651C103.195 413.39 100.769 413.103 98.3171 412.843C94.2477 412.399 90.074 411.956 86.0828 412.947C84.022 413.469 82.0656 414.355 80.1092 415.242C76.2224 417.016 72.3095 418.816 68.5792 420.903C66.3358 422.155 64.1446 423.538 62.3447 425.364C60.8056 426.929 59.5796 428.807 57.8318 430.164C55.9275 431.677 53.3972 432.537 52.119 434.598C53.632 434.546 55.0928 434.076 56.5275 433.607C61.1969 432.12 65.9445 430.607 70.0922 427.998C74.3703 425.285 78.2571 421.32 83.2917 420.773C85.535 420.538 87.8045 421.007 90.0218 420.642C92.1609 420.277 94.0912 419.181 96.0738 418.242C99.778 416.495 103.743 415.347 107.812 414.825C110.578 416.338 113.264 418.007 115.821 419.86C115.821 419.886 115.821 419.886 115.821 419.912L115.847 419.86C117.96 421.373 119.968 423.016 121.794 424.816C121.899 424.92 122.003 425.025 122.107 425.129C118.116 423.955 114.073 422.964 109.925 422.781C108.23 422.703 106.508 422.781 104.917 423.355C102.856 424.112 101.187 425.677 99.3345 426.877C94.6129 429.955 88.7697 430.711 83.709 433.19C81.9091 434.076 80.1874 435.172 78.2571 435.772C75.9354 436.502 73.4573 436.45 71.0313 436.372C75.8311 440.389 82.8482 441.615 88.7175 439.424C92.3435 438.068 95.4999 435.563 99.2301 434.65C101.526 434.076 103.978 434.129 106.247 433.424C109.325 432.459 111.777 430.164 114.438 428.311C116.864 426.616 119.864 425.233 122.734 425.781C127.429 430.529 131.498 435.876 137.498 439.111C138.098 439.528 138.594 438.615 138.02 438.302Z" fill="white" fill-opacity="0.5"/>
<path d="M423.87 206.216C419.279 208.512 414.975 211.381 411.114 214.746C414.688 210.572 418.497 206.607 422.018 202.668C424.914 201.807 427.601 200.138 429.635 197.895C432.609 194.686 434.252 190.408 437.226 187.199C441.739 182.347 448.652 180.574 453.791 176.4C457.938 173.035 460.782 168.078 461.617 162.809C458.408 166.174 454.704 169.07 450.66 171.339C444.009 175.069 436.235 177.339 431.279 183.13C427.001 188.138 425.592 194.947 422.488 200.764C422.383 200.79 422.253 200.842 422.175 200.947C417.584 206.164 412.366 211.407 407.749 217.094C409.027 211.851 411.636 207.051 414.01 202.199C416.436 197.216 418.679 191.999 418.966 186.469C419.097 183.834 418.81 181.173 419.123 178.565C419.54 175.304 420.949 171.939 419.853 168.835C419.253 172.148 416.827 174.782 415.158 177.678C414.297 179.165 413.645 180.756 413.175 182.4C412.262 185.66 412.158 189.13 410.984 192.286C410.358 193.982 409.471 195.547 408.767 197.216C406.08 203.633 406.523 210.885 407.097 217.824C403.549 222.285 400.393 227.033 398.28 232.198C398.15 224.085 400.732 215.998 400.054 207.885C399.923 206.268 399.663 204.677 399.506 203.06C399.115 198.755 399.532 194.347 398.645 190.095C398.15 187.773 397.289 185.53 396.428 183.339C395.593 181.2 394.758 179.061 393.924 176.948C395.15 180.939 394.524 185.217 393.924 189.338C392.985 195.782 392.098 202.381 393.219 208.798C393.976 213.181 395.645 217.433 395.776 221.868C395.828 223.354 395.671 224.841 395.854 226.328C396.115 228.598 397.08 230.711 398.071 232.771C397.497 234.258 396.976 235.797 396.584 237.363C395.228 242.736 394.315 248.553 394.08 254.266C393.219 251.814 392.385 249.336 391.915 246.78C390.793 240.623 391.785 234.154 390.115 228.102C389.698 226.563 389.098 225.076 388.498 223.589C387.246 220.485 386.02 217.381 384.767 214.277C383.802 211.877 382.681 209.294 380.411 208.068C381.507 210.468 382.107 213.077 382.185 215.685C382.237 217.224 382.081 218.763 382.159 220.328C382.315 224.085 383.672 227.685 384.507 231.363C385.68 236.528 385.863 241.98 388.002 246.806C389.333 249.858 391.445 252.571 394.054 254.658C393.976 256.588 394.002 258.492 394.106 260.37C394.315 264.544 395.228 268.666 395.854 272.787C394.445 269.083 393.637 265.118 391.758 261.622C391.002 260.214 390.089 258.91 389.28 257.553C388.159 255.675 387.246 253.692 386.437 251.658C385.68 249.779 385.028 247.849 384.089 246.049C383.15 244.275 381.924 242.632 380.672 241.067C378.585 238.458 376.342 235.98 373.707 233.919C374.177 235.823 375.377 237.415 376.368 239.11C378.481 242.632 379.707 246.597 381.428 250.327C384.011 255.936 387.689 260.944 391.498 265.796C393.063 267.779 394.68 269.813 395.489 272.187L395.906 273.1C396.454 276.778 396.741 280.456 396.141 284.213C396.037 284.865 397.054 285.022 397.158 284.369C398.228 277.639 396.48 271.17 395.567 264.544C396.871 261.936 399.793 260.396 402.636 259.509C405.714 258.518 409.027 257.97 411.688 256.118C413.645 254.762 415.079 252.779 416.931 251.292C419.957 248.893 423.844 247.901 427.131 245.84C432.426 242.501 435.739 236.215 435.478 229.954C434.044 231.911 432.583 233.919 430.6 235.328C428.957 236.476 427.027 237.18 425.227 238.067C420.192 240.571 416.018 244.745 410.723 246.623C408.636 247.353 406.393 247.719 404.541 248.919C403.106 249.832 402.01 251.136 401.045 252.518C398.645 255.91 396.976 259.744 395.489 263.605C395.463 263.448 395.463 263.318 395.437 263.162C395.15 260.605 395.045 258.023 395.124 255.414L395.176 255.44C395.15 255.44 395.15 255.414 395.124 255.414C395.228 252.258 395.541 249.101 396.01 245.997C398.88 243.075 402.219 240.623 405.845 238.771C407.775 237.78 409.836 236.919 411.427 235.432C413.071 233.893 414.088 231.806 415.627 230.189C419.123 226.511 424.627 225.859 429.4 224.111C434.018 222.415 438.087 219.572 442.13 216.755C443.383 215.894 444.635 215.007 445.6 213.833C443.174 213.624 440.957 215.085 438.609 215.685C436.47 216.233 434.226 216.076 432.061 216.337C429.505 216.65 427.079 217.563 424.731 218.555C420.792 220.25 417.01 222.259 413.227 224.241C411.349 225.233 409.445 226.25 407.775 227.58C404.567 230.137 402.375 233.711 400.263 237.232C398.984 239.345 397.732 241.432 396.454 243.545C396.663 242.319 396.897 241.093 397.158 239.867C399.115 230.345 404.671 222.337 411.01 214.929C417.088 212.972 423.166 211.042 429.244 209.085C431.409 208.381 433.6 207.703 435.87 207.572C437.331 207.494 438.791 207.677 440.226 207.494C441.713 207.312 443.148 206.79 444.478 206.112C447.608 204.546 450.321 202.251 453.008 199.981C454.626 198.625 456.243 197.242 457.704 195.729C458.799 194.608 459.869 193.225 459.764 191.66C448.652 198.364 435.426 200.425 423.87 206.216Z" fill="white" fill-opacity="0.5"/>
<path d="M415.314 350.419C410.722 352.715 406.418 355.584 402.558 358.949C406.131 354.775 409.94 350.81 413.462 346.871C416.357 346.01 419.044 344.341 421.079 342.098C424.052 338.889 425.696 334.611 428.67 331.402C433.182 326.55 440.095 324.777 445.234 320.603C449.382 317.238 452.225 312.281 453.06 307.012C449.851 310.377 446.147 313.273 442.104 315.542C435.452 319.272 427.678 321.542 422.722 327.333C418.444 332.341 417.035 339.15 413.931 344.967C413.827 344.993 413.696 345.045 413.618 345.15C409.027 350.367 403.81 355.61 399.193 361.297C400.471 356.054 403.079 351.254 405.453 346.402C407.879 341.419 410.123 336.202 410.409 330.672C410.54 328.037 410.253 325.377 410.566 322.768C410.983 319.507 412.392 316.142 411.296 313.038C410.696 316.351 408.27 318.985 406.601 321.881C405.74 323.368 405.088 324.959 404.618 326.603C403.705 329.863 403.601 333.333 402.427 336.489C401.801 338.185 400.914 339.75 400.21 341.419C397.523 347.837 397.966 355.088 398.54 362.027C394.993 366.488 391.836 371.236 389.723 376.401C389.593 368.288 392.175 360.201 391.497 352.089C391.367 350.471 391.106 348.88 390.949 347.263C390.558 342.958 390.975 338.55 390.089 334.298C389.593 331.976 388.732 329.733 387.871 327.542C387.036 325.403 386.202 323.264 385.367 321.151C386.593 325.142 385.967 329.42 385.367 333.541C384.428 339.985 383.541 346.584 384.663 353.002C385.419 357.384 387.089 361.636 387.219 366.071C387.271 367.557 387.115 369.044 387.297 370.531C387.558 372.801 388.523 374.914 389.515 376.975C388.941 378.461 388.419 380 388.028 381.566C386.671 386.939 385.758 392.756 385.524 398.469C384.663 396.017 383.828 393.539 383.358 390.983C382.237 384.826 383.228 378.357 381.558 372.305C381.141 370.766 380.541 369.279 379.941 367.792C378.689 364.688 377.463 361.584 376.211 358.48C375.246 356.08 374.124 353.497 371.854 352.271C372.95 354.671 373.55 357.28 373.628 359.888C373.68 361.427 373.524 362.966 373.602 364.531C373.759 368.288 375.115 371.888 375.95 375.566C377.124 380.731 377.306 386.183 379.445 391.009C380.776 394.061 382.889 396.774 385.497 398.861C385.419 400.791 385.445 402.695 385.55 404.573C385.758 408.747 386.671 412.869 387.297 416.99C385.889 413.286 385.08 409.321 383.202 405.826C382.445 404.417 381.532 403.113 380.724 401.756C379.602 399.878 378.689 397.895 377.88 395.861C377.124 393.982 376.472 392.052 375.533 390.252C374.594 388.478 373.367 386.835 372.115 385.27C370.028 382.661 367.785 380.183 365.15 378.122C365.62 380.027 366.82 381.618 367.811 383.313C369.924 386.835 371.15 390.8 372.872 394.53C375.454 400.139 379.132 405.147 382.941 409.999C384.506 411.982 386.123 414.017 386.932 416.39L387.35 417.303C387.897 420.981 388.184 424.66 387.584 428.416C387.48 429.068 388.497 429.225 388.602 428.572C389.671 421.842 387.923 415.373 387.01 408.747C388.315 406.139 391.236 404.6 394.08 403.713C397.158 402.721 400.471 402.174 403.132 400.321C405.088 398.965 406.523 396.982 408.375 395.496C411.401 393.096 415.288 392.104 418.574 390.044C423.87 386.705 427.183 380.418 426.922 374.157C425.487 376.114 424.026 378.122 422.044 379.531C420.4 380.679 418.47 381.383 416.67 382.27C411.635 384.774 407.462 388.948 402.166 390.826C400.079 391.557 397.836 391.922 395.984 393.122C394.549 394.035 393.454 395.339 392.488 396.722C390.089 400.113 388.419 403.947 386.932 407.808C386.906 407.652 386.906 407.521 386.88 407.365C386.593 404.808 386.489 402.226 386.567 399.617L386.619 399.643C386.593 399.643 386.593 399.617 386.567 399.617C386.671 396.461 386.984 393.304 387.454 390.2C390.323 387.278 393.662 384.826 397.288 382.974C399.219 381.983 401.279 381.122 402.871 379.635C404.514 378.096 405.531 376.009 407.07 374.392C410.566 370.714 416.07 370.062 420.844 368.314C425.461 366.618 429.53 363.775 433.574 360.958C434.826 360.097 436.078 359.21 437.043 358.036C434.617 357.827 432.4 359.288 430.052 359.888C427.913 360.436 425.67 360.28 423.505 360.54C420.948 360.853 418.522 361.766 416.174 362.758C412.235 364.453 408.453 366.462 404.671 368.444C402.792 369.436 400.888 370.453 399.219 371.783C396.01 374.34 393.819 377.914 391.706 381.435C390.428 383.548 389.176 385.635 387.897 387.748C388.106 386.522 388.341 385.296 388.602 384.07C390.558 374.549 396.114 366.54 402.453 359.132C408.531 357.175 414.609 355.245 420.687 353.288C422.852 352.584 425.044 351.906 427.313 351.775C428.774 351.697 430.235 351.88 431.669 351.697C433.156 351.515 434.591 350.993 435.921 350.315C439.052 348.75 441.765 346.454 444.452 344.184C446.069 342.828 447.686 341.445 449.147 339.932C450.243 338.811 451.312 337.428 451.208 335.863C440.121 342.567 426.87 344.628 415.314 350.419Z" fill="white" fill-opacity="0.5"/>
<path d="M259.711 308.473C256.424 304.299 251.937 301.273 248.416 297.308C245.05 293.499 242.651 288.856 239.025 285.282C236.077 282.387 232.451 280.326 229.164 277.822C223.608 273.622 219.017 268.248 214.504 262.953C218.756 269.996 222.982 277.039 227.234 284.082C230.782 289.978 234.46 296.004 239.807 300.308C243.642 303.386 248.181 305.447 252.068 308.447C257.493 312.673 261.354 318.516 265.058 324.307C265.137 318.646 263.232 312.933 259.711 308.473Z" fill="#B6B6B6"/>
<path d="M287.493 342.724C279.693 352.036 277.737 364.636 276.51 376.844C273.824 366.54 271.372 356.184 269.598 345.724C274.241 341.498 278.884 337.272 283.501 333.046C286.032 330.75 288.562 328.429 291.197 326.211C304.005 315.438 319.239 306.673 327.691 292.247C325.422 293.891 323.152 295.56 320.857 297.204C318.3 299.056 315.692 300.934 312.848 302.317C310.292 303.543 307.553 304.377 304.944 305.499C293.179 310.534 284.806 320.994 276.928 331.063C273.798 335.054 270.589 339.254 269.311 344.106C268.189 337.324 267.354 330.515 266.937 323.655C269.989 318.777 275.18 315.438 279.432 311.421C284.675 306.464 288.693 300.256 294.432 295.899C297.275 293.734 300.457 292.091 303.431 290.082C311.57 284.578 317.674 276.648 323.648 268.848C314.7 276.283 301.814 277.3 292.501 284.291C289.266 286.717 286.58 289.769 283.893 292.795C280.841 296.239 277.815 299.708 275.18 303.49C271.476 308.812 268.633 314.733 266.78 320.968C266.572 316.716 266.546 312.438 266.702 308.134C266.833 304.351 267.146 300.621 267.615 296.943C276.119 288.152 285.093 279.439 296.388 274.874C300.457 273.231 304.814 272.135 308.544 269.84C310.813 268.457 312.77 266.657 314.726 264.831C318.118 261.649 321.561 258.205 322.891 253.745C320.178 255.44 317.439 257.136 314.726 258.831C310.918 261.205 307.083 263.579 302.909 265.17C298.97 266.683 294.745 267.492 290.988 269.37C287.884 270.935 285.171 273.231 282.588 275.578C276.823 280.874 271.398 286.874 268.059 293.891C269.18 286.613 270.928 279.465 273.171 272.396C283.449 266.031 293.101 258.701 301.996 250.51C308.935 244.119 315.457 237.154 320.204 228.989C324.926 220.824 327.769 211.355 326.961 201.964C317.805 215.137 313.161 231.598 301.37 242.502C298.553 245.11 295.397 247.301 292.397 249.701C285.458 255.205 279.354 261.753 274.293 269.031C275.258 266.214 276.276 263.422 277.371 260.657C279.041 256.431 280.762 252.232 282.51 248.032C293.675 238.432 304.918 227.972 309.587 214.094C311.518 208.355 312.222 202.277 312.744 196.251C313.422 188.165 313.787 180.078 313.787 171.965C306.431 186.573 309.9 205.199 301.136 219.024C298.814 222.702 295.71 225.859 293.336 229.511C289.762 235.041 287.806 241.797 283.215 246.336C286.788 237.676 290.284 229.015 293.023 220.042C295.71 217.016 297.431 213.129 298.37 209.164C299.466 204.52 299.57 199.695 299.544 194.921C299.414 174.339 296.805 153.783 291.719 133.854C286.371 157.305 292.475 181.643 293.049 205.746C292.71 204.573 292.345 203.425 291.953 202.303C290.127 196.877 288.275 191.451 285.823 186.286C284.336 183.156 282.641 180.156 281.31 176.974C279.849 173.504 278.858 169.852 277.867 166.226C276.719 162.027 275.571 157.853 274.424 153.653C273.041 161.635 272.258 169.904 274.371 177.73C276.354 185.06 280.736 191.478 284.623 197.999C288.171 203.947 291.432 210.364 292.006 217.224C292.006 217.25 291.979 217.276 291.979 217.329C289.58 225.676 286.449 233.737 283.188 241.745C285.484 226.537 281.884 210.494 273.171 197.79C271.111 194.79 268.763 191.947 266.807 188.869C263.311 183.365 261.12 177.156 258.929 171.026C258.459 177.208 259.398 183.495 261.694 189.234C263.911 194.816 267.328 199.825 270.224 205.094C277.084 217.642 280.945 231.832 281.362 246.127C279.641 250.301 277.893 254.475 276.224 258.675C276.589 253.066 275.076 247.38 273.198 242.006C267.824 226.511 259.659 212.007 249.199 199.382C250.451 206.764 252.72 213.964 255.903 220.746C259.476 228.311 264.146 235.302 267.876 242.789C271.319 249.701 273.928 257.266 273.798 264.962C273.693 265.248 273.589 265.535 273.485 265.822C270.667 273.57 268.476 281.422 266.989 289.404L266.963 288.935C266.363 273.909 261.902 259.092 254.181 246.206C252.668 243.702 251.051 241.276 249.642 238.719C247.19 234.337 245.364 229.589 242.521 225.441C241.894 233.137 244.373 240.754 247.764 247.693C251.155 254.631 255.459 261.049 258.902 267.961C262.528 275.239 265.163 283.013 266.728 290.995C266.598 291.804 266.467 292.613 266.337 293.447V293.421C265.033 282.935 257.494 274.3 249.303 267.648C241.112 260.996 231.851 255.518 224.808 247.64C226.817 258.44 235.869 266.37 244.607 273.022C252.981 279.387 262.033 286.039 266.024 295.665C265.372 300.438 265.007 305.29 264.902 310.168C264.798 314.994 264.928 319.768 265.241 324.542C265.189 324.464 265.163 324.411 265.111 324.333C265.111 324.464 265.111 324.594 265.111 324.724L265.267 324.829C265.607 329.811 266.154 334.794 266.885 339.75C259.633 328.611 250.033 319.012 238.895 311.786C235.112 309.334 231.147 307.116 227.652 304.247C221.808 299.421 217.635 292.952 213.539 286.587C216.435 295.065 220.582 303.099 225.799 310.351C227.886 313.22 230.156 316.012 232.895 318.255C236.286 321.046 240.303 322.924 244.112 325.09C253.137 330.229 261.198 337.063 267.72 345.15C269.572 356.21 272.18 367.192 275.024 378.096L273.693 375.957C269.624 368.027 265.528 360.045 260.181 352.897C254.833 345.75 248.129 339.437 239.99 335.785C231.512 332.002 221.313 330.881 215.13 323.968C217.765 331.455 224.391 336.802 231.251 340.819C238.112 344.837 245.573 347.993 251.598 353.158C257.311 358.036 261.433 364.479 266.676 369.853C269.467 372.722 272.598 375.305 275.102 378.461C277.997 389.47 281.128 400.426 283.997 411.356C284.284 412.477 285.98 411.825 285.693 410.704C282.902 400.087 279.849 389.417 277.032 378.722C282.954 370.088 285.823 359.471 292.501 351.384C297.77 344.993 305.022 340.637 311.544 335.524C318.065 330.411 324.222 323.968 325.761 315.829C321.196 319.22 316.605 322.611 311.779 325.611C303.301 330.828 293.884 335.08 287.493 342.724Z" fill="#B6B6B6"/>
<path d="M394.811 272.135C395.358 269.214 395.176 266.057 393.715 263.449C392.254 260.84 389.385 258.962 386.411 259.223C383.672 259.483 381.35 261.492 380.072 263.944C378.82 266.396 378.481 269.187 378.403 271.926C378.116 281.265 380.489 290.447 382.811 299.499C383.228 301.117 383.646 302.708 384.063 304.325C385.289 296.082 388.576 288.23 391.889 280.535C393.089 277.822 394.289 275.057 394.811 272.135Z" fill="#B6B6B6"/>
<path d="M432.034 288.726C431.252 287.813 430.208 287.161 429.087 286.769C424.313 285.022 419.096 287.213 414.531 289.482C407.722 292.9 401.018 296.552 394.497 300.464C392.123 301.873 389.723 303.386 387.714 305.264C391.705 299.343 395.905 293.578 400.288 287.943C403.366 286.769 406.47 285.595 409.548 284.422C414.609 282.517 419.722 280.561 424.182 277.509C428.643 274.457 432.478 270.179 433.913 264.962C434.486 262.849 434.591 260.423 433.339 258.649C432.713 257.762 431.8 257.11 430.834 256.614C425.304 253.666 417.896 255.049 413.566 259.562C411.27 261.962 409.809 265.04 408.374 268.04C405.479 274.17 402.583 280.3 399.714 286.43C399.505 286.456 399.297 286.561 399.114 286.769C394.053 293.265 389.253 299.943 384.714 306.777C384.506 305.969 384.297 305.186 384.088 304.377C383.906 305.682 383.749 307.012 383.671 308.316H383.697C382.367 310.351 381.036 312.412 379.758 314.473C376.967 309.516 376.08 303.725 374.593 298.195C373.028 292.43 370.419 286.456 365.28 283.378C363.872 282.543 362.255 281.943 360.637 282.048C359.437 282.126 358.289 282.543 357.246 283.091C355.446 284.03 353.829 285.361 352.837 287.135C350.725 290.943 352.133 295.926 354.95 299.265C357.768 302.604 361.733 304.69 365.489 306.908C370.106 309.621 374.541 312.62 378.767 315.881L378.923 315.803C374.828 322.429 370.993 329.211 367.393 336.124C364.602 326.733 360.872 317.603 356.281 308.942C354.924 306.386 353.464 303.803 351.22 301.977C347.542 298.978 341.855 298.56 337.916 301.247C333.977 303.908 332.282 309.542 334.29 313.847C335.621 316.716 338.282 318.725 340.916 320.498C349.472 326.211 359.098 330.385 366.872 337.089C365.098 340.532 363.376 344.002 361.733 347.523C352.916 337.872 342.247 329.915 330.482 324.229C328.891 323.446 327.195 322.716 325.421 322.768C322.526 322.872 320.047 325.272 319.343 328.063C318.639 330.855 319.5 333.907 321.143 336.254C322.787 338.628 325.186 340.376 327.665 341.837C331.291 343.95 335.256 345.463 339.351 346.323C343.316 347.158 347.359 347.367 351.403 347.576C354.768 347.758 358.107 347.915 361.472 348.097C360.194 350.836 358.942 353.601 357.742 356.367C353.907 358.662 349.003 357.906 344.777 356.549C340.499 355.167 336.273 353.184 331.76 353.262C328.421 353.315 325.108 354.567 322.552 356.732C320.282 358.662 318.587 361.766 319.63 364.558C319.943 365.392 320.491 366.123 321.091 366.801C322.369 368.21 323.986 369.383 325.812 369.905C327.795 370.479 329.934 370.27 331.969 369.957C340.968 368.549 349.577 364.688 356.646 358.949C351.742 370.557 347.542 382.452 344.047 394.556C340.89 405.486 336.925 417.408 339.012 428.885C339.195 429.955 340.812 429.538 340.629 428.494C338.386 416.155 343.29 402.721 346.838 391.035C349.525 382.113 352.603 373.322 356.072 364.688C355.89 369.644 357.716 374.757 360.037 379.27C363.559 386.104 368.854 392.782 376.341 394.53C377.958 394.895 379.706 395.026 381.271 394.426C383.41 393.617 384.897 391.504 385.393 389.261C385.888 387.018 385.471 384.67 384.688 382.505C381.975 375.044 375.141 369.905 368.228 365.966C364.576 363.879 360.507 361.662 358.889 357.853C359.542 356.34 360.194 354.827 360.872 353.314C361.446 352.01 362.046 350.732 362.646 349.454C373.185 359.393 384.323 369.436 398.149 373.635C400.001 374.209 401.931 374.653 403.835 374.392C405.74 374.131 407.644 372.983 408.322 371.183C409.235 368.783 407.827 366.149 406.444 363.958C404.044 360.149 401.462 356.21 397.549 353.941C395.279 352.636 392.697 351.984 390.114 351.462C381.167 349.636 372.037 349.219 362.907 348.828C364.55 345.306 366.246 341.837 368.019 338.393C378.089 340.559 387.427 345.671 397.601 347.21C400.157 347.602 402.818 347.758 405.348 347.158C407.879 346.558 410.279 345.124 411.635 342.932C412.992 340.715 413.096 337.663 411.531 335.602C410.8 334.611 409.757 333.907 408.687 333.307C402.401 329.681 394.758 328.794 387.558 329.915C380.854 330.959 374.515 333.698 368.672 337.115C371.619 331.428 374.75 325.82 378.036 320.316L378.063 320.42C385.445 321.881 392.853 323.342 400.236 324.829C406.079 325.976 412.261 327.124 417.818 325.011C419.852 324.255 421.783 322.977 422.8 321.072C424.704 317.472 422.435 312.673 418.731 310.977C417.218 310.299 415.522 310.038 413.852 309.855C401.696 308.577 389.149 311.76 379.054 318.62C381.636 314.368 384.323 310.168 387.088 306.047C400.027 303.647 413.644 305.525 426.348 302.03C429.452 301.169 432.843 299.604 433.652 296.499C433.939 295.352 433.834 294.152 433.626 293.004C433.469 291.439 433.026 289.9 432.034 288.726Z" fill="#B6B6B6"/>
<path d="M111.048 236.606C111.335 233.293 111.361 229.85 110.188 226.72C109.04 223.589 106.51 220.824 103.249 220.094C99.7272 219.337 95.9447 221.189 93.8318 224.111C91.6927 227.033 91.0145 230.815 91.2493 234.415C91.4579 238.015 92.5014 241.51 93.5187 244.98C96.3882 254.736 99.2055 264.701 99.4663 274.796C100.197 272.918 100.953 271.04 101.684 269.161C105.831 258.623 110.031 247.875 111.048 236.606Z" fill="#B6B6B6"/>
<path d="M174.046 312.881C173.602 309.412 170.941 306.151 167.472 305.603C165.333 305.264 163.194 305.916 161.133 306.621C146.134 311.76 132.099 319.794 120.074 330.124C118.613 325.663 117.048 321.203 115.404 316.794C125.761 309.829 137.969 306.203 149.134 300.595C152.577 298.873 156.046 296.812 158.081 293.552C161.133 288.648 159.907 281.63 155.551 277.822C151.194 274.013 144.308 273.674 139.43 276.752C136.456 278.631 134.317 281.526 132.308 284.396C125.526 294.178 119.683 304.612 114.935 315.516C111.622 306.647 107.97 297.934 104.005 289.326L104.188 289.456C109.77 286.143 115.561 283.196 121.509 280.587C126.361 278.474 131.447 276.518 135.334 272.918C139.221 269.318 141.647 263.527 139.664 258.623C138.751 256.353 136.978 254.475 134.943 253.092C133.743 252.258 132.412 251.579 131.004 251.319C129.047 250.979 127.013 251.449 125.187 252.258C118.535 255.205 114.544 262.014 111.805 268.744C109.196 275.161 107.266 282.022 103.196 287.604C101.944 284.917 100.666 282.256 99.3356 279.596H99.3616C99.466 277.978 99.4921 276.387 99.4399 274.77C99.0747 275.709 98.7095 276.648 98.3443 277.561C93.8836 268.64 89.0577 259.901 83.9188 251.345C83.7623 251.058 83.5014 250.901 83.2666 250.849C80.6841 243.023 78.1016 235.224 75.5191 227.398C74.2409 223.563 72.9366 219.65 70.5106 216.416C65.9195 210.338 57.2068 207.599 50.1114 210.338C48.8854 210.807 47.6854 211.459 46.7985 212.424C44.9986 214.381 44.7899 217.329 45.1812 219.963C46.1203 226.459 50.1114 232.198 55.0677 236.528C59.998 240.858 65.8673 243.936 71.6845 246.988C75.2322 248.84 78.7798 250.719 82.3536 252.571C86.8143 260.005 91.0141 267.596 94.9792 275.318C92.8141 272.787 90.1533 270.622 87.4925 268.561C80.1885 262.875 72.6497 257.475 64.9282 252.388C59.7893 248.997 53.7895 245.58 47.7898 246.988C46.3811 247.327 44.9986 247.927 43.9551 248.919C42.5987 250.197 41.8161 251.971 41.2944 253.771C40.877 255.127 40.564 256.562 40.7466 257.997C41.2683 261.857 45.129 264.257 48.7289 265.744C63.5457 271.796 80.2146 271.561 95.4748 276.335C98.2139 281.709 100.849 287.161 103.327 292.665C92.1358 282.935 77.4756 277.248 62.6327 277.013C60.598 276.987 58.5372 277.039 56.6068 277.665C51.9113 279.152 48.468 284.63 50.2158 289.221C51.1549 291.674 53.32 293.5 55.6416 294.726C62.0327 298.091 69.6759 297.621 76.8756 297.073C86.0056 296.395 95.1357 295.691 104.266 295.012L104.318 294.908C107.474 302.03 110.448 309.229 113.161 316.533C106.614 311.525 99.3616 307.325 91.4576 305.082C82.9536 302.656 73.6148 302.63 65.5021 306.073C64.1196 306.647 62.7631 307.351 61.7197 308.421C59.5284 310.69 59.2154 314.368 60.5197 317.238C61.824 320.107 64.5369 322.168 67.4846 323.264C70.4324 324.359 73.667 324.542 76.7973 324.464C89.2925 324.098 101.318 319.299 113.761 318.151C115.378 322.559 116.944 326.994 118.404 331.481C107.37 330.62 96.2835 329.785 85.2231 330.672C82.0406 330.933 78.832 331.324 75.8843 332.576C70.8497 334.715 67.1455 339.098 63.7022 343.324C61.7197 345.75 59.6328 348.697 60.3893 351.749C60.9632 354.019 63.0761 355.662 65.3456 356.262C67.6151 356.862 70.015 356.601 72.3105 356.184C89.6055 353.132 104.474 342.671 118.639 332.211C119.161 333.854 119.683 335.498 120.204 337.141C120.804 339.072 121.378 340.976 121.952 342.906C119.448 347.263 114.205 349.349 109.509 351.332C100.614 355.062 91.588 360.227 87.2578 368.836C86.0056 371.314 85.1709 374.105 85.4318 376.87C85.6926 379.635 87.1795 382.4 89.6577 383.705C91.4576 384.644 93.5706 384.774 95.6053 384.539C104.892 383.548 112.248 376.27 117.491 368.549C120.935 363.462 123.908 357.567 124.404 351.567C127.326 362.497 129.752 373.531 131.682 384.67C134.239 399.278 138.177 416.208 133.665 430.738C133.273 431.99 135.178 432.694 135.543 431.468C139.743 417.929 136.691 402.982 134.499 389.339C132.073 374.235 128.734 359.288 124.535 344.602C132.204 352.558 142.012 358.48 152.655 361.506C155.081 362.184 157.612 362.732 160.09 362.34C162.385 361.975 164.498 360.827 166.246 359.288C167.055 358.584 167.837 357.775 168.333 356.81C170.002 353.601 168.385 349.61 165.959 346.95C163.22 343.95 159.411 341.967 155.394 341.419C149.994 340.663 144.595 342.437 139.247 343.48C133.925 344.524 127.9 344.68 123.648 341.367C122.604 337.846 121.509 334.324 120.387 330.855C124.456 331.142 128.526 331.402 132.595 331.689C137.499 332.028 142.403 332.368 147.308 331.95C152.368 331.507 157.377 330.255 162.046 328.272C165.255 326.889 168.385 325.116 170.733 322.507C173.002 319.898 174.489 316.351 174.046 312.881Z" fill="#B6B6B6"/>
<path d="M208.165 403.269C200.131 387.774 190.792 372.409 187.505 355.036C185.966 346.845 186.227 338.732 187.479 330.541C188.653 322.872 190.296 315.307 190.74 307.56C190.766 306.986 189.853 307.038 189.827 307.612C189.331 316.325 187.244 324.829 186.122 333.489C185.131 341.106 185.262 348.671 186.801 356.21C190.296 373.322 199.452 388.478 207.382 403.765C207.695 404.312 208.452 403.791 208.165 403.269Z" fill="#B6B6B6"/>
<path d="M190.114 308.551C189.253 304.821 186.723 301.716 184.088 298.951C181.454 296.186 178.584 293.525 176.81 290.134C174.906 286.534 174.384 282.387 174.176 278.317C175.193 280.248 176.237 282.178 177.254 284.108C178.141 285.778 179.028 287.447 180.149 289.013C181.167 290.421 182.315 291.726 183.41 293.082C185.184 295.351 186.697 297.804 188.21 300.256C189.723 302.708 191.262 305.577 190.453 308.342" fill="#B6B6B6"/>
<path d="M190.402 308.603C188.523 294.308 180.437 281.083 180.463 266.657C185.185 275.891 188.732 285.7 191.08 295.769C191.628 298.117 192.097 300.49 192.071 302.89C192.045 305.29 191.471 307.742 190.089 309.699" fill="#B6B6B6"/>
<path d="M188.08 323.994C186.384 316.638 182.811 309.699 177.828 304.038C175.82 301.769 173.602 299.682 171.881 297.204C170.107 294.621 168.959 291.647 168.516 288.569C170.263 291.334 172.037 294.152 174.359 296.473C175.663 297.777 177.124 298.899 178.48 300.151C184.767 305.968 188.419 314.499 188.341 323.055" fill="#B6B6B6"/>
<path d="M188.263 323.55C190.48 320.733 190.637 316.846 191.863 313.455C192.619 311.394 193.793 309.516 194.523 307.429C197.288 299.682 193.532 290.917 195.515 282.909C196.401 286.9 197.132 290.917 197.706 294.96C198.123 297.986 198.436 301.038 198.123 304.064C197.341 311.681 192.671 318.255 188.08 324.385" fill="#B6B6B6"/>
<path d="M186.253 336.724C187.975 331.95 190.479 327.463 193.662 323.498C194.862 321.985 196.166 320.551 197.262 318.959C201.853 312.307 202.296 303.699 205.348 296.212C206.783 300.725 206.444 305.708 205.035 310.22C203.627 314.759 201.174 318.907 198.488 322.794C194.783 328.141 190.531 333.124 185.836 337.611" fill="#B6B6B6"/>
<path d="M186.096 338.211C186.566 336.88 186.592 335.393 186.383 334.011C185.783 329.837 183.514 326.081 180.853 322.82C178.192 319.559 175.114 316.638 172.532 313.325C170.21 310.351 168.306 307.064 166.871 303.569C173.393 308.603 179.027 314.838 183.383 321.855C185.183 324.75 186.801 327.933 186.853 331.35" fill="#B6B6B6"/>
<path d="M186.176 349.558C183.228 344.863 177.803 342.515 172.768 340.219C167.733 337.924 162.412 335.028 160.221 329.941C164.551 333.02 169.716 334.689 174.464 337.063C179.237 339.437 183.881 342.828 185.681 347.836" fill="#B6B6B6"/>
<path d="M186.148 347.889C184.452 343.663 182.079 339.671 179.209 336.15C176.757 333.15 173.914 330.463 171.488 327.437C169.062 324.411 167.001 320.942 166.453 317.081C168.305 318.803 169.74 320.942 171.436 322.82C172.427 323.916 173.47 324.933 174.488 325.976C179.705 331.454 183.539 338.237 185.496 345.541" fill="#B6B6B6"/>
<path d="M186.253 350.106C186.749 345.436 189.044 341.132 191.731 337.298C192.722 335.863 193.818 334.428 195.174 333.307C196.818 331.95 198.8 331.089 200.548 329.915C202.426 328.663 204.044 327.072 205.661 325.481C206.809 324.359 207.956 323.211 209.104 322.09C208.948 324.411 207.643 326.498 206.339 328.428C205.583 329.524 204.826 330.646 203.861 331.559C202.27 333.098 200.261 334.115 198.435 335.393C193.035 339.124 189.461 344.915 186.07 350.523" fill="#B6B6B6"/>
<path d="M188.81 363.462C186.254 360.932 183.619 358.323 180.358 356.81C178.115 355.766 175.663 355.245 173.445 354.175C170.341 352.662 167.863 350.106 165.463 347.602C162.594 344.602 159.75 341.628 156.881 338.628C159.698 340.741 162.515 342.854 165.724 344.315C167.628 345.176 169.637 345.776 171.385 346.871C173.576 348.228 175.245 350.236 177.332 351.749C179.497 353.314 182.054 354.306 184.115 355.975C186.384 357.827 187.975 360.488 188.549 363.357" fill="#B6B6B6"/>
<path d="M188.915 363.462C188.889 359.471 189.671 355.506 191.158 351.801C192.019 349.662 193.141 347.628 194.262 345.593C195.227 343.819 196.219 342.019 197.549 340.454C201.358 335.993 207.566 334.063 211.14 329.42C209.079 333.907 206.94 338.498 203.549 342.097C202.323 343.402 200.94 344.576 199.766 345.932C197.419 348.723 196.141 352.219 194.106 355.219C192.28 357.932 189.802 360.358 189.045 363.54" fill="#B6B6B6"/>
<path d="M192.879 373.714C188.601 370.166 183.619 367.453 178.297 365.836C176.184 365.184 173.993 364.714 172.036 363.723C170.445 362.914 169.01 361.818 167.68 360.618C164.315 357.645 161.367 354.149 159.02 350.315C161.732 353.001 164.524 355.714 167.915 357.436C169.95 358.453 172.141 359.106 174.28 359.888C181.193 362.444 187.479 366.618 192.54 371.966" fill="#B6B6B6"/>
<path d="M192.801 373.296C192.618 370.453 193.87 367.74 195.096 365.157C197.835 359.34 200.809 353.262 206.026 349.506C207.174 348.671 208.426 347.967 209.548 347.08C210.8 346.089 211.87 344.889 212.913 343.689C213.852 342.619 214.791 341.55 215.704 340.506C213.148 348.515 206.626 354.514 201.54 361.218C200.496 362.601 199.505 364.01 198.514 365.418C196.583 368.183 194.653 370.949 192.723 373.714" fill="#B6B6B6"/>
<path d="M199.844 388.974C198.175 387.513 196.166 386.522 194.314 385.322C191.158 383.261 188.392 380.548 185.053 378.8C181.506 376.922 177.515 376.218 173.706 374.992C169.898 373.792 166.037 371.888 163.924 368.496C167.732 371.209 172.871 370.635 177.436 371.548C181.845 372.435 185.836 374.809 189.253 377.705C192.671 380.626 195.566 384.096 198.435 387.539" fill="#B6B6B6"/>
<path d="M200.132 389.261C199.271 382.661 198.489 375.618 201.541 369.696C203.836 365.236 207.984 362.105 211.558 358.584C213.592 356.575 215.471 354.41 217.349 352.245C217.505 356.419 215.184 360.253 212.549 363.488C209.914 366.723 206.836 369.67 204.958 373.374C202.454 378.331 202.323 384.174 200.08 389.235" fill="#B6B6B6"/>
<path d="M237.355 412.947C241.763 394.4 239.442 373.948 236.65 355.323C233.99 337.428 229.685 319.846 224.755 302.447C224.52 301.638 225.799 301.404 226.007 302.186C231.225 320.577 235.737 339.176 238.346 358.114C240.824 376.088 242.781 395.548 238.555 413.364C238.372 414.173 237.172 413.756 237.355 412.947Z" fill="#919191"/>
<path d="M225.512 302.995C222.46 294.152 216.017 286.874 212.365 278.265C209.339 271.196 208.269 263.292 209.313 255.675C211.426 257.005 213.069 258.936 214.556 260.944C218.182 265.901 220.921 271.509 222.956 277.3C225.877 285.7 227.364 294.856 225.538 303.569" fill="#919191"/>
<path d="M228.824 314.525C229.033 307.325 229.763 300.047 232.007 293.213C234.276 286.378 238.215 279.909 243.954 275.578C244.085 276.465 243.98 277.378 243.85 278.291C241.998 291.778 236.937 304.821 229.189 316.012" fill="#919191"/>
<path d="M231.617 325.35C233.521 316.064 239.208 307.899 246.043 301.299C249.173 298.273 252.616 295.482 256.686 293.943C255.903 297.021 254.495 299.891 253.112 302.76C252.016 305.003 250.921 307.273 249.486 309.334C248.338 310.977 246.956 312.438 245.547 313.873C242.547 316.951 239.365 319.925 235.765 322.272C234.382 323.159 232.948 323.994 231.904 325.246" fill="#919191"/>
<path d="M233.156 332.028C235.843 328.715 238.556 325.403 241.634 322.455C244.712 319.507 248.234 316.925 252.173 315.333C255.747 313.873 259.607 313.273 263.442 312.751C256.973 319.585 249.095 325.116 240.46 328.82C238.086 329.837 235.634 330.724 233.469 332.133" fill="#919191"/>
<path d="M234.328 336.385C235.841 334.507 238.111 333.411 240.354 332.498C247.762 329.472 255.901 327.62 263.831 328.846C261.092 330.02 258.327 331.194 255.588 332.368C253.893 333.098 252.223 333.802 250.475 334.402C245.493 336.124 240.197 336.802 234.954 337.454" fill="#919191"/>
<path d="M234.93 341.811C237.903 340.219 241.216 339.411 244.477 338.628C252.381 336.724 260.624 334.846 268.581 336.515C264.85 337.559 261.589 339.854 258.016 341.341C256.164 342.124 254.233 342.671 252.329 343.219C249.486 344.028 246.59 344.836 243.642 344.967C240.695 345.097 237.59 344.471 235.243 342.697" fill="#919191"/>
<path d="M236.312 347.315C242.156 346.689 248.077 346.558 253.894 347.367C259.712 348.176 265.424 349.975 270.459 353.027C268.816 353.367 267.172 353.732 265.529 354.071C263.911 354.41 262.294 354.749 260.677 354.984C252.225 356.106 243.434 353.784 236.417 348.958" fill="#919191"/>
<path d="M237.538 353.028C243.382 354.488 249.016 356.862 254.155 360.045C257.807 362.288 261.303 365.053 263.259 368.862C259.659 367.349 255.955 366.018 252.225 364.897C250.842 364.479 249.434 364.088 248.103 363.514C243.747 361.662 240.408 358.062 237.199 354.567" fill="#919191"/>
<path d="M238.008 358.871C240.669 360.488 243.277 362.184 245.834 363.958C250.294 367.088 254.807 370.766 256.529 375.931C254.546 374.548 252.512 373.244 250.425 372.044C245.886 369.41 240.877 366.905 238.295 362.34" fill="#919191"/>
<path d="M238.58 363.253C240.197 366.54 242.232 369.592 244.632 372.357C246.615 374.653 248.91 376.818 249.901 379.687C244.267 378.07 239.728 373.14 238.606 367.375" fill="#919191"/>
<path d="M228.955 314.655C224.181 308.942 219.407 303.203 215.364 296.969C214.034 294.908 212.781 292.795 211.321 290.839C208.477 287.004 204.877 283.717 200.756 281.265C202.66 283.874 203.991 286.848 205.399 289.743C208.06 295.169 211.086 300.438 214.973 305.082C218.833 309.725 223.581 313.716 229.111 316.142" fill="#919191"/>
<path d="M231.537 325.246C226.398 320.42 220.373 316.586 215.521 311.499C214.321 310.247 213.199 308.916 211.999 307.69C208.477 304.064 204.173 301.195 199.504 299.264C203.912 303.569 206.078 309.725 210.277 314.238C212.782 316.951 215.938 318.985 219.121 320.837C220.973 321.933 222.851 322.977 224.912 323.603C227.051 324.281 229.294 324.463 231.537 324.594" fill="#919191"/>
<path d="M234.277 337.846C231.851 332.602 226.816 329.107 221.938 326.003C220.373 324.985 218.808 323.994 217.217 323.003C211.999 319.742 206.547 316.481 200.443 315.594C203.939 318.255 207.46 320.89 211.008 323.472C218.104 328.689 225.408 333.88 233.781 336.593" fill="#919191"/>
<path d="M235.842 346.193C234.146 343.897 231.877 342.098 229.555 340.428C222.094 335.054 213.773 330.802 204.852 328.637C214.451 336.02 224.259 343.532 235.737 347.367" fill="#919191"/>
<path d="M236.598 353.393C234.042 350.575 230.755 348.515 227.442 346.663C220.268 342.619 212.703 339.28 204.904 336.724C202.765 336.019 200.573 335.367 198.33 335.367C207.695 343.037 218.521 348.932 230.024 352.662C232.19 353.367 234.407 353.993 236.702 354.045" fill="#919191"/>
<path d="M236.128 355.767C232.268 354.854 228.329 354.201 224.39 353.81C221.755 353.549 219.094 353.419 216.486 353.784C213.877 354.149 211.295 355.01 209.182 356.627C210.382 357.175 211.686 357.436 212.99 357.697C214.529 358.01 216.094 358.323 217.633 358.61C219.12 358.897 220.633 359.21 222.146 359.366C227.077 359.862 232.085 358.74 236.728 357.045" fill="#919191"/>
<path d="M237.042 358.688C232.555 360.305 228.146 362.288 224.364 365.184C220.581 368.079 217.399 371.914 215.912 376.453C224.703 373.035 232.398 366.801 237.537 358.897" fill="#919191"/>
<path d="M237.119 361.792C234.12 365.784 231.25 369.879 228.485 374.027C225.824 378.018 223.163 382.374 223.111 387.2C223.972 386.704 224.703 386 225.381 385.296C231.433 378.931 235.815 370.975 237.954 362.445" fill="#919191"/>
<path d="M358.003 444.067C360.455 431.024 367.681 418.686 374.724 407.625C381.48 397.008 389.175 387.018 397.236 377.366C397.601 376.922 396.871 376.401 396.506 376.844C388.002 387.07 379.863 397.635 372.846 408.93C366.194 419.651 359.464 431.468 357.116 443.989C357.012 444.537 357.899 444.615 358.003 444.067Z" fill="#919191"/>
<path d="M396.61 377.496C401.045 372.722 407.201 369.931 411.949 365.497C415.862 361.845 418.783 357.123 420.27 351.984C418.549 352.245 416.957 353.001 415.444 353.862C411.74 356.001 408.427 358.766 405.48 361.897C401.228 366.41 397.732 371.809 396.428 377.861" fill="#919191"/>
<path d="M391.235 383.887C393.14 379.244 394.731 374.418 395.227 369.436C395.722 364.453 395.044 359.236 392.592 354.854C392.253 355.401 392.07 356.001 391.888 356.601C389.253 365.705 388.809 375.409 390.557 384.722" fill="#919191"/>
<path d="M386.384 389.965C387.793 383.522 386.489 376.714 384.01 370.61C382.889 367.818 381.48 365.053 379.315 362.94C378.95 365.131 379.028 367.349 379.08 369.566C379.132 371.314 379.185 373.062 379.55 374.757C379.837 376.114 380.28 377.444 380.75 378.748C381.793 381.566 382.967 384.331 384.61 386.861C385.237 387.826 385.915 388.739 386.228 389.835" fill="#919191"/>
<path d="M383.54 393.8C382.758 390.93 381.975 388.061 380.854 385.322C379.732 382.583 378.219 379.948 376.158 377.809C374.28 375.879 372.01 374.392 369.715 372.983C371.88 379.166 375.349 384.878 379.784 389.704C381.01 391.035 382.314 392.287 383.306 393.774" fill="#919191"/>
<path d="M381.558 396.226C381.141 394.609 379.993 393.252 378.845 392.052C374.984 388.035 370.341 384.565 364.941 383.105C366.35 384.618 367.759 386.157 369.193 387.67C370.054 388.609 370.941 389.548 371.854 390.409C374.541 392.913 377.724 394.817 380.854 396.721" fill="#919191"/>
<path d="M379.628 399.513C378.193 397.661 376.315 396.226 374.463 394.791C369.976 391.348 365.255 387.826 359.725 386.626C361.811 388.348 363.22 390.722 365.072 392.678C366.037 393.695 367.107 394.582 368.176 395.469C369.768 396.8 371.359 398.104 373.211 399.017C375.063 399.93 377.202 400.4 379.211 399.93" fill="#919191"/>
<path d="M377.202 402.617C373.654 400.582 369.924 398.808 366.011 397.687C362.072 396.565 357.924 396.069 353.881 396.591C354.82 397.269 355.785 397.974 356.724 398.652C357.663 399.33 358.576 400.008 359.568 400.608C364.628 403.712 370.863 404.704 376.706 403.634" fill="#919191"/>
<path d="M374.803 405.904C370.655 405.173 366.429 405.121 362.256 405.669C359.308 406.06 356.308 406.843 353.986 408.695C356.699 408.747 359.438 408.956 362.125 409.295C363.116 409.425 364.134 409.582 365.151 409.582C368.438 409.634 371.594 408.278 374.62 406.973" fill="#919191"/>
<path d="M372.872 409.504C370.733 409.764 368.594 410.104 366.455 410.521C362.724 411.251 358.838 412.321 356.281 415.112C357.925 414.799 359.594 414.538 361.264 414.356C364.89 413.964 368.776 413.782 371.724 411.591" fill="#919191"/>
<path d="M371.255 412.138C369.299 413.756 367.134 415.138 364.838 416.208C362.934 417.095 360.847 417.825 359.412 419.364C363.455 419.938 367.734 418.06 370.081 414.747" fill="#919191"/>
<path d="M391.105 383.939C395.748 381.644 400.392 379.348 404.748 376.531C406.183 375.592 407.565 374.601 409.052 373.766C411.948 372.122 415.156 371.053 418.469 370.662C416.513 371.783 414.843 373.296 413.122 374.757C409.887 377.444 406.47 379.948 402.713 381.8C398.931 383.652 394.809 384.852 390.609 384.852" fill="#919191"/>
<path d="M386.463 389.939C391.08 388.322 396.01 387.591 400.549 385.713C401.671 385.244 402.74 384.722 403.862 384.279C407.123 382.974 410.671 382.348 414.192 382.453C410.175 383.939 407.045 387.252 403.106 388.922C400.732 389.939 398.175 390.33 395.619 390.617C394.132 390.774 392.645 390.93 391.158 390.748C389.619 390.565 388.132 390.07 386.672 389.522" fill="#919191"/>
<path d="M381.844 396.513C387.922 397.165 394.052 395.913 400.026 394.583C403.026 393.93 406 393.252 408.974 392.548C404.852 391.4 400.47 391.922 396.218 392.522C394.939 392.704 393.661 392.887 392.357 393.096C388.392 393.722 384.192 394.504 381.166 397.139" fill="#919191"/>
<path d="M377.803 402.043C379.524 401.052 381.481 400.556 383.411 400.139C389.672 398.834 396.167 398.495 402.454 399.617C394.263 401.6 385.915 403.608 377.516 402.799" fill="#919191"/>
<path d="M375.298 406.399C377.724 405.33 380.385 404.965 383.019 404.704C388.706 404.156 394.471 404.182 400.158 404.756C401.723 404.912 403.288 405.121 404.723 405.747C396.61 407.991 388.054 408.669 379.68 407.782C378.115 407.625 376.524 407.391 375.037 406.791" fill="#919191"/>
<path d="M374.932 408.043C377.644 408.565 380.331 409.243 382.94 410.13C384.688 410.704 386.409 411.382 387.975 412.347C389.54 413.312 390.922 414.59 391.809 416.208C390.896 416.208 389.983 415.999 389.096 415.816C388.027 415.582 386.957 415.347 385.888 415.086C384.844 414.851 383.801 414.616 382.81 414.277C379.523 413.182 376.679 411.095 374.201 408.669" fill="#919191"/>
<path d="M373.523 409.66C375.923 411.956 378.167 414.46 379.758 417.382C381.349 420.277 382.288 423.642 381.949 426.929C377.332 422.26 374.202 416.129 373.158 409.66" fill="#919191"/>
<path d="M372.611 411.59C373.393 414.982 374.071 418.373 374.645 421.816C375.219 425.103 375.663 428.625 374.332 431.703C373.915 431.155 373.654 430.503 373.419 429.851C371.358 424.086 370.837 417.799 371.88 411.773" fill="#919191"/>
<path d="M309.638 435.12C307.317 415.295 312.221 394.269 317.386 375.227C322.342 356.94 328.968 339.15 336.246 321.646C336.585 320.838 335.307 320.42 334.968 321.229C327.299 339.724 320.334 358.532 315.299 377.94C310.525 396.33 306.117 416.338 308.334 435.407C308.412 436.268 309.717 435.981 309.638 435.12Z" fill="#919191"/>
<path d="M335.386 322.142C339.638 313.299 347.229 306.516 352.107 298.012C356.125 291.021 358.185 282.935 358.055 274.874C355.707 275.996 353.751 277.822 351.977 279.726C347.595 284.448 344.073 289.926 341.256 295.743C337.186 304.143 334.526 313.455 335.36 322.768" fill="#919191"/>
<path d="M330.534 333.75C331.186 326.211 331.342 318.568 329.803 311.186C328.29 303.777 324.977 296.604 319.499 291.387C319.265 292.3 319.265 293.265 319.291 294.204C319.578 308.473 323.256 322.664 329.934 335.263" fill="#919191"/>
<path d="M326.283 344.654C325.448 334.741 320.518 325.559 314.205 317.864C311.335 314.342 308.075 311.003 304.031 308.916C304.475 312.203 305.57 315.386 306.666 318.516C307.527 320.994 308.388 323.498 309.64 325.794C310.657 327.646 311.883 329.342 313.161 331.011C315.9 334.585 318.848 338.054 322.317 340.95C323.648 342.045 325.057 343.063 325.996 344.524" fill="#919191"/>
<path d="M323.882 351.436C321.482 347.654 319.082 343.871 316.212 340.428C313.369 336.985 310.03 333.88 306.117 331.715C302.569 329.759 298.63 328.663 294.691 327.646C300.587 335.55 308.1 342.254 316.656 347.184C319.003 348.541 321.429 349.767 323.516 351.488" fill="#919191"/>
<path d="M322.135 355.819C320.805 353.68 318.561 352.245 316.344 351.019C308.988 346.95 300.771 344.054 292.371 344.341C295.084 345.906 297.797 347.445 300.51 349.01C302.179 349.976 303.849 350.915 305.571 351.749C310.553 354.149 315.979 355.48 321.353 356.81" fill="#919191"/>
<path d="M320.83 361.401C317.935 359.366 314.596 358.14 311.283 356.914C303.275 353.967 294.953 350.993 286.449 351.775C290.206 353.314 293.31 356.106 296.858 358.088C298.684 359.106 300.614 359.94 302.544 360.723C305.414 361.923 308.309 363.097 311.387 363.592C314.439 364.088 317.726 363.827 320.413 362.236" fill="#919191"/>
<path d="M318.718 366.957C312.718 365.601 306.562 364.74 300.405 364.871C294.249 365.001 288.067 366.175 282.484 368.731C284.154 369.305 285.823 369.853 287.493 370.427C289.136 370.975 290.78 371.522 292.449 371.966C301.11 374.157 310.527 372.827 318.431 368.653" fill="#919191"/>
<path d="M316.762 372.749C310.501 373.557 304.345 375.357 298.606 378.018C294.536 379.922 290.571 382.374 288.041 386.078C291.98 384.931 295.971 384.018 300.014 383.287C301.501 383.026 303.014 382.792 304.475 382.348C309.249 380.94 313.162 377.601 316.918 374.366" fill="#919191"/>
<path d="M315.561 378.774C312.587 380.131 309.665 381.566 306.796 383.105C301.761 385.818 296.649 389.104 294.223 394.269C296.44 393.069 298.736 391.974 301.031 390.956C306.066 388.765 311.596 386.757 314.831 382.322" fill="#919191"/>
<path d="M314.44 383.287C312.353 386.496 309.849 389.443 307.032 392.026C304.684 394.165 302.023 396.148 300.641 398.991C306.693 398 312.04 393.409 313.918 387.565" fill="#919191"/>
<path d="M330.378 333.88C336.039 328.507 341.699 323.133 346.682 317.133C348.325 315.151 349.864 313.116 351.638 311.238C355.055 307.586 359.229 304.612 363.794 302.577C361.499 305.082 359.751 308.003 357.925 310.847C354.482 316.168 350.699 321.281 346.108 325.637C341.517 329.994 336.091 333.567 330.039 335.446" fill="#919191"/>
<path d="M326.387 344.576C332.308 340.193 339.064 336.933 344.751 332.211C346.134 331.063 347.464 329.811 348.873 328.663C352.994 325.324 357.794 322.846 362.907 321.438C357.794 325.377 354.768 331.507 349.864 335.707C346.916 338.211 343.395 339.932 339.847 341.498C337.786 342.411 335.699 343.271 333.482 343.689C331.187 344.132 328.813 344.054 326.465 343.924" fill="#919191"/>
<path d="M322.004 357.358C325.16 352.193 330.847 349.193 336.273 346.532C338.021 345.671 339.794 344.837 341.542 343.976C347.359 341.211 353.437 338.498 359.907 338.315C355.942 340.637 351.951 342.958 347.933 345.228C339.925 349.793 331.682 354.306 322.63 356.106" fill="#919191"/>
<path d="M319.343 365.862C321.378 363.671 323.96 362.079 326.569 360.619C334.969 355.949 344.177 352.532 353.724 351.358C342.847 357.88 331.708 364.479 319.291 367.088" fill="#919191"/>
<path d="M317.673 373.244C320.673 370.636 324.351 368.888 328.029 367.349C335.985 364.036 344.254 361.479 352.706 359.758C355.002 359.288 357.376 358.871 359.723 359.158C349.028 365.992 337.055 370.818 324.612 373.296C322.264 373.766 319.89 374.157 317.49 373.922" fill="#919191"/>
<path d="M317.882 375.774C322.03 375.305 326.178 375.096 330.351 375.174C333.116 375.227 335.908 375.409 338.568 376.114C341.255 376.818 343.838 378.018 345.82 379.948C344.49 380.366 343.107 380.47 341.725 380.6C340.081 380.731 338.438 380.861 336.794 380.992C335.203 381.122 333.612 381.253 331.995 381.226C326.804 381.122 321.743 379.374 317.1 377.027" fill="#919191"/>
<path d="M316.579 378.696C321.04 380.939 325.396 383.548 328.996 386.991C332.596 390.461 335.439 394.843 336.404 399.747C327.666 395.104 320.44 387.696 316.031 378.826" fill="#919191"/>
<path d="M316.108 381.905C318.717 386.444 321.221 391.035 323.621 395.678C325.917 400.165 328.16 405.017 327.612 410.025C326.778 409.425 326.099 408.59 325.499 407.756C319.969 400.4 316.395 391.582 315.195 382.452" fill="#919191"/>
<path d="M147.384 323.916C150.097 331.35 154.532 337.767 158.236 344.68C162.305 352.219 165.514 360.201 167.861 368.47C172.583 385.035 173.6 402.304 171.148 419.312C171.07 419.938 172.035 420.042 172.113 419.416C174.513 402.669 173.626 385.687 169.14 369.357C167.053 361.792 164.262 354.41 160.74 347.393C156.697 339.332 151.349 332.028 148.271 323.498C148.062 322.924 147.149 323.316 147.384 323.916Z" fill="#919191"/>
<path d="M148.168 324.594C146.237 322.22 144.359 319.82 142.507 317.368C141.281 315.751 140.055 314.107 139.09 312.334C137.107 308.655 136.273 304.482 135.49 300.386C135.281 299.317 135.073 298.143 135.516 297.125C138.594 301.273 141.698 305.447 144.02 310.09C146.342 314.733 147.881 319.846 147.62 325.011" fill="#919191"/>
<path d="M154.272 336.776C154.324 332.211 153.829 327.672 152.785 323.237C152.055 320.185 151.09 317.133 151.09 313.977C151.09 310.821 152.342 307.455 155.055 305.89C155.837 310.534 156.542 315.151 157.246 319.794C157.533 321.803 157.82 323.837 157.716 325.846C157.481 329.446 155.968 332.811 154.298 335.993" fill="#919191"/>
<path d="M154.402 336.672C150.176 332.759 145.037 329.994 139.977 327.281C138.568 326.524 137.133 325.768 135.594 325.35C133.455 324.803 131.212 324.959 129.02 325.22C127.22 325.429 125.447 325.716 123.673 326.055C123.308 326.133 122.864 326.316 122.916 326.681C122.942 326.837 123.073 326.942 123.177 327.046C124.899 328.611 126.725 330.098 128.655 331.428C129.62 332.107 130.612 332.759 131.681 333.281C138.255 336.567 146.211 334.767 153.411 336.28" fill="#919191"/>
<path d="M158.966 345.15C151.688 340.324 142.558 338.393 133.976 339.88C132.124 340.193 130.141 340.767 129.02 342.28C130.924 343.141 132.828 344.002 134.732 344.837C138.358 346.48 142.167 348.15 146.158 348.019C150.436 347.889 154.427 345.645 158.705 345.41" fill="#919191"/>
<path d="M165.488 358.584C160.114 356.784 154.74 354.958 149.341 353.158C147.071 352.401 144.776 351.619 142.402 351.254C138.202 350.575 133.793 351.175 129.933 352.949C129.646 353.08 129.307 353.315 129.359 353.628C129.385 353.81 129.541 353.914 129.672 354.019C133.324 356.81 137.785 358.401 142.324 359.027C146.863 359.653 151.506 359.393 156.045 358.688C158.784 358.271 161.601 357.723 164.236 358.532" fill="#919191"/>
<path d="M165.385 358.845C166.585 352.871 168.985 347.106 172.689 342.28C176.393 337.454 181.454 333.62 187.245 331.741C181.349 341.837 173.993 351.097 165.489 359.132" fill="#919191"/>
<path d="M159.592 347.08C160.453 338.289 162.905 329.42 168.331 322.429C169.583 320.838 171.018 319.298 172.896 318.516C173.313 322.35 172.479 326.211 171.566 329.994C170.887 332.811 170.183 335.706 168.592 338.132C166.401 341.498 162.827 343.663 159.357 345.697" fill="#919191"/>
<path d="M171.045 380.966C168.358 378.931 165.619 376.974 162.827 375.096C160.871 373.792 158.889 372.514 156.749 371.549C150.724 368.836 143.55 368.809 137.498 371.444C139.872 374.079 143.237 375.54 146.498 376.948C152.132 379.4 158.054 381.879 164.184 381.539C166.584 381.409 168.984 380.835 171.331 381.331" fill="#919191"/>
<path d="M171.646 382.113C172.376 375.827 173.993 369.592 177.15 364.114C180.306 358.636 185.106 353.967 191.001 351.723C191.21 353.862 190.506 355.975 189.775 358.01C188.106 362.601 186.123 367.166 182.941 370.87C179.654 374.679 175.298 377.392 171.02 380.026" fill="#919191"/>
<path d="M172.376 398.339C167.42 392.704 160.846 388.53 153.647 386.418C150.438 385.478 146.943 384.957 143.812 386.104C143.682 386.418 143.943 386.731 144.177 386.965C145.977 388.765 147.856 390.461 149.838 392.052C151.403 393.304 153.021 394.504 154.899 395.235C156.099 395.704 157.403 395.939 158.681 396.174C163.377 396.982 168.124 397.426 172.872 397.869" fill="#919191"/>
<path d="M172.531 399.043C175.557 394.895 178.14 390.435 181.453 386.522C184.766 382.609 189.018 379.218 194.026 378.148C191.783 384.07 187.687 389.287 182.496 392.887C181.061 393.878 179.548 394.765 178.035 395.626C176.235 396.669 174.409 397.713 172.61 398.782" fill="#919191"/>
<path d="M112.116 434.729C108.386 425.181 109.899 414.929 108.282 405.017C106.769 395.678 103.378 386 99.1778 377.574C90.8303 360.827 72.8832 350.523 58.3011 339.802C57.6229 339.306 56.7882 340.298 57.4664 340.793C72.7267 352.036 91.2998 362.705 99.2299 380.757C103.091 389.548 106.508 399.2 107.447 408.799C108.308 417.695 107.577 426.694 110.89 435.198C111.203 435.955 112.403 435.511 112.116 434.729Z" fill="#919191"/>
<path d="M58.2238 340.037C52.6936 333.672 49.172 325.481 42.4679 320.394C34.8769 314.629 24.7555 313.899 15.6515 311.108C10.0952 309.412 4.79981 306.855 0 303.569C2.42599 309.803 7.19971 315.099 13.1734 318.125C20.5557 321.881 29.5032 322.22 36.2855 326.942C40.7723 330.072 43.9026 334.872 48.3894 338.028C51.5197 340.219 55.2239 341.55 59.0324 341.837" fill="#919191"/>
<path d="M77.1348 354.671C71.0307 351.123 64.4571 348.436 57.6225 346.689C41.971 342.671 25.2238 343.637 9.9375 338.393C10.2244 340.324 11.8939 341.732 13.5113 342.802C15.7025 344.263 18.0502 345.515 20.3719 346.767C24.2326 348.828 28.1716 350.915 32.4236 352.01C34.2496 352.48 36.1278 352.741 37.9799 352.584C39.7798 352.401 41.5275 351.828 43.3275 351.515C46.1447 351.045 49.0142 351.332 51.8315 351.593C60.2572 352.401 68.683 353.236 77.1087 354.045" fill="#919191"/>
<path d="M102.518 386.6C99.9097 383.861 97.3272 381.096 94.7186 378.357C91.197 374.627 87.571 370.818 82.9799 368.549C80.58 367.375 77.9975 366.644 75.415 365.914C70.25 364.453 65.085 363.018 59.8417 362.001C56.6853 361.401 53.4768 360.932 50.2682 361.219C47.5292 361.453 44.8423 362.262 42.0772 362.158C39.0252 362.053 35.9209 360.853 33.0254 361.766C34.5123 362.94 36.2861 363.671 38.0339 364.401C43.6945 366.775 49.4334 369.175 55.5375 370.009C61.8242 370.896 68.737 370.218 73.9803 373.792C76.3019 375.357 78.1019 377.653 80.5018 379.113C82.8495 380.522 85.5885 381.018 88.2232 381.722C93.4404 383.105 98.4228 385.4 102.883 388.426" fill="#919191"/>
<path d="M108.177 410.364C105.151 405.643 101.89 401.026 97.7684 397.243C96.2033 395.808 94.5077 394.478 92.5252 393.748C89.9427 392.809 87.0993 392.939 84.3603 392.6C77.3692 391.713 71.1869 387.722 64.3524 385.974C61.9003 385.348 59.37 385.035 57.0483 384.044C54.2571 382.87 51.9355 380.809 49.666 378.774C50.9964 386.496 56.6831 393.33 64.0654 396.017C68.6044 397.661 73.639 397.817 77.9692 399.982C80.63 401.313 82.8995 403.347 85.6385 404.495C89.3688 406.06 93.5686 405.851 97.6119 406.243C101.655 406.634 106.012 407.912 108.151 411.33" fill="#919191"/>
<path d="M80.4224 356.158C77.4747 349.897 72.8836 344.576 68.6055 339.15C64.3274 333.724 60.2059 327.933 58.3798 321.255C57.519 318.072 57.1799 314.733 56.0843 311.629C54.7017 307.742 52.0931 304.012 52.6149 299.917C54.2061 303.803 57.8842 306.386 60.7015 309.49C62.1362 311.081 63.3622 312.855 64.3535 314.733C66.336 318.464 67.3795 322.664 69.6489 326.263C70.8489 328.168 72.3619 329.863 73.6401 331.689C78.7529 338.993 80.0572 348.228 81.205 357.071" fill="#919191"/>
<path d="M95.9429 373.035C94.1952 362.549 88.4563 352.975 87.0998 342.437C86.8389 340.428 86.7346 338.419 86.4998 336.411C85.8477 331.037 84.1521 325.768 84.126 320.342C84.0999 317.368 84.5955 314.42 85.0651 311.473C85.5346 308.629 85.9781 305.812 86.4476 302.969C86.0042 308.16 87.8824 313.247 89.7084 318.125C92.5518 325.768 95.369 333.567 95.7082 341.732C95.9429 347.289 95.0038 352.923 96.0473 358.375C96.3864 360.201 96.9603 362.001 97.1429 363.853C97.4298 366.853 96.7516 369.827 96.0473 372.749" fill="#919191"/>
<path d="M106.562 398.782C107.032 395.156 107.501 391.478 107.371 387.826C107.11 380 104.188 372.357 104.632 364.531C104.736 362.523 105.075 360.566 105.414 358.584C106.119 354.462 106.797 350.341 107.501 346.219C108.049 343.037 108.727 339.567 111.179 337.48C110.475 340.689 110.423 344.054 111.023 347.263C111.388 349.167 111.962 351.019 112.301 352.923C113.11 357.566 112.405 362.314 112.353 367.01C112.275 373.635 113.501 380.339 112.171 386.835C111.231 391.478 108.962 395.835 105.753 399.278" fill="#919191"/>
<path d="M108.986 423.12C110.212 417.46 109.873 411.512 111.491 405.93C112.038 404.026 112.821 402.173 113.447 400.295C114.308 397.713 114.934 395.026 115.377 392.339C115.795 389.835 116.082 387.304 116.786 384.852C117.464 382.426 118.508 380.105 119.655 377.861C121.508 374.131 123.62 370.479 126.281 367.297C126.229 369.749 125.16 372.018 124.403 374.34C122.76 379.218 122.316 384.383 121.194 389.417C119.525 396.956 116.343 404.052 112.951 410.99C111.569 413.834 110.134 416.729 109.769 419.86" fill="#919191"/>
<path d="M488.772 358.923C489.268 358.923 489.268 358.14 488.772 358.14C488.277 358.14 488.277 358.923 488.772 358.923Z" fill="#AEDCF6"/>
<path opacity="0.14" d="M184.923 446.78C75.5704 447.067 83.2136 428.677 96.5174 418.138L374.88 417.434C399.297 455.467 336.247 446.389 184.923 446.78Z" fill="black"/>
<path d="M164.89 137.482L165.538 123.927L173.91 122.558L165.661 121.778L164.645 106.437L163.611 121.587L155.432 122.558L163.646 123.736L164.89 137.482Z" fill="#FFE458"/>
<path d="M232.556 169.096L232.921 176.53L237.46 177.287L232.974 177.704L232.426 186.104L231.878 177.808L227.443 177.287L231.878 176.635L232.556 169.096Z" fill="#FFE458"/>
<path d="M38.4241 387.904L38.7632 395.313L43.3021 396.069L38.8154 396.487L38.2937 404.912L37.7198 396.617L33.2852 396.069L37.7458 395.417L38.4241 387.904Z" fill="#919191"/>
<path d="M358.263 236.632L358.889 249.571L366.793 250.875L358.994 251.632L358.054 266.266L357.063 251.814L349.342 250.875L357.089 249.753L358.263 236.632Z" fill="#FFE458"/>
<path d="M135.49 155.505L136.324 173.27L147.202 175.069L136.481 176.087L135.177 196.225L133.82 176.348L123.203 175.069L133.872 173.53L135.49 155.505Z" fill="#FFE458"/>
<path d="M40.6673 116.846L41.5021 134.61L52.3538 136.41L41.6586 137.427L40.3543 157.566L38.9978 137.688L28.3809 136.41L39.05 134.871L40.6673 116.846Z" fill="#FFE458"/>
<path d="M433.182 133.854L434.017 151.618L444.895 153.418L434.174 154.435L432.869 174.574L431.513 154.696L420.922 153.418L431.565 151.879L433.182 133.854Z" fill="#FFE458"/>
<path d="M29.4498 252.492L30.2846 270.283L41.1624 272.083L30.4411 273.1L29.1368 293.213L27.7803 273.361L17.1895 272.083L27.8325 270.544L29.4498 252.492Z" fill="#FFE458"/>
<path d="M448.052 262.118L448.887 279.909L459.739 281.709L449.043 282.726L447.739 302.838L446.383 282.987L435.766 281.709L446.435 280.169L448.052 262.118Z" fill="#FFE458"/>
<path d="M433.599 335.55L434.225 348.462L442.129 349.793L434.33 350.523L433.39 365.157L432.399 350.706L424.678 349.793L432.425 348.671L433.599 335.55Z" fill="#FFE458"/>
<path d="M328.239 159.887L328.656 168.626L334.004 169.513L328.734 170.009L328.108 179.895L327.43 170.139L322.213 169.513L327.456 168.757L328.239 159.887Z" fill="#FFE458"/>
<path d="M70.6026 102.063C70.3939 103.367 70.3157 104.723 70.707 105.975C71.0982 107.228 72.0113 108.401 73.2895 108.741C74.672 109.132 76.185 108.48 77.098 107.384C78.011 106.288 78.3501 104.802 78.3501 103.367C78.3501 101.932 78.011 100.523 77.698 99.1409C76.785 95.228 75.9241 91.2108 76.0546 87.2196C75.7155 87.95 75.3763 88.6804 75.0372 89.3847C73.159 93.5063 71.2548 97.6279 70.6026 102.063Z" fill="white" fill-opacity="0.5"/>
<path d="M443.746 15.5994C443.276 16.8254 442.676 18.0514 441.737 18.9645C440.772 19.8775 439.416 20.4253 438.137 20.1122C436.755 19.7731 435.738 18.4688 435.477 17.0602C435.216 15.6515 435.633 14.1907 436.338 12.9386C437.042 11.6865 438.007 10.617 438.972 9.57353C441.685 6.59974 444.398 3.54768 446.25 0C446.198 0.808663 446.12 1.59124 446.068 2.3999C445.702 6.86059 445.337 11.3995 443.746 15.5994Z" fill="white" fill-opacity="0.5"/>
<circle cx="226" cy="69" r="55" fill="#B6B6B6"/>
<circle cx="223" cy="67" r="55" fill="#2D6DA4"/>
<g clip-path="url(#clip0_910_1065)">
<path d="M213.79 87.7689C212.314 87.7695 210.898 87.1828 209.855 86.1382L197.96 74.2472C196.68 72.9669 196.68 70.8914 197.96 69.611C199.24 68.3311 201.316 68.3311 202.596 69.611L213.79 80.8048L243.404 51.1908C244.684 49.9109 246.76 49.9109 248.04 51.1908C249.32 52.4712 249.32 54.5467 248.04 55.827L217.724 86.1382C216.682 87.1828 215.266 87.7695 213.79 87.7689Z" fill="white"/>
</g>
<defs>
<clipPath id="clip0_910_1065">
<rect width="52" height="52" fill="white" transform="translate(197 43)"/>
</clipPath>
</defs>
</svg>
