<svg width="40" height="40" viewBox="0 0 40 40" fill="none" xmlns="http://www.w3.org/2000/svg">
<rect x="1" y="1" width="38" height="38" rx="7" fill="white" stroke="#2D6DA4" stroke-width="2"/>
<path d="M27.0368 11.2151L12.0231 16.2196C11.5383 16.3812 11.2302 16.8269 11.1933 17.2721C11.1565 17.7173 11.3837 18.2077 11.8353 18.4468L17.5342 21.4644L20.5518 27.1634C20.7909 27.6149 21.2813 27.8421 21.7265 27.8053C22.1717 27.7685 22.6174 27.4603 22.779 26.9756L27.7836 11.9618C27.9254 11.4326 27.5012 11.0906 27.0368 11.2151ZM26.2857 12.7086L21.6261 26.6692C21.614 26.7056 18.495 20.7482 18.495 20.7482C18.4396 20.6442 18.3545 20.559 18.2504 20.5037L12.3442 17.3725C12.3103 17.3546 26.2857 12.7086 26.2857 12.7086Z" fill="#2D6DA4"/>
<path d="M26.5914 11.5703L17.5186 20.6431L18.3557 21.4803L27.4285 12.4075L26.5914 11.5703Z" fill="#2D6DA4"/>
</svg>
