<svg width="16" height="14" viewBox="0 0 16 14" fill="none" xmlns="http://www.w3.org/2000/svg">
<path d="M13.7665 2.69231H11.0132V1.61538C11.0132 1.18696 10.8392 0.776079 10.5293 0.473135C10.2195 0.170192 9.79935 0 9.36122 0H6.05726C5.61913 0 5.19894 0.170192 4.88913 0.473135C4.57933 0.776079 4.40528 1.18696 4.40528 1.61538V2.69231H1.65198C1.21385 2.69231 0.79366 2.8625 0.483854 3.16544C0.174047 3.46839 0 3.87927 0 4.30769V12.3846C0 12.813 0.174047 13.2239 0.483854 13.5269C0.79366 13.8298 1.21385 14 1.65198 14H13.7665C14.2046 14 14.6248 13.8298 14.9346 13.5269C15.2444 13.2239 15.4185 12.813 15.4185 12.3846V4.30769C15.4185 3.87927 15.2444 3.46839 14.9346 3.16544C14.6248 2.8625 14.2046 2.69231 13.7665 2.69231ZM5.5066 1.61538C5.5066 1.47258 5.56462 1.33562 5.66789 1.23463C5.77115 1.13365 5.91122 1.07692 6.05726 1.07692H9.36122C9.50727 1.07692 9.64733 1.13365 9.7506 1.23463C9.85387 1.33562 9.91188 1.47258 9.91188 1.61538V2.69231H5.5066V1.61538ZM1.65198 3.76923H13.7665C13.9125 3.76923 14.0526 3.82596 14.1559 3.92694C14.2591 4.02792 14.3172 4.16488 14.3172 4.30769V6.55846L9.36122 7.53846V7.37154C9.36268 7.25255 9.33997 7.13446 9.29441 7.02411C9.24885 6.91376 9.18134 6.81336 9.0958 6.72871C9.01026 6.64407 8.90839 6.57687 8.7961 6.531C8.6838 6.48514 8.56332 6.46153 8.44162 6.46154H6.97686C6.73297 6.46154 6.49907 6.55628 6.32661 6.72492C6.15415 6.89356 6.05726 7.12228 6.05726 7.36077V7.53846L1.10132 6.56923V4.30769C1.10132 4.16488 1.15934 4.02792 1.2626 3.92694C1.36587 3.82596 1.50594 3.76923 1.65198 3.76923ZM8.2599 7.53846V8.61539H7.15858V7.53846H8.2599ZM13.7665 12.9231H1.65198C1.50594 12.9231 1.36587 12.8663 1.2626 12.7654C1.15934 12.6644 1.10132 12.5274 1.10132 12.3846V7.65692L5.94713 8.61539H6.05726V8.79308C6.05726 8.91117 6.08105 9.0281 6.12726 9.1372C6.17348 9.2463 6.24121 9.34543 6.32661 9.42893C6.412 9.51243 6.51338 9.57867 6.62495 9.62386C6.73652 9.66905 6.8561 9.69231 6.97686 9.69231H8.44162C8.56238 9.69231 8.68197 9.66905 8.79354 9.62386C8.90511 9.57867 9.00648 9.51243 9.09188 9.42893C9.17727 9.34543 9.24501 9.2463 9.29122 9.1372C9.33744 9.0281 9.36122 8.91117 9.36122 8.79308V8.61539H9.47135L14.3172 7.65692V12.3846C14.3172 12.5274 14.2591 12.6644 14.1559 12.7654C14.0526 12.8663 13.9125 12.9231 13.7665 12.9231Z" fill="black"/>
</svg>
