<svg width="16" height="16" viewBox="0 0 16 16" fill="none" xmlns="http://www.w3.org/2000/svg">
<g clip-path="url(#clip0_1814_6485)">
<path d="M6 8C6.79113 8 7.56449 7.76541 8.22228 7.32588C8.88008 6.88635 9.39277 6.26164 9.69552 5.53074C9.99827 4.79983 10.0775 3.99556 9.92314 3.21964C9.7688 2.44372 9.38784 1.73098 8.82843 1.17157C8.26902 0.612165 7.55629 0.231202 6.78036 0.0768607C6.00444 -0.0774802 5.20017 0.00173314 4.46927 0.304484C3.73836 0.607234 3.11365 1.11992 2.67412 1.77772C2.2346 2.43552 2 3.20888 2 4C2.00106 5.06054 2.42283 6.07734 3.17274 6.82726C3.92266 7.57718 4.93946 7.99894 6 8ZM6 1.33334C6.52742 1.33334 7.04299 1.48973 7.48152 1.78275C7.92005 2.07577 8.26185 2.49224 8.46368 2.97951C8.66551 3.46678 8.71832 4.00296 8.61543 4.52024C8.51254 5.03753 8.25856 5.51268 7.88562 5.88562C7.51268 6.25856 7.03752 6.51254 6.52024 6.61543C6.00296 6.71832 5.46678 6.66551 4.97951 6.46368C4.49224 6.26185 4.07577 5.92005 3.78275 5.48152C3.48973 5.04299 3.33333 4.52742 3.33333 4C3.33333 3.29276 3.61429 2.61448 4.11438 2.11438C4.61448 1.61429 5.29276 1.33334 6 1.33334ZM12 15.3333C12 15.5101 11.9298 15.6797 11.8047 15.8047C11.6797 15.9298 11.5101 16 11.3333 16C11.1565 16 10.987 15.9298 10.8619 15.8047C10.7369 15.6797 10.6667 15.5101 10.6667 15.3333C10.6667 14.0957 10.175 12.9087 9.29983 12.0335C8.42466 11.1583 7.23768 10.6667 6 10.6667C4.76232 10.6667 3.57534 11.1583 2.70017 12.0335C1.825 12.9087 1.33333 14.0957 1.33333 15.3333C1.33333 15.5101 1.2631 15.6797 1.13807 15.8047C1.01305 15.9298 0.843478 16 0.666667 16C0.489856 16 0.320286 15.9298 0.195262 15.8047C0.0702379 15.6797 0 15.5101 0 15.3333C0 13.742 0.632141 12.2159 1.75736 11.0907C2.88258 9.96548 4.4087 9.33334 6 9.33334C7.5913 9.33334 9.11742 9.96548 10.2426 11.0907C11.3679 12.2159 12 13.742 12 15.3333ZM15.8047 9.52867C15.8683 9.59017 15.9191 9.66373 15.9541 9.74507C15.989 9.8264 16.0074 9.91388 16.0082 10.0024C16.0089 10.0909 15.9921 10.1787 15.9586 10.2606C15.925 10.3426 15.8755 10.417 15.8129 10.4796C15.7503 10.5422 15.6759 10.5917 15.594 10.6252C15.512 10.6587 15.4243 10.6756 15.3357 10.6748C15.2472 10.6741 15.1597 10.6557 15.0784 10.6207C14.9971 10.5858 14.9235 10.535 14.862 10.4713L13.6667 9.276L12.4713 10.4713C12.3456 10.5928 12.1772 10.66 12.0024 10.6585C11.8276 10.6569 11.6604 10.5868 11.5368 10.4632C11.4132 10.3396 11.3431 10.1724 11.3416 9.9976C11.34 9.8228 11.4072 9.6544 11.5287 9.52867L12.724 8.33334L11.5287 7.138C11.4072 7.01227 11.34 6.84387 11.3416 6.66907C11.3431 6.49427 11.4132 6.32706 11.5368 6.20346C11.6604 6.07985 11.8276 6.00974 12.0024 6.00822C12.1772 6.0067 12.3456 6.0739 12.4713 6.19534L13.6667 7.39067L14.862 6.19534C14.9877 6.0739 15.1561 6.0067 15.3309 6.00822C15.5057 6.00974 15.6729 6.07985 15.7965 6.20346C15.9202 6.32706 15.9903 6.49427 15.9918 6.66907C15.9933 6.84387 15.9261 7.01227 15.8047 7.138L14.6093 8.33334L15.8047 9.52867Z" fill="#374957"/>
</g>
<defs>
<clipPath id="clip0_1814_6485">
<rect width="16" height="16" fill="white"/>
</clipPath>
</defs>
</svg>
