<svg width="18" height="24" viewBox="0 0 18 24" fill="none" xmlns="http://www.w3.org/2000/svg">
<path d="M13 0.3C13.7058 0.541978 14.348 0.939823 14.879 1.464L16.535 3.122C17.0598 3.65229 17.458 4.29426 17.7 5H13V0.3ZM11 12H7C6.73478 12 6.48043 12.1054 6.29289 12.2929C6.10536 12.4804 6 12.7348 6 13C6 13.2652 6.10536 13.5196 6.29289 13.7071C6.48043 13.8946 6.73478 14 7 14H11C11.2652 14 11.5196 13.8946 11.7071 13.7071C11.8946 13.5196 12 13.2652 12 13C12 12.7348 11.8946 12.4804 11.7071 12.2929C11.5196 12.1054 11.2652 12 11 12ZM13 7C12.4696 7 11.9609 6.78929 11.5858 6.41421C11.2107 6.03914 11 5.53043 11 5V0H5C3.67441 0.00158786 2.40356 0.528882 1.46622 1.46622C0.528882 2.40356 0.00158786 3.67441 0 5V19C0.00158786 20.3256 0.528882 21.5964 1.46622 22.5338C2.40356 23.4711 3.67441 23.9984 5 24H13C14.3256 23.9984 15.5964 23.4711 16.5338 22.5338C17.4711 21.5964 17.9984 20.3256 18 19V7H13ZM13 20H5C4.73478 20 4.48043 19.8946 4.29289 19.7071C4.10536 19.5196 4 19.2652 4 19C4 18.7348 4.10536 18.4804 4.29289 18.2929C4.48043 18.1054 4.73478 18 5 18H13C13.2652 18 13.5196 18.1054 13.7071 18.2929C13.8946 18.4804 14 18.7348 14 19C14 19.2652 13.8946 19.5196 13.7071 19.7071C13.5196 19.8946 13.2652 20 13 20ZM11 16H7C6.20435 16 5.44129 15.6839 4.87868 15.1213C4.31607 14.5587 4 13.7956 4 13C4 12.2044 4.31607 11.4413 4.87868 10.8787C5.44129 10.3161 6.20435 10 7 10H11C11.7956 10 12.5587 10.3161 13.1213 10.8787C13.6839 11.4413 14 12.2044 14 13C14 13.7956 13.6839 14.5587 13.1213 15.1213C12.5587 15.6839 11.7956 16 11 16Z" fill="white"/>
</svg>
