<svg width="12" height="12" viewBox="0 0 12 12" fill="none" xmlns="http://www.w3.org/2000/svg">
<g clip-path="url(#clip0_1062_2584)">
<path d="M11.0283 2.61493L7.34127 0.858427C6.52968 0.373646 5.51952 0.365045 4.69977 0.835927L0.971287 2.61493C0.957295 2.62194 0.942787 2.62944 0.929287 2.63743C0.0444745 3.14335 -0.262697 4.27076 0.243224 5.15558C0.414717 5.45553 0.666974 5.70129 0.971287 5.86494L1.99979 6.35494V8.80493C2.0004 9.90047 2.71326 10.8683 3.75929 11.1939C4.48724 11.4045 5.24204 11.5076 5.9998 11.4999C6.75744 11.5084 7.51225 11.4062 8.24031 11.1965C9.28635 10.8709 9.9992 9.90298 9.99981 8.80744V6.35394L10.9998 5.87593V9.99992C10.9998 10.2761 11.2237 10.4999 11.4998 10.4999C11.776 10.4999 11.9998 10.2761 11.9998 9.99992V3.99992C12.0031 3.41279 11.5395 2.8704 11.0283 2.61493ZM8.99978 8.80744C9.00004 9.46273 8.57488 10.0424 7.94978 10.2389C7.31589 10.4201 6.65901 10.508 5.99978 10.4999C5.34055 10.508 4.68367 10.4201 4.04978 10.2389C3.42468 10.0423 2.99952 9.46273 2.99978 8.80744V6.83145L4.65829 7.62146C5.06751 7.86446 5.53487 7.99215 6.01079 7.99095C6.46379 7.99416 6.90918 7.87423 7.2993 7.64396L8.99978 6.83143V8.80744ZM10.5998 4.96243L6.82879 6.76243C6.30299 7.06859 5.65126 7.05992 5.13379 6.73993L1.44428 4.98493C1.03302 4.76316 0.879412 4.25 1.10118 3.83876C1.17618 3.69969 1.28863 3.5844 1.42579 3.50593L5.17328 1.71594C5.69924 1.41045 6.35062 1.4191 6.86828 1.73844L10.5553 3.49494C10.8264 3.6455 10.9961 3.92982 10.9998 4.23994C11.0003 4.53371 10.849 4.8069 10.5998 4.96243Z" fill="#A1AEBE"/>
</g>
<defs>
<clipPath id="clip0_1062_2584">
<rect width="12" height="12" fill="white"/>
</clipPath>
</defs>
</svg>
