<svg width="30" height="30" viewBox="0 0 30 30" fill="none" xmlns="http://www.w3.org/2000/svg">
<path d="M5.62411 11.2166C5.62379 11.1388 5.63888 11.0618 5.6685 10.9898C5.69812 10.9179 5.74168 10.8526 5.79668 10.7976C5.85169 10.7426 5.91703 10.699 5.98896 10.6694C6.06088 10.6397 6.13796 10.6247 6.21574 10.625L10.0322 10.625C10.11 10.6253 10.1871 10.6102 10.259 10.5806C10.3309 10.551 10.3963 10.5074 10.4513 10.4524C10.5063 10.3974 10.5498 10.3321 10.5794 10.2601C10.6091 10.1882 10.6241 10.1111 10.6238 10.0333L10.6238 6.21689C10.6235 6.13911 10.6386 6.06203 10.6682 5.99011C10.6978 5.91818 10.7414 5.85283 10.7964 5.79783C10.8514 5.74283 10.9168 5.69926 10.9887 5.66964C11.0606 5.64002 11.1377 5.62494 11.2155 5.62526C11.3711 5.62572 11.5203 5.68776 11.6304 5.79783C11.7404 5.90791 11.8025 6.05706 11.8029 6.21272L11.8029 10.0375C11.8026 10.5059 11.6164 10.9551 11.2852 11.2863C10.954 11.6176 10.5048 11.8038 10.0364 11.8041L6.21158 11.8041C6.05591 11.8036 5.90676 11.7416 5.79669 11.6315C5.68661 11.5214 5.62457 11.3723 5.62411 11.2166Z" fill="#374957"/>
<g clip-path="url(#clip0_2012_6533)">
<path d="M24.373 18.7814C24.3733 18.8592 24.3582 18.9363 24.3286 19.0082C24.299 19.0801 24.2554 19.1455 24.2004 19.2005C24.1454 19.2555 24.08 19.2991 24.0081 19.3287C23.9362 19.3583 23.8591 19.3734 23.7813 19.3731L19.9649 19.3731C19.8871 19.3728 19.81 19.3878 19.7381 19.4175C19.6662 19.4471 19.6008 19.4906 19.5458 19.5456C19.4908 19.6006 19.4472 19.666 19.4176 19.7379C19.388 19.8098 19.3729 19.8869 19.3732 19.9647L19.3732 23.7812C19.3736 23.8589 19.3585 23.936 19.3289 24.0079C19.2992 24.0799 19.2557 24.1452 19.2007 24.2002C19.1457 24.2552 19.0803 24.2988 19.0084 24.3284C18.9365 24.358 18.8594 24.3731 18.7816 24.3728C18.6259 24.3723 18.4768 24.3103 18.3667 24.2002C18.2566 24.0901 18.1946 23.941 18.1941 23.7853L18.1941 19.9605C18.1944 19.4921 18.3806 19.0429 18.7119 18.7117C19.0431 18.3805 19.4923 18.1943 19.9607 18.194L23.7855 18.194C23.9412 18.1944 24.0903 18.2565 24.2004 18.3665C24.3105 18.4766 24.3725 18.6258 24.373 18.7814Z" fill="#374957"/>
</g>
<defs>
<clipPath id="clip0_2012_6533">
<rect width="14.1413" height="14.1413" fill="white" transform="matrix(0.707107 -0.707107 -0.707107 -0.707107 19.998 29.998)"/>
</clipPath>
</defs>
</svg>
