<svg width="25" height="24" viewBox="0 0 25 24" fill="none" xmlns="http://www.w3.org/2000/svg">
<g clip-path="url(#clip0_1541_3805)">
<path d="M20.4491 5.53651L16.9651 2.05051C16.3164 1.39865 15.545 0.881842 14.6953 0.529971C13.8457 0.178099 12.9347 -0.0018556 12.0151 0.00051133H7.50012C6.17453 0.00209919 4.90368 0.529393 3.96634 1.46673C3.029 2.40407 2.50171 3.67492 2.50012 5.00051V19.0005C2.50171 20.3261 3.029 21.597 3.96634 22.5343C4.90368 23.4716 6.17453 23.9989 7.50012 24.0005H17.5001C18.8257 23.9989 20.0966 23.4716 21.0339 22.5343C21.9712 21.597 22.4985 20.3261 22.5001 19.0005V10.4855C22.5026 9.56593 22.3226 8.655 21.9705 7.80549C21.6185 6.95597 21.1014 6.18475 20.4491 5.53651ZM19.0351 6.95051C19.3405 7.26466 19.6031 7.6177 19.8161 8.00051H15.5001C15.2349 8.00051 14.9806 7.89515 14.793 7.70762C14.6055 7.52008 14.5001 7.26573 14.5001 7.00051V2.68451C14.8831 2.89744 15.2364 3.15967 15.5511 3.46451L19.0351 6.95051ZM20.5001 19.0005C20.5001 19.7962 20.1841 20.5592 19.6214 21.1218C19.0588 21.6844 18.2958 22.0005 17.5001 22.0005H7.50012C6.70447 22.0005 5.94141 21.6844 5.3788 21.1218C4.81619 20.5592 4.50012 19.7962 4.50012 19.0005V5.00051C4.50012 4.20486 4.81619 3.4418 5.3788 2.87919C5.94141 2.31658 6.70447 2.00051 7.50012 2.00051H12.0151C12.1791 2.00051 12.3381 2.03251 12.5001 2.04751V7.00051C12.5001 7.79616 12.8162 8.55922 13.3788 9.12183C13.9414 9.68444 14.7045 10.0005 15.5001 10.0005H20.4531C20.4681 10.1625 20.5001 10.3205 20.5001 10.4855V19.0005Z" fill="#9197B3"/>
</g>
<defs>
<clipPath id="clip0_1541_3805">
<rect width="24" height="24" fill="white" transform="translate(0.5)"/>
</clipPath>
</defs>
</svg>
