<svg width="18" height="21" viewBox="0 0 18 21" fill="none" xmlns="http://www.w3.org/2000/svg">
<path d="M16.1484 5.11335L13.1334 2.20835C12.572 1.66513 11.9044 1.23446 11.1692 0.941235C10.4339 0.648009 9.64556 0.498047 8.84974 0.500019H4.94252C3.79537 0.501342 2.6956 0.940754 1.88444 1.72187C1.07329 2.50298 0.616975 3.56202 0.615601 4.66669V16.3334C0.616975 17.438 1.07329 18.4971 1.88444 19.2782C2.6956 20.0593 3.79537 20.4987 4.94252 20.5H13.5964C14.7435 20.4987 15.8433 20.0593 16.6544 19.2782C17.4656 18.4971 17.9219 17.438 17.9233 16.3334V9.23752C17.9254 8.4712 17.7697 7.7121 17.465 7.00416C17.1603 6.29623 16.7128 5.65355 16.1484 5.11335ZM14.9247 6.29169C15.189 6.55347 15.4162 6.84768 15.6006 7.16669H11.8656C11.6361 7.16669 11.416 7.07889 11.2537 6.92261C11.0914 6.76633 11.0002 6.55437 11.0002 6.33335V2.73669C11.3316 2.91412 11.6374 3.13265 11.9097 3.38669L14.9247 6.29169ZM16.1925 16.3334C16.1925 16.9964 15.919 17.6323 15.4321 18.1011C14.9453 18.57 14.2849 18.8334 13.5964 18.8334H4.94252C4.25398 18.8334 3.59364 18.57 3.10677 18.1011C2.61989 17.6323 2.34637 16.9964 2.34637 16.3334V4.66669C2.34637 4.00364 2.61989 3.36776 3.10677 2.89892C3.59364 2.43008 4.25398 2.16669 4.94252 2.16669H8.84974C8.99166 2.16669 9.12925 2.19335 9.26945 2.20585V6.33335C9.26945 6.99639 9.54297 7.63228 10.0298 8.10112C10.5167 8.56996 11.1771 8.83335 11.8656 8.83335H16.1518C16.1648 8.96835 16.1925 9.10002 16.1925 9.23752V16.3334Z" fill="#FFE458"/>
</svg>
