<svg width="25" height="25" viewBox="0 0 25 25" fill="none" xmlns="http://www.w3.org/2000/svg">
<rect width="25" height="25" rx="3" fill="#1B1F23"/>
<path fill-rule="evenodd" clip-rule="evenodd" d="M12.4873 5.73389C8.60509 5.73389 5.46069 8.86578 5.46069 12.7325C5.46069 15.8294 7.47206 18.4452 10.2651 19.3725C10.6165 19.4337 10.7482 19.2238 10.7482 19.0401C10.7482 18.8738 10.7394 18.3227 10.7394 17.7366C8.97399 18.0603 8.51726 17.3079 8.37673 16.9142C8.29768 16.713 7.95513 16.0919 7.6565 15.9257C7.41057 15.7944 7.05924 15.4708 7.64772 15.462C8.20106 15.4533 8.59631 15.9694 8.72806 16.1794C9.36045 17.2379 10.3705 16.9405 10.7746 16.7568C10.836 16.3018 11.0205 15.9957 11.2225 15.8207C9.65908 15.6457 8.0254 15.0421 8.0254 12.3651C8.0254 11.604 8.29768 10.9741 8.74563 10.4842C8.67536 10.3093 8.42943 9.59189 8.81589 8.62958C8.81589 8.62958 9.40437 8.44586 10.7482 9.34694C11.3103 9.18947 11.9076 9.11073 12.5049 9.11073C13.1021 9.11073 13.6994 9.18947 14.2615 9.34694C15.6053 8.43711 16.1938 8.62958 16.1938 8.62958C16.5803 9.59189 16.3343 10.3093 16.2641 10.4842C16.712 10.9741 16.9843 11.5953 16.9843 12.3651C16.9843 15.0508 15.3418 15.6457 13.7784 15.8207C14.0331 16.0394 14.2527 16.4593 14.2527 17.1154C14.2527 18.0515 14.2439 18.8039 14.2439 19.0401C14.2439 19.2238 14.3757 19.4425 14.727 19.3725C17.5025 18.4452 19.5139 15.8207 19.5139 12.7325C19.5139 8.86578 16.3695 5.73389 12.4873 5.73389Z" fill="white"/>
</svg>
