<svg width="21" height="20" viewBox="0 0 21 20" fill="none" xmlns="http://www.w3.org/2000/svg">
<path d="M10.6992 8.18176V12.0545H16.081C15.8447 13.2999 15.1355 14.3545 14.0719 15.0636L17.3173 17.5818C19.2082 15.8364 20.2991 13.2728 20.2991 10.2273C20.2991 9.51824 20.2355 8.83636 20.1173 8.18187L10.6992 8.18176Z" fill="#4285F4"/>
<path d="M5.0944 11.9033L4.36243 12.4636L1.77148 14.4818C3.41693 17.7454 6.7894 20 10.6985 20C13.3984 20 15.662 19.109 17.3166 17.5818L14.0711 15.0636C13.1802 15.6636 12.0439 16.0273 10.6985 16.0273C8.09848 16.0273 5.88945 14.2728 5.09849 11.9091L5.0944 11.9033Z" fill="#34A853"/>
<path d="M1.77187 5.51819C1.09009 6.86359 0.699219 8.38179 0.699219 9.99994C0.699219 11.6181 1.09009 13.1363 1.77187 14.4817C1.77187 14.4907 5.09919 11.8999 5.09919 11.8999C4.89919 11.2999 4.78098 10.6636 4.78098 9.99983C4.78098 9.33611 4.89919 8.69979 5.09919 8.09979L1.77187 5.51819Z" fill="#FBBC05"/>
<path d="M10.6987 3.98181C12.1714 3.98181 13.4805 4.49089 14.5259 5.47272L17.3895 2.60912C15.6532 0.990969 13.3987 0 10.6987 0C6.78961 0 3.41693 2.24545 1.77148 5.51818L5.09871 8.1C5.88957 5.73634 8.09868 3.98181 10.6987 3.98181Z" fill="#EA4335"/>
</svg>
