<svg width="754" height="982" viewBox="0 0 754 982" fill="none" xmlns="http://www.w3.org/2000/svg">
<rect width="754" height="982" fill="url(#paint0_linear_2742_7581)"/>
<path d="M40.7387 496.367C21.5047 511.263 5.5654 511.768 0 510.159V786H754C741.088 776.346 703.511 736.486 656.494 654.286C609.478 572.085 563.441 507.4 546.299 485.333C499.55 430.854 463.709 454.99 448.126 474.989C415.001 515.262 353.291 556.132 326.577 571.533C249.107 594.152 172.75 528.089 144.255 492.229C114.87 452.508 63.0003 478.437 40.7387 496.367Z" fill="url(#paint1_linear_2742_7581)" fill-opacity="0.3"/>
<path d="M48.9075 509.429C19.4796 493.101 9.47414 500.359 3 505.196V836.535L754 845V720.444C661.243 555.498 531.721 585.609 478.555 621.283C427.233 644.017 371.241 588.029 349.661 557.193C297.397 466.738 238.423 491.287 215.469 514.868C175.918 561.788 135.426 561.022 120.123 554.774C114.002 556.225 70.0956 525.149 48.9075 509.429Z" fill="url(#paint2_linear_2742_7581)" fill-opacity="0.6"/>
<path d="M569 227.584L457 165V384.258L569 449V227.584Z" fill="#F3F3F3"/>
<path d="M543 256.584L432 194V413.258L543 478V256.584Z" fill="url(#paint3_linear_2742_7581)"/>
<circle cx="476" cy="458" r="7" fill="white"/>
<path d="M467.519 425.97L476.413 453.885L495.092 426.923L467.519 425.97Z" fill="#FFE559"/>
<path d="M174.716 736L183.68 709.72H192.032L201.248 736H195.992L188.18 713.212L190.016 714.004H185.516L187.388 713.212L179.828 736H174.716ZM180.98 729.016L182.6 724.696H193.256L194.84 729.016H180.98ZM205.224 736V709.72H210.336V736H205.224Z" fill="#FFE458"/>
<path d="M215.49 728.08V723.688H230.07V728.08H215.49ZM239.532 727.936V723.508H244.644C245.676 723.508 246.54 723.304 247.236 722.896C247.956 722.488 248.496 721.924 248.856 721.204C249.24 720.484 249.432 719.656 249.432 718.72C249.432 717.784 249.24 716.956 248.856 716.236C248.496 715.516 247.956 714.964 247.236 714.58C246.54 714.172 245.676 713.968 244.644 713.968H239.532V709.54H244.212C246.42 709.54 248.292 709.9 249.828 710.62C251.388 711.34 252.576 712.372 253.392 713.716C254.208 715.036 254.616 716.608 254.616 718.432V719.008C254.616 720.832 254.208 722.416 253.392 723.76C252.576 725.08 251.388 726.112 249.828 726.856C248.292 727.576 246.42 727.936 244.212 727.936H239.532ZM235.14 736V709.54H240.252V736H235.14ZM267.554 736.684C265.826 736.684 264.302 736.408 262.982 735.856C261.662 735.304 260.546 734.56 259.634 733.624C258.722 732.664 258.026 731.584 257.546 730.384C257.09 729.184 256.862 727.936 256.862 726.64V725.884C256.862 724.54 257.102 723.268 257.582 722.068C258.086 720.844 258.794 719.764 259.706 718.828C260.642 717.868 261.77 717.124 263.09 716.596C264.41 716.044 265.898 715.768 267.554 715.768C269.21 715.768 270.698 716.044 272.018 716.596C273.338 717.124 274.454 717.868 275.366 718.828C276.302 719.764 277.01 720.844 277.49 722.068C277.97 723.268 278.21 724.54 278.21 725.884V726.64C278.21 727.936 277.97 729.184 277.49 730.384C277.034 731.584 276.35 732.664 275.438 733.624C274.526 734.56 273.41 735.304 272.09 735.856C270.77 736.408 269.258 736.684 267.554 736.684ZM267.554 732.4C268.778 732.4 269.81 732.136 270.65 731.608C271.49 731.056 272.126 730.324 272.558 729.412C272.99 728.476 273.206 727.42 273.206 726.244C273.206 725.044 272.978 723.988 272.522 723.076C272.09 722.14 271.442 721.408 270.578 720.88C269.738 720.328 268.73 720.052 267.554 720.052C266.378 720.052 265.358 720.328 264.494 720.88C263.654 721.408 263.006 722.14 262.55 723.076C262.094 723.988 261.866 725.044 261.866 726.244C261.866 727.42 262.082 728.476 262.514 729.412C262.97 730.324 263.618 731.056 264.458 731.608C265.298 732.136 266.33 732.4 267.554 732.4ZM288.866 736L292.574 717.1H298.334L302.618 736H298.658L294.302 717.208H296.39L292.538 736H288.866ZM287.39 736L287.354 731.896H291.35V736H287.39ZM285.374 736L280.046 716.452H284.906L289.982 736H285.374ZM299.918 736V731.896H303.914L303.878 736H299.918ZM301.502 736L306.002 716.452H310.538L305.822 736H301.502ZM322.805 736.684C321.125 736.684 319.649 736.396 318.377 735.82C317.129 735.244 316.085 734.476 315.245 733.516C314.429 732.532 313.805 731.44 313.373 730.24C312.965 729.04 312.761 727.816 312.761 726.568V725.884C312.761 724.588 312.965 723.34 313.373 722.14C313.805 720.916 314.429 719.836 315.245 718.9C316.085 717.94 317.117 717.184 318.341 716.632C319.565 716.056 320.981 715.768 322.589 715.768C324.701 715.768 326.465 716.236 327.881 717.172C329.321 718.084 330.401 719.296 331.121 720.808C331.841 722.296 332.201 723.904 332.201 725.632V727.432H314.885V724.372H329.069L327.521 725.884C327.521 724.636 327.341 723.568 326.981 722.68C326.621 721.792 326.069 721.108 325.325 720.628C324.605 720.148 323.693 719.908 322.589 719.908C321.485 719.908 320.549 720.16 319.781 720.664C319.013 721.168 318.425 721.9 318.017 722.86C317.633 723.796 317.441 724.924 317.441 726.244C317.441 727.468 317.633 728.56 318.017 729.52C318.401 730.456 318.989 731.2 319.781 731.752C320.573 732.28 321.581 732.544 322.805 732.544C324.029 732.544 325.025 732.304 325.793 731.824C326.561 731.32 327.053 730.708 327.269 729.988H331.877C331.589 731.332 331.037 732.508 330.221 733.516C329.405 734.524 328.361 735.304 327.089 735.856C325.841 736.408 324.413 736.684 322.805 736.684ZM336.381 736V716.452H340.341V724.732H340.233C340.233 721.924 340.833 719.8 342.033 718.36C343.233 716.92 344.997 716.2 347.325 716.2H348.045V720.556H346.677C344.997 720.556 343.689 721.012 342.753 721.924C341.841 722.812 341.385 724.108 341.385 725.812V736H336.381ZM360 736.684C358.32 736.684 356.844 736.396 355.572 735.82C354.324 735.244 353.28 734.476 352.44 733.516C351.624 732.532 351 731.44 350.568 730.24C350.16 729.04 349.956 727.816 349.956 726.568V725.884C349.956 724.588 350.16 723.34 350.568 722.14C351 720.916 351.624 719.836 352.44 718.9C353.28 717.94 354.312 717.184 355.536 716.632C356.76 716.056 358.176 715.768 359.784 715.768C361.896 715.768 363.66 716.236 365.076 717.172C366.516 718.084 367.596 719.296 368.316 720.808C369.036 722.296 369.396 723.904 369.396 725.632V727.432H352.08V724.372H366.264L364.716 725.884C364.716 724.636 364.536 723.568 364.176 722.68C363.816 721.792 363.264 721.108 362.52 720.628C361.8 720.148 360.888 719.908 359.784 719.908C358.68 719.908 357.744 720.16 356.976 720.664C356.208 721.168 355.62 721.9 355.212 722.86C354.828 723.796 354.636 724.924 354.636 726.244C354.636 727.468 354.828 728.56 355.212 729.52C355.596 730.456 356.184 731.2 356.976 731.752C357.768 732.28 358.776 732.544 360 732.544C361.224 732.544 362.22 732.304 362.988 731.824C363.756 731.32 364.248 730.708 364.464 729.988H369.072C368.784 731.332 368.232 732.508 367.416 733.516C366.6 734.524 365.556 735.304 364.284 735.856C363.036 736.408 361.608 736.684 360 736.684ZM381.676 736.648C380.308 736.648 379.048 736.396 377.896 735.892C376.744 735.388 375.748 734.68 374.908 733.768C374.068 732.856 373.42 731.8 372.964 730.6C372.508 729.376 372.28 728.056 372.28 726.64V725.884C372.28 724.492 372.496 723.184 372.928 721.96C373.384 720.736 374.008 719.668 374.8 718.756C375.616 717.844 376.588 717.136 377.716 716.632C378.868 716.104 380.14 715.84 381.532 715.84C383.068 715.84 384.412 716.176 385.564 716.848C386.74 717.496 387.676 718.48 388.372 719.8C389.068 721.12 389.452 722.776 389.524 724.768L388.048 723.04V709.72H393.052V736H389.092V727.684H389.956C389.884 729.676 389.476 731.344 388.732 732.688C387.988 734.008 387.004 735.004 385.78 735.676C384.58 736.324 383.212 736.648 381.676 736.648ZM382.792 732.436C383.776 732.436 384.676 732.22 385.492 731.788C386.308 731.332 386.956 730.684 387.436 729.844C387.94 728.98 388.192 727.972 388.192 726.82V725.38C388.192 724.228 387.94 723.268 387.436 722.5C386.932 721.708 386.272 721.108 385.456 720.7C384.64 720.268 383.752 720.052 382.792 720.052C381.712 720.052 380.752 720.316 379.912 720.844C379.096 721.348 378.448 722.068 377.968 723.004C377.512 723.94 377.284 725.032 377.284 726.28C377.284 727.528 377.524 728.62 378.004 729.556C378.484 730.468 379.132 731.176 379.948 731.68C380.788 732.184 381.736 732.436 382.792 732.436ZM406.914 736V709.54H412.026V736H406.914ZM422.97 736L414.906 724.552H420.63L428.946 736H422.97ZM410.514 727.216V723.076H417.21C418.146 723.076 418.95 722.884 419.622 722.5C420.318 722.116 420.858 721.576 421.242 720.88C421.626 720.184 421.818 719.392 421.818 718.504C421.818 717.592 421.626 716.788 421.242 716.092C420.858 715.396 420.318 714.856 419.622 714.472C418.95 714.088 418.146 713.896 417.21 713.896H410.514V709.54H416.67C418.782 709.54 420.606 709.852 422.142 710.476C423.702 711.1 424.902 712.048 425.742 713.32C426.582 714.592 427.002 716.188 427.002 718.108V718.684C427.002 720.628 426.57 722.224 425.706 723.472C424.866 724.72 423.678 725.656 422.142 726.28C420.606 726.904 418.782 727.216 416.67 727.216H410.514ZM440.824 736.684C439.144 736.684 437.668 736.396 436.396 735.82C435.148 735.244 434.104 734.476 433.264 733.516C432.448 732.532 431.824 731.44 431.392 730.24C430.984 729.04 430.78 727.816 430.78 726.568V725.884C430.78 724.588 430.984 723.34 431.392 722.14C431.824 720.916 432.448 719.836 433.264 718.9C434.104 717.94 435.136 717.184 436.36 716.632C437.584 716.056 439 715.768 440.608 715.768C442.72 715.768 444.484 716.236 445.9 717.172C447.34 718.084 448.42 719.296 449.14 720.808C449.86 722.296 450.22 723.904 450.22 725.632V727.432H432.904V724.372H447.088L445.54 725.884C445.54 724.636 445.36 723.568 445 722.68C444.64 721.792 444.088 721.108 443.344 720.628C442.624 720.148 441.712 719.908 440.608 719.908C439.504 719.908 438.568 720.16 437.8 720.664C437.032 721.168 436.444 721.9 436.036 722.86C435.652 723.796 435.46 724.924 435.46 726.244C435.46 727.468 435.652 728.56 436.036 729.52C436.42 730.456 437.008 731.2 437.8 731.752C438.592 732.28 439.6 732.544 440.824 732.544C442.048 732.544 443.044 732.304 443.812 731.824C444.58 731.32 445.072 730.708 445.288 729.988H449.896C449.608 731.332 449.056 732.508 448.24 733.516C447.424 734.524 446.38 735.304 445.108 735.856C443.86 736.408 442.432 736.684 440.824 736.684ZM461.493 736.612C458.805 736.612 456.693 736.048 455.157 734.92C453.645 733.768 452.853 732.184 452.781 730.168H457.281C457.353 730.84 457.725 731.452 458.397 732.004C459.069 732.556 460.125 732.832 461.565 732.832C462.765 732.832 463.713 732.616 464.409 732.184C465.129 731.752 465.489 731.164 465.489 730.42C465.489 729.772 465.213 729.256 464.661 728.872C464.133 728.488 463.221 728.236 461.925 728.116L460.197 727.936C458.013 727.696 456.333 727.072 455.157 726.064C453.981 725.056 453.393 723.712 453.393 722.032C453.393 720.688 453.729 719.56 454.401 718.648C455.073 717.736 455.997 717.052 457.173 716.596C458.373 716.116 459.741 715.876 461.277 715.876C463.677 715.876 465.621 716.404 467.109 717.46C468.597 718.516 469.377 720.064 469.449 722.104H464.949C464.901 721.432 464.565 720.856 463.941 720.376C463.317 719.896 462.417 719.656 461.241 719.656C460.185 719.656 459.369 719.86 458.793 720.268C458.217 720.676 457.929 721.204 457.929 721.852C457.929 722.476 458.157 722.956 458.613 723.292C459.093 723.628 459.861 723.856 460.917 723.976L462.645 724.156C464.949 724.396 466.749 725.032 468.045 726.064C469.365 727.096 470.025 728.488 470.025 730.24C470.025 731.536 469.665 732.664 468.945 733.624C468.249 734.56 467.265 735.292 465.993 735.82C464.721 736.348 463.221 736.612 461.493 736.612ZM480.818 736.612C478.562 736.612 476.81 735.868 475.562 734.38C474.338 732.892 473.726 730.684 473.726 727.756V716.416H478.73V728.188C478.73 729.388 479.066 730.348 479.738 731.068C480.41 731.764 481.322 732.112 482.474 732.112C483.626 732.112 484.562 731.74 485.282 730.996C486.026 730.252 486.398 729.244 486.398 727.972V716.416H491.402V736H487.442V727.684H487.838C487.838 729.652 487.586 731.296 487.082 732.616C486.578 733.936 485.822 734.932 484.814 735.604C483.806 736.276 482.546 736.612 481.034 736.612H480.818ZM497.151 736V716.452H501.111V724.84H500.751C500.751 722.872 501.003 721.228 501.507 719.908C502.011 718.564 502.755 717.556 503.739 716.884C504.747 716.188 505.995 715.84 507.483 715.84H507.699C509.211 715.84 510.459 716.188 511.443 716.884C512.451 717.556 513.195 718.564 513.675 719.908C514.179 721.228 514.431 722.872 514.431 724.84H513.171C513.171 722.872 513.423 721.228 513.927 719.908C514.455 718.564 515.211 717.556 516.195 716.884C517.203 716.188 518.451 715.84 519.939 715.84H520.155C521.667 715.84 522.927 716.188 523.935 716.884C524.943 717.556 525.699 718.564 526.203 719.908C526.731 721.228 526.995 722.872 526.995 724.84V736H521.991V724.372C521.991 723.148 521.679 722.176 521.055 721.456C520.431 720.712 519.543 720.34 518.391 720.34C517.239 720.34 516.315 720.724 515.619 721.492C514.923 722.236 514.575 723.244 514.575 724.516V736H509.571V724.372C509.571 723.148 509.259 722.176 508.635 721.456C508.011 720.712 507.123 720.34 505.971 720.34C504.819 720.34 503.895 720.724 503.199 721.492C502.503 722.236 502.155 723.244 502.155 724.516V736H497.151ZM541.09 736.684C539.41 736.684 537.934 736.396 536.662 735.82C535.414 735.244 534.37 734.476 533.53 733.516C532.714 732.532 532.09 731.44 531.658 730.24C531.25 729.04 531.046 727.816 531.046 726.568V725.884C531.046 724.588 531.25 723.34 531.658 722.14C532.09 720.916 532.714 719.836 533.53 718.9C534.37 717.94 535.402 717.184 536.626 716.632C537.85 716.056 539.266 715.768 540.874 715.768C542.986 715.768 544.75 716.236 546.166 717.172C547.606 718.084 548.686 719.296 549.406 720.808C550.126 722.296 550.486 723.904 550.486 725.632V727.432H533.17V724.372H547.354L545.806 725.884C545.806 724.636 545.626 723.568 545.266 722.68C544.906 721.792 544.354 721.108 543.61 720.628C542.89 720.148 541.978 719.908 540.874 719.908C539.77 719.908 538.834 720.16 538.066 720.664C537.298 721.168 536.71 721.9 536.302 722.86C535.918 723.796 535.726 724.924 535.726 726.244C535.726 727.468 535.918 728.56 536.302 729.52C536.686 730.456 537.274 731.2 538.066 731.752C538.858 732.28 539.866 732.544 541.09 732.544C542.314 732.544 543.31 732.304 544.078 731.824C544.846 731.32 545.338 730.708 545.554 729.988H550.162C549.874 731.332 549.322 732.508 548.506 733.516C547.69 734.524 546.646 735.304 545.374 735.856C544.126 736.408 542.698 736.684 541.09 736.684ZM561.758 736.612C559.07 736.612 556.958 736.048 555.422 734.92C553.91 733.768 553.118 732.184 553.046 730.168H557.546C557.618 730.84 557.99 731.452 558.662 732.004C559.334 732.556 560.39 732.832 561.83 732.832C563.03 732.832 563.978 732.616 564.674 732.184C565.394 731.752 565.754 731.164 565.754 730.42C565.754 729.772 565.478 729.256 564.926 728.872C564.398 728.488 563.486 728.236 562.19 728.116L560.462 727.936C558.278 727.696 556.598 727.072 555.422 726.064C554.246 725.056 553.658 723.712 553.658 722.032C553.658 720.688 553.994 719.56 554.666 718.648C555.338 717.736 556.262 717.052 557.438 716.596C558.638 716.116 560.006 715.876 561.542 715.876C563.942 715.876 565.886 716.404 567.374 717.46C568.862 718.516 569.642 720.064 569.714 722.104H565.214C565.166 721.432 564.83 720.856 564.206 720.376C563.582 719.896 562.682 719.656 561.506 719.656C560.45 719.656 559.634 719.86 559.058 720.268C558.482 720.676 558.194 721.204 558.194 721.852C558.194 722.476 558.422 722.956 558.878 723.292C559.358 723.628 560.126 723.856 561.182 723.976L562.91 724.156C565.214 724.396 567.014 725.032 568.31 726.064C569.63 727.096 570.29 728.488 570.29 730.24C570.29 731.536 569.93 732.664 569.21 733.624C568.514 734.56 567.53 735.292 566.258 735.82C564.986 736.348 563.486 736.612 561.758 736.612ZM575.62 741.976L571.732 740.5L575.404 730.06L579.58 731.608L575.62 741.976ZM148.918 784V761.5H154.03V784H148.918ZM141.322 762.22V757.72H161.626V762.22H141.322ZM175.854 784V778.204H175.026V771.76C175.026 770.632 174.75 769.792 174.198 769.24C173.646 768.688 172.794 768.412 171.642 768.412C171.042 768.412 170.322 768.424 169.482 768.448C168.642 768.472 167.79 768.508 166.926 768.556C166.086 768.58 165.33 768.616 164.658 768.664V764.416C165.21 764.368 165.834 764.32 166.53 764.272C167.226 764.224 167.934 764.2 168.654 764.2C169.398 764.176 170.094 764.164 170.742 764.164C172.758 764.164 174.426 764.428 175.746 764.956C177.09 765.484 178.098 766.312 178.77 767.44C179.466 768.568 179.814 770.044 179.814 771.868V784H175.854ZM169.554 784.504C168.138 784.504 166.89 784.252 165.81 783.748C164.754 783.244 163.926 782.524 163.326 781.588C162.75 780.652 162.462 779.524 162.462 778.204C162.462 776.764 162.81 775.588 163.506 774.676C164.226 773.764 165.222 773.08 166.494 772.624C167.79 772.168 169.302 771.94 171.03 771.94H175.566V774.928H170.958C169.806 774.928 168.918 775.216 168.294 775.792C167.694 776.344 167.394 777.064 167.394 777.952C167.394 778.84 167.694 779.56 168.294 780.112C168.918 780.664 169.806 780.94 170.958 780.94C171.654 780.94 172.29 780.82 172.866 780.58C173.466 780.316 173.958 779.884 174.342 779.284C174.75 778.66 174.978 777.82 175.026 776.764L176.25 778.168C176.13 779.536 175.794 780.688 175.242 781.624C174.714 782.56 173.97 783.28 173.01 783.784C172.074 784.264 170.922 784.504 169.554 784.504ZM186.11 784V764.452H191.114V784H186.11ZM183.374 768.196V764.452H191.114V768.196H183.374ZM187.946 762.112C186.962 762.112 186.23 761.86 185.75 761.356C185.294 760.828 185.066 760.18 185.066 759.412C185.066 758.596 185.294 757.936 185.75 757.432C186.23 756.928 186.962 756.676 187.946 756.676C188.93 756.676 189.65 756.928 190.106 757.432C190.562 757.936 190.79 758.596 190.79 759.412C190.79 760.18 190.562 760.828 190.106 761.356C189.65 761.86 188.93 762.112 187.946 762.112ZM197.133 784V757.72H202.137V784H197.133ZM194.685 761.464V757.72H202.137V761.464H194.685ZM217.246 784.684C215.518 784.684 213.994 784.408 212.674 783.856C211.354 783.304 210.238 782.56 209.326 781.624C208.414 780.664 207.718 779.584 207.238 778.384C206.782 777.184 206.554 775.936 206.554 774.64V773.884C206.554 772.54 206.794 771.268 207.274 770.068C207.778 768.844 208.486 767.764 209.398 766.828C210.334 765.868 211.462 765.124 212.782 764.596C214.102 764.044 215.59 763.768 217.246 763.768C218.902 763.768 220.39 764.044 221.71 764.596C223.03 765.124 224.146 765.868 225.058 766.828C225.994 767.764 226.702 768.844 227.182 770.068C227.662 771.268 227.902 772.54 227.902 773.884V774.64C227.902 775.936 227.662 777.184 227.182 778.384C226.726 779.584 226.042 780.664 225.13 781.624C224.218 782.56 223.102 783.304 221.782 783.856C220.462 784.408 218.95 784.684 217.246 784.684ZM217.246 780.4C218.47 780.4 219.502 780.136 220.342 779.608C221.182 779.056 221.818 778.324 222.25 777.412C222.682 776.476 222.898 775.42 222.898 774.244C222.898 773.044 222.67 771.988 222.214 771.076C221.782 770.14 221.134 769.408 220.27 768.88C219.43 768.328 218.422 768.052 217.246 768.052C216.07 768.052 215.05 768.328 214.186 768.88C213.346 769.408 212.698 770.14 212.242 771.076C211.786 771.988 211.558 773.044 211.558 774.244C211.558 775.42 211.774 776.476 212.206 777.412C212.662 778.324 213.31 779.056 214.15 779.608C214.99 780.136 216.022 780.4 217.246 780.4ZM232.283 784V764.452H236.243V772.732H236.135C236.135 769.924 236.735 767.8 237.935 766.36C239.135 764.92 240.899 764.2 243.227 764.2H243.947V768.556H242.579C240.899 768.556 239.591 769.012 238.655 769.924C237.743 770.812 237.287 772.108 237.287 773.812V784H232.283ZM255.903 784.684C254.223 784.684 252.747 784.396 251.475 783.82C250.227 783.244 249.183 782.476 248.343 781.516C247.527 780.532 246.903 779.44 246.471 778.24C246.063 777.04 245.859 775.816 245.859 774.568V773.884C245.859 772.588 246.063 771.34 246.471 770.14C246.903 768.916 247.527 767.836 248.343 766.9C249.183 765.94 250.215 765.184 251.439 764.632C252.663 764.056 254.079 763.768 255.687 763.768C257.799 763.768 259.563 764.236 260.979 765.172C262.419 766.084 263.499 767.296 264.219 768.808C264.939 770.296 265.299 771.904 265.299 773.632V775.432H247.983V772.372H262.167L260.619 773.884C260.619 772.636 260.439 771.568 260.079 770.68C259.719 769.792 259.167 769.108 258.423 768.628C257.703 768.148 256.791 767.908 255.687 767.908C254.583 767.908 253.647 768.16 252.879 768.664C252.111 769.168 251.523 769.9 251.115 770.86C250.731 771.796 250.539 772.924 250.539 774.244C250.539 775.468 250.731 776.56 251.115 777.52C251.499 778.456 252.087 779.2 252.879 779.752C253.671 780.28 254.679 780.544 255.903 780.544C257.127 780.544 258.123 780.304 258.891 779.824C259.659 779.32 260.151 778.708 260.367 777.988H264.975C264.687 779.332 264.135 780.508 263.319 781.516C262.503 782.524 261.459 783.304 260.187 783.856C258.939 784.408 257.511 784.684 255.903 784.684ZM277.579 784.648C276.211 784.648 274.951 784.396 273.799 783.892C272.647 783.388 271.651 782.68 270.811 781.768C269.971 780.856 269.323 779.8 268.867 778.6C268.411 777.376 268.183 776.056 268.183 774.64V773.884C268.183 772.492 268.399 771.184 268.831 769.96C269.287 768.736 269.911 767.668 270.703 766.756C271.519 765.844 272.491 765.136 273.619 764.632C274.771 764.104 276.043 763.84 277.435 763.84C278.971 763.84 280.315 764.176 281.467 764.848C282.643 765.496 283.579 766.48 284.275 767.8C284.971 769.12 285.355 770.776 285.427 772.768L283.951 771.04V757.72H288.955V784H284.995V775.684H285.859C285.787 777.676 285.379 779.344 284.635 780.688C283.891 782.008 282.907 783.004 281.683 783.676C280.483 784.324 279.115 784.648 277.579 784.648ZM278.695 780.436C279.679 780.436 280.579 780.22 281.395 779.788C282.211 779.332 282.859 778.684 283.339 777.844C283.843 776.98 284.095 775.972 284.095 774.82V773.38C284.095 772.228 283.843 771.268 283.339 770.5C282.835 769.708 282.175 769.108 281.359 768.7C280.543 768.268 279.655 768.052 278.695 768.052C277.615 768.052 276.655 768.316 275.815 768.844C274.999 769.348 274.351 770.068 273.871 771.004C273.415 771.94 273.187 773.032 273.187 774.28C273.187 775.528 273.427 776.62 273.907 777.556C274.387 778.468 275.035 779.176 275.851 779.68C276.691 780.184 277.639 780.436 278.695 780.436ZM302.816 784V757.72H307.928V784H302.816ZM307.208 773.056V768.736L317.72 768.7V773.02L307.208 773.056ZM307.208 762.04V757.72H318.224V762.04H307.208ZM322.319 784V764.452H326.279V772.732H326.171C326.171 769.924 326.771 767.8 327.971 766.36C329.171 764.92 330.935 764.2 333.263 764.2H333.983V768.556H332.615C330.935 768.556 329.627 769.012 328.691 769.924C327.779 770.812 327.323 772.108 327.323 773.812V784H322.319ZM346.586 784.684C344.858 784.684 343.334 784.408 342.014 783.856C340.694 783.304 339.578 782.56 338.666 781.624C337.754 780.664 337.058 779.584 336.578 778.384C336.122 777.184 335.894 775.936 335.894 774.64V773.884C335.894 772.54 336.134 771.268 336.614 770.068C337.118 768.844 337.826 767.764 338.738 766.828C339.674 765.868 340.802 765.124 342.122 764.596C343.442 764.044 344.93 763.768 346.586 763.768C348.242 763.768 349.73 764.044 351.05 764.596C352.37 765.124 353.486 765.868 354.398 766.828C355.334 767.764 356.042 768.844 356.522 770.068C357.002 771.268 357.242 772.54 357.242 773.884V774.64C357.242 775.936 357.002 777.184 356.522 778.384C356.066 779.584 355.382 780.664 354.47 781.624C353.558 782.56 352.442 783.304 351.122 783.856C349.802 784.408 348.29 784.684 346.586 784.684ZM346.586 780.4C347.81 780.4 348.842 780.136 349.682 779.608C350.522 779.056 351.158 778.324 351.59 777.412C352.022 776.476 352.238 775.42 352.238 774.244C352.238 773.044 352.01 771.988 351.554 771.076C351.122 770.14 350.474 769.408 349.61 768.88C348.77 768.328 347.762 768.052 346.586 768.052C345.41 768.052 344.39 768.328 343.526 768.88C342.686 769.408 342.038 770.14 341.582 771.076C341.126 771.988 340.898 773.044 340.898 774.244C340.898 775.42 341.114 776.476 341.546 777.412C342.002 778.324 342.65 779.056 343.49 779.608C344.33 780.136 345.362 780.4 346.586 780.4ZM361.623 784V764.452H365.583V772.84H365.223C365.223 770.872 365.475 769.228 365.979 767.908C366.483 766.564 367.227 765.556 368.211 764.884C369.219 764.188 370.467 763.84 371.955 763.84H372.171C373.683 763.84 374.931 764.188 375.915 764.884C376.923 765.556 377.667 766.564 378.147 767.908C378.651 769.228 378.903 770.872 378.903 772.84H377.643C377.643 770.872 377.895 769.228 378.399 767.908C378.927 766.564 379.683 765.556 380.667 764.884C381.675 764.188 382.923 763.84 384.411 763.84H384.627C386.139 763.84 387.399 764.188 388.407 764.884C389.415 765.556 390.171 766.564 390.675 767.908C391.203 769.228 391.467 770.872 391.467 772.84V784H386.463V772.372C386.463 771.148 386.151 770.176 385.527 769.456C384.903 768.712 384.015 768.34 382.863 768.34C381.711 768.34 380.787 768.724 380.091 769.492C379.395 770.236 379.047 771.244 379.047 772.516V784H374.043V772.372C374.043 771.148 373.731 770.176 373.107 769.456C372.483 768.712 371.595 768.34 370.443 768.34C369.291 768.34 368.367 768.724 367.671 769.492C366.975 770.236 366.627 771.244 366.627 772.516V784H361.623ZM410.02 773.956L402.1 757.72H407.356L413.404 770.428L412.252 770.068H415.672L414.448 770.428L419.956 757.72H424.924L417.616 773.956H410.02ZM411.316 784V773.164H416.32V784H411.316ZM435.566 784.684C433.838 784.684 432.314 784.408 430.994 783.856C429.674 783.304 428.558 782.56 427.646 781.624C426.734 780.664 426.038 779.584 425.558 778.384C425.102 777.184 424.874 775.936 424.874 774.64V773.884C424.874 772.54 425.114 771.268 425.594 770.068C426.098 768.844 426.806 767.764 427.718 766.828C428.654 765.868 429.782 765.124 431.102 764.596C432.422 764.044 433.91 763.768 435.566 763.768C437.222 763.768 438.71 764.044 440.03 764.596C441.35 765.124 442.466 765.868 443.378 766.828C444.314 767.764 445.022 768.844 445.502 770.068C445.982 771.268 446.222 772.54 446.222 773.884V774.64C446.222 775.936 445.982 777.184 445.502 778.384C445.046 779.584 444.362 780.664 443.45 781.624C442.538 782.56 441.422 783.304 440.102 783.856C438.782 784.408 437.27 784.684 435.566 784.684ZM435.566 780.4C436.79 780.4 437.822 780.136 438.662 779.608C439.502 779.056 440.138 778.324 440.57 777.412C441.002 776.476 441.218 775.42 441.218 774.244C441.218 773.044 440.99 771.988 440.534 771.076C440.102 770.14 439.454 769.408 438.59 768.88C437.75 768.328 436.742 768.052 435.566 768.052C434.39 768.052 433.37 768.328 432.506 768.88C431.666 769.408 431.018 770.14 430.562 771.076C430.106 771.988 429.878 773.044 429.878 774.244C429.878 775.42 430.094 776.476 430.526 777.412C430.982 778.324 431.63 779.056 432.47 779.608C433.31 780.136 434.342 780.4 435.566 780.4ZM457.264 784.612C455.008 784.612 453.256 783.868 452.008 782.38C450.784 780.892 450.172 778.684 450.172 775.756V764.416H455.176V776.188C455.176 777.388 455.512 778.348 456.184 779.068C456.856 779.764 457.768 780.112 458.92 780.112C460.072 780.112 461.008 779.74 461.728 778.996C462.472 778.252 462.844 777.244 462.844 775.972V764.416H467.848V784H463.888V775.684H464.284C464.284 777.652 464.032 779.296 463.528 780.616C463.024 781.936 462.268 782.932 461.26 783.604C460.252 784.276 458.992 784.612 457.48 784.612H457.264ZM473.596 784V764.452H477.556V772.732H477.448C477.448 769.924 478.048 767.8 479.248 766.36C480.448 764.92 482.212 764.2 484.54 764.2H485.26V768.556H483.892C482.212 768.556 480.904 769.012 479.968 769.924C479.056 770.812 478.6 772.108 478.6 773.812V784H473.596ZM501.165 775.936V771.508H506.277C507.309 771.508 508.173 771.304 508.869 770.896C509.589 770.488 510.129 769.924 510.489 769.204C510.873 768.484 511.065 767.656 511.065 766.72C511.065 765.784 510.873 764.956 510.489 764.236C510.129 763.516 509.589 762.964 508.869 762.58C508.173 762.172 507.309 761.968 506.277 761.968H501.165V757.54H505.845C508.053 757.54 509.925 757.9 511.461 758.62C513.021 759.34 514.209 760.372 515.025 761.716C515.841 763.036 516.249 764.608 516.249 766.432V767.008C516.249 768.832 515.841 770.416 515.025 771.76C514.209 773.08 513.021 774.112 511.461 774.856C509.925 775.576 508.053 775.936 505.845 775.936H501.165ZM496.773 784V757.54H501.885V784H496.773ZM520.213 784V764.452H524.173V772.732H524.065C524.065 769.924 524.665 767.8 525.865 766.36C527.065 764.92 528.829 764.2 531.157 764.2H531.877V768.556H530.509C528.829 768.556 527.521 769.012 526.585 769.924C525.673 770.812 525.217 772.108 525.217 773.812V784H520.213ZM544.48 784.684C542.752 784.684 541.228 784.408 539.908 783.856C538.588 783.304 537.472 782.56 536.56 781.624C535.648 780.664 534.952 779.584 534.472 778.384C534.016 777.184 533.788 775.936 533.788 774.64V773.884C533.788 772.54 534.028 771.268 534.508 770.068C535.012 768.844 535.72 767.764 536.632 766.828C537.568 765.868 538.696 765.124 540.016 764.596C541.336 764.044 542.824 763.768 544.48 763.768C546.136 763.768 547.624 764.044 548.944 764.596C550.264 765.124 551.38 765.868 552.292 766.828C553.228 767.764 553.936 768.844 554.416 770.068C554.896 771.268 555.136 772.54 555.136 773.884V774.64C555.136 775.936 554.896 777.184 554.416 778.384C553.96 779.584 553.276 780.664 552.364 781.624C551.452 782.56 550.336 783.304 549.016 783.856C547.696 784.408 546.184 784.684 544.48 784.684ZM544.48 780.4C545.704 780.4 546.736 780.136 547.576 779.608C548.416 779.056 549.052 778.324 549.484 777.412C549.916 776.476 550.132 775.42 550.132 774.244C550.132 773.044 549.904 771.988 549.448 771.076C549.016 770.14 548.368 769.408 547.504 768.88C546.664 768.328 545.656 768.052 544.48 768.052C543.304 768.052 542.284 768.328 541.42 768.88C540.58 769.408 539.932 770.14 539.476 771.076C539.02 771.988 538.792 773.044 538.792 774.244C538.792 775.42 539.008 776.476 539.44 777.412C539.896 778.324 540.544 779.056 541.384 779.608C542.224 780.136 543.256 780.4 544.48 780.4ZM559.95 784V763.768C559.95 761.536 560.562 759.892 561.786 758.836C563.034 757.756 564.87 757.216 567.294 757.216H569.31V761.068H566.934C566.19 761.068 565.614 761.272 565.206 761.68C564.822 762.064 564.63 762.616 564.63 763.336V784H559.95ZM557.538 768.232V764.56H569.13V768.232H557.538ZM573.306 784V764.452H578.31V784H573.306ZM570.822 768.196V764.452H578.31V768.196H570.822ZM575.106 762.112C574.146 762.112 573.426 761.86 572.946 761.356C572.49 760.828 572.262 760.18 572.262 759.412C572.262 758.596 572.49 757.936 572.946 757.432C573.426 756.928 574.146 756.676 575.106 756.676C576.09 756.676 576.81 756.928 577.266 757.432C577.746 757.936 577.986 758.596 577.986 759.412C577.986 760.18 577.746 760.828 577.266 761.356C576.81 761.86 576.09 762.112 575.106 762.112ZM584.309 784V757.72H589.313V784H584.309ZM581.861 761.464V757.72H589.313V761.464H581.861ZM603.774 784.684C602.094 784.684 600.618 784.396 599.346 783.82C598.098 783.244 597.054 782.476 596.214 781.516C595.398 780.532 594.774 779.44 594.342 778.24C593.934 777.04 593.73 775.816 593.73 774.568V773.884C593.73 772.588 593.934 771.34 594.342 770.14C594.774 768.916 595.398 767.836 596.214 766.9C597.054 765.94 598.086 765.184 599.31 764.632C600.534 764.056 601.95 763.768 603.558 763.768C605.67 763.768 607.434 764.236 608.85 765.172C610.29 766.084 611.37 767.296 612.09 768.808C612.81 770.296 613.17 771.904 613.17 773.632V775.432H595.854V772.372H610.038L608.49 773.884C608.49 772.636 608.31 771.568 607.95 770.68C607.59 769.792 607.038 769.108 606.294 768.628C605.574 768.148 604.662 767.908 603.558 767.908C602.454 767.908 601.518 768.16 600.75 768.664C599.982 769.168 599.394 769.9 598.986 770.86C598.602 771.796 598.41 772.924 598.41 774.244C598.41 775.468 598.602 776.56 598.986 777.52C599.37 778.456 599.958 779.2 600.75 779.752C601.542 780.28 602.55 780.544 603.774 780.544C604.998 780.544 605.994 780.304 606.762 779.824C607.53 779.32 608.022 778.708 608.238 777.988H612.846C612.558 779.332 612.006 780.508 611.19 781.516C610.374 782.524 609.33 783.304 608.058 783.856C606.81 784.408 605.382 784.684 603.774 784.684Z" fill="white"/>
<path opacity="0.703738" d="M225.288 833.368V831.88H233.048V833.368H230.088V843H228.264V833.368H225.288ZM236.719 838.36V843H234.895V834.184H236.719V835.464C237.231 834.584 238.111 834.04 239.359 834.04V835.928H238.895C237.551 835.928 236.719 836.488 236.719 838.36ZM240.428 838.552C240.428 835.832 242.268 834.04 244.588 834.04C246.076 834.04 247.1 834.744 247.644 835.464V834.184H249.484V843H247.644V841.688C247.084 842.44 246.028 843.144 244.556 843.144C242.268 843.144 240.428 841.272 240.428 838.552ZM247.644 838.584C247.644 836.696 246.348 835.624 244.972 835.624C243.612 835.624 242.3 836.648 242.3 838.552C242.3 840.456 243.612 841.56 244.972 841.56C246.348 841.56 247.644 840.488 247.644 838.584ZM258.136 843V838.072C258.136 836.456 257.256 835.624 255.928 835.624C254.584 835.624 253.704 836.456 253.704 838.072V843H251.88V834.184H253.704V835.192C254.296 834.472 255.272 834.04 256.328 834.04C258.392 834.04 259.944 835.336 259.944 837.8V843H258.136ZM268.846 840.536C268.846 842.024 267.55 843.144 265.47 843.144C263.358 843.144 261.87 841.896 261.79 840.296H263.678C263.742 841.016 264.43 841.608 265.438 841.608C266.494 841.608 267.054 841.16 267.054 840.552C267.054 838.824 261.934 839.816 261.934 836.584C261.934 835.176 263.246 834.04 265.326 834.04C267.326 834.04 268.638 835.112 268.734 836.872H266.91C266.846 836.104 266.254 835.576 265.262 835.576C264.286 835.576 263.774 835.976 263.774 836.568C263.774 838.344 268.75 837.352 268.846 840.536ZM271.041 843V835.672H270.001V834.184H271.041V833.56C271.041 831.528 272.081 830.648 274.385 830.648V832.168C273.265 832.168 272.881 832.552 272.881 833.56V834.184H274.513V835.672H272.881V843H271.041ZM284.53 838.584C284.53 841.352 282.482 843.144 279.954 843.144C277.442 843.144 275.538 841.352 275.538 838.584C275.538 835.816 277.522 834.04 280.034 834.04C282.546 834.04 284.53 835.816 284.53 838.584ZM277.394 838.584C277.394 840.584 278.578 841.56 279.954 841.56C281.314 841.56 282.658 840.584 282.658 838.584C282.658 836.584 281.362 835.624 280.002 835.624C278.626 835.624 277.394 836.584 277.394 838.584ZM288.157 838.36V843H286.333V834.184H288.157V835.464C288.669 834.584 289.549 834.04 290.797 834.04V835.928H290.333C288.989 835.928 288.157 836.488 288.157 838.36ZM304.969 843V838.072C304.969 836.456 304.089 835.624 302.761 835.624C301.417 835.624 300.537 836.456 300.537 838.072V843H298.729V838.072C298.729 836.456 297.849 835.624 296.521 835.624C295.177 835.624 294.297 836.456 294.297 838.072V843H292.473V834.184H294.297V835.192C294.889 834.472 295.849 834.04 296.905 834.04C298.297 834.04 299.465 834.632 300.073 835.784C300.617 834.712 301.865 834.04 303.145 834.04C305.209 834.04 306.777 835.336 306.777 837.8V843H304.969ZM316.727 840.904L319.303 834.184H321.191L315.783 847.144H313.895L315.687 842.856L312.215 834.184H314.247L316.727 840.904ZM330.967 838.584C330.967 841.352 328.919 843.144 326.391 843.144C323.879 843.144 321.975 841.352 321.975 838.584C321.975 835.816 323.959 834.04 326.471 834.04C328.983 834.04 330.967 835.816 330.967 838.584ZM323.831 838.584C323.831 840.584 325.015 841.56 326.391 841.56C327.751 841.56 329.095 840.584 329.095 838.584C329.095 836.584 327.799 835.624 326.439 835.624C325.063 835.624 323.831 836.584 323.831 838.584ZM340.754 834.184V843H338.93V841.944C338.354 842.696 337.362 843.128 336.322 843.128C334.258 843.128 332.69 841.832 332.69 839.368V834.184H334.498V839.096C334.498 840.712 335.378 841.544 336.706 841.544C338.05 841.544 338.93 840.712 338.93 839.096V834.184H340.754ZM344.985 838.36V843H343.161V834.184H344.985V835.464C345.497 834.584 346.377 834.04 347.625 834.04V835.928H347.161C345.817 835.928 344.985 836.488 344.985 838.36ZM354.386 833.016C353.73 833.016 353.218 832.504 353.218 831.848C353.218 831.192 353.73 830.68 354.386 830.68C355.026 830.68 355.538 831.192 355.538 831.848C355.538 832.504 355.026 833.016 354.386 833.016ZM353.458 834.184H355.282V844.728C355.282 846.52 354.322 847.192 352.754 847.192H351.81V845.656H352.434C353.202 845.656 353.458 845.384 353.458 844.728V834.184ZM366.077 838.584C366.077 841.352 364.029 843.144 361.501 843.144C358.989 843.144 357.085 841.352 357.085 838.584C357.085 835.816 359.069 834.04 361.581 834.04C364.093 834.04 366.077 835.816 366.077 838.584ZM358.941 838.584C358.941 840.584 360.125 841.56 361.501 841.56C362.861 841.56 364.205 840.584 364.205 838.584C364.205 836.584 362.909 835.624 361.549 835.624C360.173 835.624 358.941 836.584 358.941 838.584ZM369.704 835.496C370.28 834.696 371.384 834.04 372.776 834.04C375.112 834.04 376.92 835.832 376.92 838.552C376.92 841.272 375.096 843.144 372.776 843.144C371.32 843.144 370.28 842.488 369.704 841.72V843H367.88V831.16H369.704V835.496ZM375.064 838.552C375.064 836.648 373.752 835.624 372.376 835.624C371.016 835.624 369.704 836.696 369.704 838.584C369.704 840.488 371.016 841.56 372.376 841.56C373.752 841.56 375.064 840.456 375.064 838.552ZM389.456 840.536C389.456 842.024 388.16 843.144 386.08 843.144C383.968 843.144 382.48 841.896 382.4 840.296H384.288C384.352 841.016 385.04 841.608 386.048 841.608C387.104 841.608 387.664 841.16 387.664 840.552C387.664 838.824 382.544 839.816 382.544 836.584C382.544 835.176 383.856 834.04 385.936 834.04C387.936 834.04 389.248 835.112 389.344 836.872H387.52C387.456 836.104 386.864 835.576 385.872 835.576C384.896 835.576 384.384 835.976 384.384 836.568C384.384 838.344 389.36 837.352 389.456 840.536ZM395.139 835.576C393.907 835.576 392.915 836.408 392.723 837.8H397.603C397.571 836.44 396.499 835.576 395.139 835.576ZM399.267 840.376C398.771 841.912 397.379 843.144 395.219 843.144C392.691 843.144 390.819 841.352 390.819 838.584C390.819 835.816 392.611 834.04 395.219 834.04C397.731 834.04 399.507 835.784 399.507 838.376C399.507 838.68 399.491 838.968 399.443 839.272H392.707C392.835 840.728 393.875 841.608 395.219 841.608C396.339 841.608 396.963 841.064 397.299 840.376H399.267ZM400.694 838.552C400.694 835.832 402.534 834.04 404.854 834.04C406.342 834.04 407.366 834.744 407.91 835.464V834.184H409.75V843H407.91V841.688C407.35 842.44 406.294 843.144 404.822 843.144C402.534 843.144 400.694 841.272 400.694 838.552ZM407.91 838.584C407.91 836.696 406.614 835.624 405.238 835.624C403.878 835.624 402.566 836.648 402.566 838.552C402.566 840.456 403.878 841.56 405.238 841.56C406.614 841.56 407.91 840.488 407.91 838.584ZM413.969 838.36V843H412.145V834.184H413.969V835.464C414.481 834.584 415.361 834.04 416.609 834.04V835.928H416.145C414.801 835.928 413.969 836.488 413.969 838.36ZM417.678 838.584C417.678 835.832 419.47 834.04 421.998 834.04C424.158 834.04 425.566 835.112 426.062 836.968H424.094C423.79 836.12 423.086 835.576 421.998 835.576C420.526 835.576 419.55 836.664 419.55 838.584C419.55 840.52 420.526 841.608 421.998 841.608C423.086 841.608 423.758 841.128 424.094 840.216H426.062C425.566 841.944 424.158 843.144 421.998 843.144C419.47 843.144 417.678 841.352 417.678 838.584ZM427.88 843V831.16H429.704V835.208C430.312 834.472 431.304 834.04 432.44 834.04C434.408 834.04 435.944 835.336 435.944 837.8V843H434.136V838.072C434.136 836.456 433.256 835.624 431.928 835.624C430.584 835.624 429.704 836.456 429.704 838.072V843H427.88ZM444.139 843L441.387 834.184H443.243L445.083 841.272L446.955 834.184H448.859L450.651 841.24L452.475 834.184H454.267L451.531 843H449.611L447.835 836.488L446.059 843H444.139ZM455.63 843V834.184H457.454V843H455.63ZM456.558 833.016C455.902 833.016 455.39 832.504 455.39 831.848C455.39 831.192 455.902 830.68 456.558 830.68C457.198 830.68 457.71 831.192 457.71 831.848C457.71 832.504 457.198 833.016 456.558 833.016ZM460.136 840.552V835.672H459.096V834.184H460.136V831.992H461.976V834.184H464.12V835.672H461.976V840.552C461.976 841.208 462.232 841.48 463 841.48H464.12V843H462.68C461.112 843 460.136 842.344 460.136 840.552ZM465.802 843V831.16H467.626V835.208C468.234 834.472 469.226 834.04 470.362 834.04C472.33 834.04 473.866 835.336 473.866 837.8V843H472.058V838.072C472.058 836.456 471.178 835.624 469.85 835.624C468.506 835.624 467.626 836.456 467.626 838.072V843H465.802ZM488.748 838.584C488.748 841.352 486.7 843.144 484.172 843.144C481.66 843.144 479.756 841.352 479.756 838.584C479.756 835.816 481.74 834.04 484.252 834.04C486.764 834.04 488.748 835.816 488.748 838.584ZM481.612 838.584C481.612 840.584 482.796 841.56 484.172 841.56C485.532 841.56 486.876 840.584 486.876 838.584C486.876 836.584 485.58 835.624 484.22 835.624C482.844 835.624 481.612 836.584 481.612 838.584ZM498.536 834.184V843H496.712V841.944C496.136 842.696 495.144 843.128 494.104 843.128C492.04 843.128 490.472 841.832 490.472 839.368V834.184H492.28V839.096C492.28 840.712 493.16 841.544 494.488 841.544C495.832 841.544 496.712 840.712 496.712 839.096V834.184H498.536ZM502.766 838.36V843H500.942V834.184H502.766V835.464C503.278 834.584 504.158 834.04 505.406 834.04V835.928H504.942C503.598 835.928 502.766 836.488 502.766 838.36ZM518.743 843L517.943 840.728H513.287L512.487 843H510.583L514.567 831.864H516.679L520.663 843H518.743ZM517.431 839.24L515.623 834.072L513.799 839.24H517.431ZM522.395 843V831.88H524.219V843H522.395ZM528.502 841.944C528.502 842.6 527.99 843.112 527.35 843.112C526.694 843.112 526.182 842.6 526.182 841.944C526.182 841.288 526.694 840.776 527.35 840.776C527.99 840.776 528.502 841.288 528.502 841.944ZM528.502 835.224C528.502 835.88 527.99 836.392 527.35 836.392C526.694 836.392 526.182 835.88 526.182 835.224C526.182 834.568 526.694 834.056 527.35 834.056C527.99 834.056 528.502 834.568 528.502 835.224ZM145.787 859.576C144.555 859.576 143.563 860.408 143.371 861.8H148.251C148.219 860.44 147.147 859.576 145.787 859.576ZM149.915 864.376C149.419 865.912 148.027 867.144 145.867 867.144C143.339 867.144 141.467 865.352 141.467 862.584C141.467 859.816 143.259 858.04 145.867 858.04C148.379 858.04 150.155 859.784 150.155 862.376C150.155 862.68 150.139 862.968 150.091 863.272H143.355C143.483 864.728 144.523 865.608 145.867 865.608C146.987 865.608 147.611 865.064 147.947 864.376H149.915ZM152.174 867V859.672H151.134V858.184H152.174V857.56C152.174 855.528 153.214 854.648 155.518 854.648V856.168C154.398 856.168 154.014 856.552 154.014 857.56V858.184H155.646V859.672H154.014V867H152.174ZM157.487 867V859.672H156.447V858.184H157.487V857.56C157.487 855.528 158.527 854.648 160.831 854.648V856.168C159.711 856.168 159.327 856.552 159.327 857.56V858.184H160.959V859.672H159.327V867H157.487ZM162.575 867V858.184H164.399V867H162.575ZM163.503 857.016C162.847 857.016 162.335 856.504 162.335 855.848C162.335 855.192 162.847 854.68 163.503 854.68C164.143 854.68 164.655 855.192 164.655 855.848C164.655 856.504 164.143 857.016 163.503 857.016ZM166.186 862.584C166.186 859.832 167.978 858.04 170.506 858.04C172.666 858.04 174.074 859.112 174.57 860.968H172.602C172.298 860.12 171.594 859.576 170.506 859.576C169.034 859.576 168.058 860.664 168.058 862.584C168.058 864.52 169.034 865.608 170.506 865.608C171.594 865.608 172.266 865.128 172.602 864.216H174.57C174.074 865.944 172.666 867.144 170.506 867.144C167.978 867.144 166.186 865.352 166.186 862.584ZM176.388 867V858.184H178.212V867H176.388ZM177.316 857.016C176.66 857.016 176.148 856.504 176.148 855.848C176.148 855.192 176.66 854.68 177.316 854.68C177.956 854.68 178.468 855.192 178.468 855.848C178.468 856.504 177.956 857.016 177.316 857.016ZM184.318 859.576C183.086 859.576 182.094 860.408 181.902 861.8H186.782C186.75 860.44 185.678 859.576 184.318 859.576ZM188.446 864.376C187.95 865.912 186.558 867.144 184.398 867.144C181.87 867.144 179.998 865.352 179.998 862.584C179.998 859.816 181.79 858.04 184.398 858.04C186.91 858.04 188.686 859.784 188.686 862.376C188.686 862.68 188.67 862.968 188.622 863.272H181.886C182.014 864.728 183.054 865.608 184.398 865.608C185.518 865.608 186.142 865.064 186.478 864.376H188.446ZM196.737 867V862.072C196.737 860.456 195.857 859.624 194.529 859.624C193.185 859.624 192.305 860.456 192.305 862.072V867H190.481V858.184H192.305V859.192C192.897 858.472 193.873 858.04 194.929 858.04C196.993 858.04 198.545 859.336 198.545 861.8V867H196.737ZM201.16 864.552V859.672H200.12V858.184H201.16V855.992H203V858.184H205.144V859.672H203V864.552C203 865.208 203.256 865.48 204.024 865.48H205.144V867H203.704C202.136 867 201.16 866.344 201.16 864.552ZM205.705 869.224L206.841 864.808H208.825L206.889 869.224H205.705ZM216.399 859.48C216.959 858.744 218.031 858.04 219.471 858.04C221.791 858.04 223.615 859.832 223.615 862.552C223.615 865.272 221.791 867.144 219.471 867.144C218.015 867.144 216.975 866.408 216.399 865.72V871.192H214.575V858.184H216.399V859.48ZM221.759 862.552C221.759 860.648 220.447 859.624 219.071 859.624C217.711 859.624 216.399 860.696 216.399 862.584C216.399 864.488 217.711 865.56 219.071 865.56C220.447 865.56 221.759 864.456 221.759 862.552ZM227.243 862.36V867H225.419V858.184H227.243V859.464C227.755 858.584 228.635 858.04 229.883 858.04V859.928H229.419C228.075 859.928 227.243 860.488 227.243 862.36ZM239.959 862.584C239.959 865.352 237.911 867.144 235.383 867.144C232.871 867.144 230.967 865.352 230.967 862.584C230.967 859.816 232.951 858.04 235.463 858.04C237.975 858.04 239.959 859.816 239.959 862.584ZM232.823 862.584C232.823 864.584 234.007 865.56 235.383 865.56C236.743 865.56 238.087 864.584 238.087 862.584C238.087 860.584 236.791 859.624 235.431 859.624C234.055 859.624 232.823 860.584 232.823 862.584ZM241.987 867V859.672H240.947V858.184H241.987V857.56C241.987 855.528 243.027 854.648 245.331 854.648V856.168C244.211 856.168 243.827 856.552 243.827 857.56V858.184H245.459V859.672H243.827V867H241.987ZM250.787 859.576C249.555 859.576 248.563 860.408 248.371 861.8H253.251C253.219 860.44 252.147 859.576 250.787 859.576ZM254.915 864.376C254.419 865.912 253.027 867.144 250.867 867.144C248.339 867.144 246.467 865.352 246.467 862.584C246.467 859.816 248.259 858.04 250.867 858.04C253.379 858.04 255.155 859.784 255.155 862.376C255.155 862.68 255.139 862.968 255.091 863.272H248.355C248.483 864.728 249.523 865.608 250.867 865.608C251.987 865.608 252.611 865.064 252.947 864.376H254.915ZM263.526 864.536C263.526 866.024 262.23 867.144 260.15 867.144C258.038 867.144 256.55 865.896 256.47 864.296H258.358C258.422 865.016 259.11 865.608 260.118 865.608C261.174 865.608 261.734 865.16 261.734 864.552C261.734 862.824 256.614 863.816 256.614 860.584C256.614 859.176 257.926 858.04 260.006 858.04C262.006 858.04 263.318 859.112 263.414 860.872H261.59C261.526 860.104 260.934 859.576 259.942 859.576C258.966 859.576 258.454 859.976 258.454 860.568C258.454 862.344 263.43 861.352 263.526 864.536ZM272.073 864.536C272.073 866.024 270.777 867.144 268.697 867.144C266.585 867.144 265.097 865.896 265.017 864.296H266.905C266.969 865.016 267.657 865.608 268.665 865.608C269.721 865.608 270.281 865.16 270.281 864.552C270.281 862.824 265.161 863.816 265.161 860.584C265.161 859.176 266.473 858.04 268.553 858.04C270.553 858.04 271.865 859.112 271.961 860.872H270.137C270.073 860.104 269.481 859.576 268.489 859.576C267.513 859.576 267.001 859.976 267.001 860.568C267.001 862.344 271.977 861.352 272.073 864.536ZM274.044 867V858.184H275.868V867H274.044ZM274.972 857.016C274.316 857.016 273.804 856.504 273.804 855.848C273.804 855.192 274.316 854.68 274.972 854.68C275.612 854.68 276.124 855.192 276.124 855.848C276.124 856.504 275.612 857.016 274.972 857.016ZM286.663 862.584C286.663 865.352 284.615 867.144 282.087 867.144C279.575 867.144 277.671 865.352 277.671 862.584C277.671 859.816 279.655 858.04 282.167 858.04C284.679 858.04 286.663 859.816 286.663 862.584ZM279.527 862.584C279.527 864.584 280.711 865.56 282.087 865.56C283.447 865.56 284.791 864.584 284.791 862.584C284.791 860.584 283.495 859.624 282.135 859.624C280.759 859.624 279.527 860.584 279.527 862.584ZM294.722 867V862.072C294.722 860.456 293.842 859.624 292.514 859.624C291.17 859.624 290.29 860.456 290.29 862.072V867H288.466V858.184H290.29V859.192C290.882 858.472 291.858 858.04 292.914 858.04C294.978 858.04 296.53 859.336 296.53 861.8V867H294.722ZM298.248 862.552C298.248 859.832 300.088 858.04 302.408 858.04C303.896 858.04 304.92 858.744 305.464 859.464V858.184H307.304V867H305.464V865.688C304.904 866.44 303.848 867.144 302.376 867.144C300.088 867.144 298.248 865.272 298.248 862.552ZM305.464 862.584C305.464 860.696 304.168 859.624 302.792 859.624C301.432 859.624 300.12 860.648 300.12 862.552C300.12 864.456 301.432 865.56 302.792 865.56C304.168 865.56 305.464 864.488 305.464 862.584ZM309.7 867V855.16H311.524V867H309.7ZM312.799 869.224L313.935 864.808H315.919L313.983 869.224H312.799ZM321.061 862.552C321.061 859.832 322.901 858.04 325.221 858.04C326.709 858.04 327.733 858.744 328.277 859.464V858.184H330.117V867H328.277V865.688C327.717 866.44 326.661 867.144 325.189 867.144C322.901 867.144 321.061 865.272 321.061 862.552ZM328.277 862.584C328.277 860.696 326.981 859.624 325.605 859.624C324.245 859.624 322.933 860.648 322.933 862.552C322.933 864.456 324.245 865.56 325.605 865.56C326.981 865.56 328.277 864.488 328.277 862.584ZM338.769 867V862.072C338.769 860.456 337.889 859.624 336.561 859.624C335.217 859.624 334.337 860.456 334.337 862.072V867H332.513V858.184H334.337V859.192C334.929 858.472 335.905 858.04 336.961 858.04C339.025 858.04 340.577 859.336 340.577 861.8V867H338.769ZM342.295 862.552C342.295 859.832 344.135 858.04 346.471 858.04C347.623 858.04 348.839 858.584 349.511 859.416V855.16H351.351V867H349.511V865.672C348.951 866.472 347.895 867.144 346.455 867.144C344.135 867.144 342.295 865.272 342.295 862.552ZM349.511 862.584C349.511 860.696 348.215 859.624 346.839 859.624C345.479 859.624 344.167 860.648 344.167 862.552C344.167 864.456 345.479 865.56 346.839 865.56C348.215 865.56 349.511 864.488 349.511 862.584ZM359.727 859.496C360.303 858.696 361.407 858.04 362.799 858.04C365.135 858.04 366.943 859.832 366.943 862.552C366.943 865.272 365.119 867.144 362.799 867.144C361.343 867.144 360.303 866.488 359.727 865.72V867H357.903V855.16H359.727V859.496ZM365.087 862.552C365.087 860.648 363.775 859.624 362.399 859.624C361.039 859.624 359.727 860.696 359.727 862.584C359.727 864.488 361.039 865.56 362.399 865.56C363.775 865.56 365.087 864.456 365.087 862.552ZM376.731 858.184V867H374.907V865.944C374.331 866.696 373.339 867.128 372.299 867.128C370.235 867.128 368.667 865.832 368.667 863.368V858.184H370.475V863.096C370.475 864.712 371.355 865.544 372.683 865.544C374.027 865.544 374.907 864.712 374.907 863.096V858.184H376.731ZM379.138 867V858.184H380.962V867H379.138ZM380.066 857.016C379.41 857.016 378.898 856.504 378.898 855.848C378.898 855.192 379.41 854.68 380.066 854.68C380.706 854.68 381.218 855.192 381.218 855.848C381.218 856.504 380.706 857.016 380.066 857.016ZM383.356 867V855.16H385.18V867H383.356ZM387.863 864.552V859.672H386.823V858.184H387.863V855.992H389.703V858.184H391.847V859.672H389.703V864.552C389.703 865.208 389.959 865.48 390.727 865.48H391.847V867H390.407C388.839 867 387.863 866.344 387.863 864.552ZM397.972 864.552V859.672H396.932V858.184H397.972V855.992H399.812V858.184H401.956V859.672H399.812V864.552C399.812 865.208 400.068 865.48 400.836 865.48H401.956V867H400.516C398.948 867 397.972 866.344 397.972 864.552ZM412.038 862.584C412.038 865.352 409.99 867.144 407.462 867.144C404.95 867.144 403.046 865.352 403.046 862.584C403.046 859.816 405.03 858.04 407.542 858.04C410.054 858.04 412.038 859.816 412.038 862.584ZM404.902 862.584C404.902 864.584 406.086 865.56 407.462 865.56C408.822 865.56 410.166 864.584 410.166 862.584C410.166 860.584 408.87 859.624 407.51 859.624C406.134 859.624 404.902 860.584 404.902 862.584ZM417.997 867V855.16H419.821V859.208C420.429 858.472 421.421 858.04 422.557 858.04C424.525 858.04 426.061 859.336 426.061 861.8V867H424.253V862.072C424.253 860.456 423.373 859.624 422.045 859.624C420.701 859.624 419.821 860.456 419.821 862.072V867H417.997ZM428.388 867V858.184H430.212V867H428.388ZM429.316 857.016C428.66 857.016 428.148 856.504 428.148 855.848C428.148 855.192 428.66 854.68 429.316 854.68C429.956 854.68 430.468 855.192 430.468 855.848C430.468 856.504 429.956 857.016 429.316 857.016ZM431.998 862.552C431.998 859.832 433.838 858.04 436.158 858.04C437.598 858.04 438.67 858.712 439.214 859.464V858.184H441.054V867.144C441.054 869.544 439.502 871.352 436.75 871.352C434.398 871.352 432.654 870.184 432.43 868.232H434.238C434.51 869.144 435.486 869.768 436.75 869.768C438.158 869.768 439.214 868.904 439.214 867.144V865.672C438.654 866.424 437.598 867.144 436.158 867.144C433.838 867.144 431.998 865.272 431.998 862.552ZM439.214 862.584C439.214 860.696 437.918 859.624 436.542 859.624C435.182 859.624 433.87 860.648 433.87 862.552C433.87 864.456 435.182 865.56 436.542 865.56C437.918 865.56 439.214 864.488 439.214 862.584ZM443.45 867V855.16H445.274V859.208C445.882 858.472 446.874 858.04 448.01 858.04C449.978 858.04 451.514 859.336 451.514 861.8V867H449.706V862.072C449.706 860.456 448.826 859.624 447.498 859.624C446.154 859.624 445.274 860.456 445.274 862.072V867H443.45ZM453.841 867V855.16H455.665V867H453.841ZM458.059 867V858.184H459.883V867H458.059ZM458.987 857.016C458.331 857.016 457.819 856.504 457.819 855.848C457.819 855.192 458.331 854.68 458.987 854.68C459.627 854.68 460.139 855.192 460.139 855.848C460.139 856.504 459.627 857.016 458.987 857.016ZM461.67 862.552C461.67 859.832 463.51 858.04 465.83 858.04C467.27 858.04 468.342 858.712 468.886 859.464V858.184H470.726V867.144C470.726 869.544 469.174 871.352 466.422 871.352C464.07 871.352 462.326 870.184 462.102 868.232H463.91C464.182 869.144 465.158 869.768 466.422 869.768C467.83 869.768 468.886 868.904 468.886 867.144V865.672C468.326 866.424 467.27 867.144 465.83 867.144C463.51 867.144 461.67 865.272 461.67 862.552ZM468.886 862.584C468.886 860.696 467.59 859.624 466.214 859.624C464.854 859.624 463.542 860.648 463.542 862.552C463.542 864.456 464.854 865.56 466.214 865.56C467.59 865.56 468.886 864.488 468.886 862.584ZM473.122 867V855.16H474.946V859.208C475.554 858.472 476.546 858.04 477.682 858.04C479.65 858.04 481.186 859.336 481.186 861.8V867H479.378V862.072C479.378 860.456 478.498 859.624 477.17 859.624C475.826 859.624 474.946 860.456 474.946 862.072V867H473.122ZM483.801 864.552V859.672H482.761V858.184H483.801V855.992H485.641V858.184H487.785V859.672H485.641V864.552C485.641 865.208 485.897 865.48 486.665 865.48H487.785V867H486.345C484.777 867 483.801 866.344 483.801 864.552ZM497.094 864.904L499.67 858.184H501.558L496.15 871.144H494.262L496.054 866.856L492.582 858.184H494.614L497.094 864.904ZM511.334 862.584C511.334 865.352 509.286 867.144 506.758 867.144C504.246 867.144 502.342 865.352 502.342 862.584C502.342 859.816 504.326 858.04 506.838 858.04C509.35 858.04 511.334 859.816 511.334 862.584ZM504.198 862.584C504.198 864.584 505.382 865.56 506.758 865.56C508.118 865.56 509.462 864.584 509.462 862.584C509.462 860.584 508.166 859.624 506.806 859.624C505.43 859.624 504.198 860.584 504.198 862.584ZM521.122 858.184V867H519.298V865.944C518.722 866.696 517.73 867.128 516.69 867.128C514.626 867.128 513.058 865.832 513.058 863.368V858.184H514.866V863.096C514.866 864.712 515.746 865.544 517.074 865.544C518.418 865.544 519.298 864.712 519.298 863.096V858.184H521.122ZM525.352 862.36V867H523.528V858.184H525.352V859.464C525.864 858.584 526.744 858.04 527.992 858.04V859.928H527.528C526.184 859.928 525.352 860.488 525.352 862.36ZM540.401 864.536C540.401 866.024 539.105 867.144 537.025 867.144C534.913 867.144 533.425 865.896 533.345 864.296H535.233C535.297 865.016 535.985 865.608 536.993 865.608C538.049 865.608 538.609 865.16 538.609 864.552C538.609 862.824 533.489 863.816 533.489 860.584C533.489 859.176 534.801 858.04 536.881 858.04C538.881 858.04 540.193 859.112 540.289 860.872H538.465C538.401 860.104 537.809 859.576 536.817 859.576C535.841 859.576 535.329 859.976 535.329 860.568C535.329 862.344 540.305 861.352 540.401 864.536ZM542.66 864.552V859.672H541.62V858.184H542.66V855.992H544.5V858.184H546.644V859.672H544.5V864.552C544.5 865.208 544.756 865.48 545.524 865.48H546.644V867H545.204C543.636 867 542.66 866.344 542.66 864.552ZM550.149 862.36V867H548.325V858.184H550.149V859.464C550.661 858.584 551.541 858.04 552.789 858.04V859.928H552.325C550.981 859.928 550.149 860.488 550.149 862.36ZM558.178 859.576C556.946 859.576 555.954 860.408 555.762 861.8H560.642C560.61 860.44 559.538 859.576 558.178 859.576ZM562.306 864.376C561.81 865.912 560.418 867.144 558.258 867.144C555.73 867.144 553.858 865.352 553.858 862.584C553.858 859.816 555.65 858.04 558.258 858.04C560.77 858.04 562.546 859.784 562.546 862.376C562.546 862.68 562.53 862.968 562.482 863.272H555.746C555.874 864.728 556.914 865.608 558.258 865.608C559.378 865.608 560.002 865.064 560.338 864.376H562.306ZM570.597 867V862.072C570.597 860.456 569.717 859.624 568.389 859.624C567.045 859.624 566.165 860.456 566.165 862.072V867H564.341V858.184H566.165V859.192C566.757 858.472 567.733 858.04 568.789 858.04C570.853 858.04 572.405 859.336 572.405 861.8V867H570.597ZM574.123 862.552C574.123 859.832 575.963 858.04 578.283 858.04C579.723 858.04 580.795 858.712 581.339 859.464V858.184H583.179V867.144C583.179 869.544 581.627 871.352 578.875 871.352C576.523 871.352 574.779 870.184 574.555 868.232H576.363C576.635 869.144 577.611 869.768 578.875 869.768C580.283 869.768 581.339 868.904 581.339 867.144V865.672C580.779 866.424 579.723 867.144 578.283 867.144C575.963 867.144 574.123 865.272 574.123 862.552ZM581.339 862.584C581.339 860.696 580.043 859.624 578.667 859.624C577.307 859.624 575.995 860.648 575.995 862.552C575.995 864.456 577.307 865.56 578.667 865.56C580.043 865.56 581.339 864.488 581.339 862.584ZM585.863 864.552V859.672H584.823V858.184H585.863V855.992H587.703V858.184H589.847V859.672H587.703V864.552C587.703 865.208 587.959 865.48 588.727 865.48H589.847V867H588.407C586.839 867 585.863 866.344 585.863 864.552ZM591.528 867V855.16H593.352V859.208C593.96 858.472 594.952 858.04 596.088 858.04C598.056 858.04 599.592 859.336 599.592 861.8V867H597.784V862.072C597.784 860.456 596.904 859.624 595.576 859.624C594.232 859.624 593.352 860.456 593.352 862.072V867H591.528ZM608.495 864.536C608.495 866.024 607.199 867.144 605.119 867.144C603.007 867.144 601.519 865.896 601.439 864.296H603.327C603.391 865.016 604.079 865.608 605.087 865.608C606.143 865.608 606.703 865.16 606.703 864.552C606.703 862.824 601.583 863.816 601.583 860.584C601.583 859.176 602.895 858.04 604.975 858.04C606.975 858.04 608.287 859.112 608.383 860.872H606.559C606.495 860.104 605.903 859.576 604.911 859.576C603.935 859.576 603.423 859.976 603.423 860.568C603.423 862.344 608.399 861.352 608.495 864.536ZM612.354 865.944C612.354 866.6 611.842 867.112 611.202 867.112C610.546 867.112 610.034 866.6 610.034 865.944C610.034 865.288 610.546 864.776 611.202 864.776C611.842 864.776 612.354 865.288 612.354 865.944Z" fill="white"/>
<defs>
<linearGradient id="paint0_linear_2742_7581" x1="322.913" y1="11" x2="370.081" y2="982.336" gradientUnits="userSpaceOnUse">
<stop offset="0.574988" stop-color="#297AC0"/>
<stop offset="1" stop-color="#13395A"/>
</linearGradient>
<linearGradient id="paint1_linear_2742_7581" x1="522.86" y1="430.745" x2="470.264" y2="756.335" gradientUnits="userSpaceOnUse">
<stop offset="0.0736851" stop-color="white"/>
<stop offset="1" stop-color="#737373" stop-opacity="0"/>
</linearGradient>
<linearGradient id="paint2_linear_2742_7581" x1="523.779" y1="470.6" x2="465.306" y2="812.696" gradientUnits="userSpaceOnUse">
<stop offset="0.0736851" stop-color="white"/>
<stop offset="1" stop-color="#737373" stop-opacity="0"/>
</linearGradient>
<linearGradient id="paint3_linear_2742_7581" x1="232.027" y1="140.912" x2="499.153" y2="478.178" gradientUnits="userSpaceOnUse">
<stop stop-color="white" stop-opacity="0"/>
<stop offset="0.70319" stop-color="#FFE458"/>
</linearGradient>
</defs>
</svg>
