<svg width="754" height="982" viewBox="0 0 754 982" fill="none" xmlns="http://www.w3.org/2000/svg">
<rect width="754" height="982" fill="url(#paint0_linear_2742_7761)"/>
<rect y="646" width="754" height="127" fill="url(#paint1_linear_2742_7761)"/>
<rect x="357.666" y="361.2" width="70.5746" height="70.5746" rx="11" transform="rotate(16.2555 357.666 361.2)" fill="url(#paint2_linear_2742_7761)"/>
<g clip-path="url(#clip0_2742_7761)">
<path d="M538.861 425.86L424.89 538.282L424.613 614.718C424.596 619.626 421.34 623.934 416.619 625.294L364.599 640.26C357.534 642.293 350.492 636.994 350.492 629.645V538.415L236.861 425.86H538.861Z" fill="url(#paint3_linear_2742_7761)"/>
<path d="M538.861 425.861C538.861 425.861 526.048 440.721 387.861 440.721C249.673 440.721 236.861 425.861 236.861 425.861C236.861 425.861 252.471 411 387.862 411C523.254 411 538.863 425.861 538.863 425.861H538.861Z" fill="#FFF2AB"/>
<path d="M354.382 373.171C356.085 367.339 362.193 363.988 368.026 365.687L414.638 379.258C420.471 380.956 423.819 387.06 422.116 392.892L416.133 413.38C411.953 427.694 396.959 435.919 382.642 431.75L340.831 419.577L354.382 373.171Z" fill="white"/>
<path d="M490.401 426.121C490.401 426.121 481.7 433.466 387.86 433.466C294.02 433.466 285.319 426.121 285.319 426.121C285.319 426.121 295.919 418.777 387.861 418.777C479.803 418.777 490.402 426.121 490.402 426.121H490.401Z" fill="url(#paint4_linear_2742_7761)"/>
<mask id="mask0_2742_7761" style="mask-type:alpha" maskUnits="userSpaceOnUse" x="285" y="418" width="206" height="16">
<path d="M490.401 426.121C490.401 426.121 481.7 433.466 387.86 433.466C294.02 433.466 285.319 426.121 285.319 426.121C285.319 426.121 295.919 418.777 387.861 418.777C479.803 418.777 490.402 426.121 490.402 426.121H490.401Z" fill="url(#paint5_linear_2742_7761)"/>
</mask>
<g mask="url(#mask0_2742_7761)">
<rect width="70.5467" height="70.4606" rx="11" transform="matrix(0.960132 0.279548 -0.280295 0.959914 357.854 361.748)" fill="url(#paint6_linear_2742_7761)"/>
</g>
</g>
<rect x="215" y="200.13" width="90.0197" height="90.0197" rx="11" transform="rotate(-12.165 215 200.13)" fill="url(#paint7_linear_2742_7761)"/>
<rect x="363.545" y="252.822" width="70.5746" height="70.5746" rx="11" transform="rotate(16.2555 363.545 252.822)" fill="url(#paint8_linear_2742_7761)"/>
<rect x="443.373" y="150" width="82.9991" height="82.9991" rx="11" transform="rotate(16.2555 443.373 150)" fill="url(#paint9_linear_2742_7761)"/>
<path d="M180.716 750L189.68 723.72H198.032L207.248 750H201.992L194.18 727.212L196.016 728.004H191.516L193.388 727.212L185.828 750H180.716ZM186.98 743.016L188.6 738.696H199.256L200.84 743.016H186.98ZM211.224 750V723.72H216.336V750H211.224Z" fill="#FFE458"/>
<path d="M221.49 742.08V737.688H236.07V742.08H221.49ZM245.532 741.936V737.508H250.644C251.676 737.508 252.54 737.304 253.236 736.896C253.956 736.488 254.496 735.924 254.856 735.204C255.24 734.484 255.432 733.656 255.432 732.72C255.432 731.784 255.24 730.956 254.856 730.236C254.496 729.516 253.956 728.964 253.236 728.58C252.54 728.172 251.676 727.968 250.644 727.968H245.532V723.54H250.212C252.42 723.54 254.292 723.9 255.828 724.62C257.388 725.34 258.576 726.372 259.392 727.716C260.208 729.036 260.616 730.608 260.616 732.432V733.008C260.616 734.832 260.208 736.416 259.392 737.76C258.576 739.08 257.388 740.112 255.828 740.856C254.292 741.576 252.42 741.936 250.212 741.936H245.532ZM241.14 750V723.54H246.252V750H241.14ZM273.554 750.684C271.826 750.684 270.302 750.408 268.982 749.856C267.662 749.304 266.546 748.56 265.634 747.624C264.722 746.664 264.026 745.584 263.546 744.384C263.09 743.184 262.862 741.936 262.862 740.64V739.884C262.862 738.54 263.102 737.268 263.582 736.068C264.086 734.844 264.794 733.764 265.706 732.828C266.642 731.868 267.77 731.124 269.09 730.596C270.41 730.044 271.898 729.768 273.554 729.768C275.21 729.768 276.698 730.044 278.018 730.596C279.338 731.124 280.454 731.868 281.366 732.828C282.302 733.764 283.01 734.844 283.49 736.068C283.97 737.268 284.21 738.54 284.21 739.884V740.64C284.21 741.936 283.97 743.184 283.49 744.384C283.034 745.584 282.35 746.664 281.438 747.624C280.526 748.56 279.41 749.304 278.09 749.856C276.77 750.408 275.258 750.684 273.554 750.684ZM273.554 746.4C274.778 746.4 275.81 746.136 276.65 745.608C277.49 745.056 278.126 744.324 278.558 743.412C278.99 742.476 279.206 741.42 279.206 740.244C279.206 739.044 278.978 737.988 278.522 737.076C278.09 736.14 277.442 735.408 276.578 734.88C275.738 734.328 274.73 734.052 273.554 734.052C272.378 734.052 271.358 734.328 270.494 734.88C269.654 735.408 269.006 736.14 268.55 737.076C268.094 737.988 267.866 739.044 267.866 740.244C267.866 741.42 268.082 742.476 268.514 743.412C268.97 744.324 269.618 745.056 270.458 745.608C271.298 746.136 272.33 746.4 273.554 746.4ZM294.866 750L298.574 731.1H304.334L308.618 750H304.658L300.302 731.208H302.39L298.538 750H294.866ZM293.39 750L293.354 745.896H297.35V750H293.39ZM291.374 750L286.046 730.452H290.906L295.982 750H291.374ZM305.918 750V745.896H309.914L309.878 750H305.918ZM307.502 750L312.002 730.452H316.538L311.822 750H307.502ZM328.805 750.684C327.125 750.684 325.649 750.396 324.377 749.82C323.129 749.244 322.085 748.476 321.245 747.516C320.429 746.532 319.805 745.44 319.373 744.24C318.965 743.04 318.761 741.816 318.761 740.568V739.884C318.761 738.588 318.965 737.34 319.373 736.14C319.805 734.916 320.429 733.836 321.245 732.9C322.085 731.94 323.117 731.184 324.341 730.632C325.565 730.056 326.981 729.768 328.589 729.768C330.701 729.768 332.465 730.236 333.881 731.172C335.321 732.084 336.401 733.296 337.121 734.808C337.841 736.296 338.201 737.904 338.201 739.632V741.432H320.885V738.372H335.069L333.521 739.884C333.521 738.636 333.341 737.568 332.981 736.68C332.621 735.792 332.069 735.108 331.325 734.628C330.605 734.148 329.693 733.908 328.589 733.908C327.485 733.908 326.549 734.16 325.781 734.664C325.013 735.168 324.425 735.9 324.017 736.86C323.633 737.796 323.441 738.924 323.441 740.244C323.441 741.468 323.633 742.56 324.017 743.52C324.401 744.456 324.989 745.2 325.781 745.752C326.573 746.28 327.581 746.544 328.805 746.544C330.029 746.544 331.025 746.304 331.793 745.824C332.561 745.32 333.053 744.708 333.269 743.988H337.877C337.589 745.332 337.037 746.508 336.221 747.516C335.405 748.524 334.361 749.304 333.089 749.856C331.841 750.408 330.413 750.684 328.805 750.684ZM342.381 750V730.452H346.341V738.732H346.233C346.233 735.924 346.833 733.8 348.033 732.36C349.233 730.92 350.997 730.2 353.325 730.2H354.045V734.556H352.677C350.997 734.556 349.689 735.012 348.753 735.924C347.841 736.812 347.385 738.108 347.385 739.812V750H342.381ZM366 750.684C364.32 750.684 362.844 750.396 361.572 749.82C360.324 749.244 359.28 748.476 358.44 747.516C357.624 746.532 357 745.44 356.568 744.24C356.16 743.04 355.956 741.816 355.956 740.568V739.884C355.956 738.588 356.16 737.34 356.568 736.14C357 734.916 357.624 733.836 358.44 732.9C359.28 731.94 360.312 731.184 361.536 730.632C362.76 730.056 364.176 729.768 365.784 729.768C367.896 729.768 369.66 730.236 371.076 731.172C372.516 732.084 373.596 733.296 374.316 734.808C375.036 736.296 375.396 737.904 375.396 739.632V741.432H358.08V738.372H372.264L370.716 739.884C370.716 738.636 370.536 737.568 370.176 736.68C369.816 735.792 369.264 735.108 368.52 734.628C367.8 734.148 366.888 733.908 365.784 733.908C364.68 733.908 363.744 734.16 362.976 734.664C362.208 735.168 361.62 735.9 361.212 736.86C360.828 737.796 360.636 738.924 360.636 740.244C360.636 741.468 360.828 742.56 361.212 743.52C361.596 744.456 362.184 745.2 362.976 745.752C363.768 746.28 364.776 746.544 366 746.544C367.224 746.544 368.22 746.304 368.988 745.824C369.756 745.32 370.248 744.708 370.464 743.988H375.072C374.784 745.332 374.232 746.508 373.416 747.516C372.6 748.524 371.556 749.304 370.284 749.856C369.036 750.408 367.608 750.684 366 750.684ZM387.676 750.648C386.308 750.648 385.048 750.396 383.896 749.892C382.744 749.388 381.748 748.68 380.908 747.768C380.068 746.856 379.42 745.8 378.964 744.6C378.508 743.376 378.28 742.056 378.28 740.64V739.884C378.28 738.492 378.496 737.184 378.928 735.96C379.384 734.736 380.008 733.668 380.8 732.756C381.616 731.844 382.588 731.136 383.716 730.632C384.868 730.104 386.14 729.84 387.532 729.84C389.068 729.84 390.412 730.176 391.564 730.848C392.74 731.496 393.676 732.48 394.372 733.8C395.068 735.12 395.452 736.776 395.524 738.768L394.048 737.04V723.72H399.052V750H395.092V741.684H395.956C395.884 743.676 395.476 745.344 394.732 746.688C393.988 748.008 393.004 749.004 391.78 749.676C390.58 750.324 389.212 750.648 387.676 750.648ZM388.792 746.436C389.776 746.436 390.676 746.22 391.492 745.788C392.308 745.332 392.956 744.684 393.436 743.844C393.94 742.98 394.192 741.972 394.192 740.82V739.38C394.192 738.228 393.94 737.268 393.436 736.5C392.932 735.708 392.272 735.108 391.456 734.7C390.64 734.268 389.752 734.052 388.792 734.052C387.712 734.052 386.752 734.316 385.912 734.844C385.096 735.348 384.448 736.068 383.968 737.004C383.512 737.94 383.284 739.032 383.284 740.28C383.284 741.528 383.524 742.62 384.004 743.556C384.484 744.468 385.132 745.176 385.948 745.68C386.788 746.184 387.736 746.436 388.792 746.436ZM412.914 750V723.54H418.026V750H412.914ZM428.97 750L420.906 738.552H426.63L434.946 750H428.97ZM416.514 741.216V737.076H423.21C424.146 737.076 424.95 736.884 425.622 736.5C426.318 736.116 426.858 735.576 427.242 734.88C427.626 734.184 427.818 733.392 427.818 732.504C427.818 731.592 427.626 730.788 427.242 730.092C426.858 729.396 426.318 728.856 425.622 728.472C424.95 728.088 424.146 727.896 423.21 727.896H416.514V723.54H422.67C424.782 723.54 426.606 723.852 428.142 724.476C429.702 725.1 430.902 726.048 431.742 727.32C432.582 728.592 433.002 730.188 433.002 732.108V732.684C433.002 734.628 432.57 736.224 431.706 737.472C430.866 738.72 429.678 739.656 428.142 740.28C426.606 740.904 424.782 741.216 422.67 741.216H416.514ZM446.824 750.684C445.144 750.684 443.668 750.396 442.396 749.82C441.148 749.244 440.104 748.476 439.264 747.516C438.448 746.532 437.824 745.44 437.392 744.24C436.984 743.04 436.78 741.816 436.78 740.568V739.884C436.78 738.588 436.984 737.34 437.392 736.14C437.824 734.916 438.448 733.836 439.264 732.9C440.104 731.94 441.136 731.184 442.36 730.632C443.584 730.056 445 729.768 446.608 729.768C448.72 729.768 450.484 730.236 451.9 731.172C453.34 732.084 454.42 733.296 455.14 734.808C455.86 736.296 456.22 737.904 456.22 739.632V741.432H438.904V738.372H453.088L451.54 739.884C451.54 738.636 451.36 737.568 451 736.68C450.64 735.792 450.088 735.108 449.344 734.628C448.624 734.148 447.712 733.908 446.608 733.908C445.504 733.908 444.568 734.16 443.8 734.664C443.032 735.168 442.444 735.9 442.036 736.86C441.652 737.796 441.46 738.924 441.46 740.244C441.46 741.468 441.652 742.56 442.036 743.52C442.42 744.456 443.008 745.2 443.8 745.752C444.592 746.28 445.6 746.544 446.824 746.544C448.048 746.544 449.044 746.304 449.812 745.824C450.58 745.32 451.072 744.708 451.288 743.988H455.896C455.608 745.332 455.056 746.508 454.24 747.516C453.424 748.524 452.38 749.304 451.108 749.856C449.86 750.408 448.432 750.684 446.824 750.684ZM467.493 750.612C464.805 750.612 462.693 750.048 461.157 748.92C459.645 747.768 458.853 746.184 458.781 744.168H463.281C463.353 744.84 463.725 745.452 464.397 746.004C465.069 746.556 466.125 746.832 467.565 746.832C468.765 746.832 469.713 746.616 470.409 746.184C471.129 745.752 471.489 745.164 471.489 744.42C471.489 743.772 471.213 743.256 470.661 742.872C470.133 742.488 469.221 742.236 467.925 742.116L466.197 741.936C464.013 741.696 462.333 741.072 461.157 740.064C459.981 739.056 459.393 737.712 459.393 736.032C459.393 734.688 459.729 733.56 460.401 732.648C461.073 731.736 461.997 731.052 463.173 730.596C464.373 730.116 465.741 729.876 467.277 729.876C469.677 729.876 471.621 730.404 473.109 731.46C474.597 732.516 475.377 734.064 475.449 736.104H470.949C470.901 735.432 470.565 734.856 469.941 734.376C469.317 733.896 468.417 733.656 467.241 733.656C466.185 733.656 465.369 733.86 464.793 734.268C464.217 734.676 463.929 735.204 463.929 735.852C463.929 736.476 464.157 736.956 464.613 737.292C465.093 737.628 465.861 737.856 466.917 737.976L468.645 738.156C470.949 738.396 472.749 739.032 474.045 740.064C475.365 741.096 476.025 742.488 476.025 744.24C476.025 745.536 475.665 746.664 474.945 747.624C474.249 748.56 473.265 749.292 471.993 749.82C470.721 750.348 469.221 750.612 467.493 750.612ZM486.818 750.612C484.562 750.612 482.81 749.868 481.562 748.38C480.338 746.892 479.726 744.684 479.726 741.756V730.416H484.73V742.188C484.73 743.388 485.066 744.348 485.738 745.068C486.41 745.764 487.322 746.112 488.474 746.112C489.626 746.112 490.562 745.74 491.282 744.996C492.026 744.252 492.398 743.244 492.398 741.972V730.416H497.402V750H493.442V741.684H493.838C493.838 743.652 493.586 745.296 493.082 746.616C492.578 747.936 491.822 748.932 490.814 749.604C489.806 750.276 488.546 750.612 487.034 750.612H486.818ZM503.151 750V730.452H507.111V738.84H506.751C506.751 736.872 507.003 735.228 507.507 733.908C508.011 732.564 508.755 731.556 509.739 730.884C510.747 730.188 511.995 729.84 513.483 729.84H513.699C515.211 729.84 516.459 730.188 517.443 730.884C518.451 731.556 519.195 732.564 519.675 733.908C520.179 735.228 520.431 736.872 520.431 738.84H519.171C519.171 736.872 519.423 735.228 519.927 733.908C520.455 732.564 521.211 731.556 522.195 730.884C523.203 730.188 524.451 729.84 525.939 729.84H526.155C527.667 729.84 528.927 730.188 529.935 730.884C530.943 731.556 531.699 732.564 532.203 733.908C532.731 735.228 532.995 736.872 532.995 738.84V750H527.991V738.372C527.991 737.148 527.679 736.176 527.055 735.456C526.431 734.712 525.543 734.34 524.391 734.34C523.239 734.34 522.315 734.724 521.619 735.492C520.923 736.236 520.575 737.244 520.575 738.516V750H515.571V738.372C515.571 737.148 515.259 736.176 514.635 735.456C514.011 734.712 513.123 734.34 511.971 734.34C510.819 734.34 509.895 734.724 509.199 735.492C508.503 736.236 508.155 737.244 508.155 738.516V750H503.151ZM547.09 750.684C545.41 750.684 543.934 750.396 542.662 749.82C541.414 749.244 540.37 748.476 539.53 747.516C538.714 746.532 538.09 745.44 537.658 744.24C537.25 743.04 537.046 741.816 537.046 740.568V739.884C537.046 738.588 537.25 737.34 537.658 736.14C538.09 734.916 538.714 733.836 539.53 732.9C540.37 731.94 541.402 731.184 542.626 730.632C543.85 730.056 545.266 729.768 546.874 729.768C548.986 729.768 550.75 730.236 552.166 731.172C553.606 732.084 554.686 733.296 555.406 734.808C556.126 736.296 556.486 737.904 556.486 739.632V741.432H539.17V738.372H553.354L551.806 739.884C551.806 738.636 551.626 737.568 551.266 736.68C550.906 735.792 550.354 735.108 549.61 734.628C548.89 734.148 547.978 733.908 546.874 733.908C545.77 733.908 544.834 734.16 544.066 734.664C543.298 735.168 542.71 735.9 542.302 736.86C541.918 737.796 541.726 738.924 541.726 740.244C541.726 741.468 541.918 742.56 542.302 743.52C542.686 744.456 543.274 745.2 544.066 745.752C544.858 746.28 545.866 746.544 547.09 746.544C548.314 746.544 549.31 746.304 550.078 745.824C550.846 745.32 551.338 744.708 551.554 743.988H556.162C555.874 745.332 555.322 746.508 554.506 747.516C553.69 748.524 552.646 749.304 551.374 749.856C550.126 750.408 548.698 750.684 547.09 750.684ZM567.758 750.612C565.07 750.612 562.958 750.048 561.422 748.92C559.91 747.768 559.118 746.184 559.046 744.168H563.546C563.618 744.84 563.99 745.452 564.662 746.004C565.334 746.556 566.39 746.832 567.83 746.832C569.03 746.832 569.978 746.616 570.674 746.184C571.394 745.752 571.754 745.164 571.754 744.42C571.754 743.772 571.478 743.256 570.926 742.872C570.398 742.488 569.486 742.236 568.19 742.116L566.462 741.936C564.278 741.696 562.598 741.072 561.422 740.064C560.246 739.056 559.658 737.712 559.658 736.032C559.658 734.688 559.994 733.56 560.666 732.648C561.338 731.736 562.262 731.052 563.438 730.596C564.638 730.116 566.006 729.876 567.542 729.876C569.942 729.876 571.886 730.404 573.374 731.46C574.862 732.516 575.642 734.064 575.714 736.104H571.214C571.166 735.432 570.83 734.856 570.206 734.376C569.582 733.896 568.682 733.656 567.506 733.656C566.45 733.656 565.634 733.86 565.058 734.268C564.482 734.676 564.194 735.204 564.194 735.852C564.194 736.476 564.422 736.956 564.878 737.292C565.358 737.628 566.126 737.856 567.182 737.976L568.91 738.156C571.214 738.396 573.014 739.032 574.31 740.064C575.63 741.096 576.29 742.488 576.29 744.24C576.29 745.536 575.93 746.664 575.21 747.624C574.514 748.56 573.53 749.292 572.258 749.82C570.986 750.348 569.486 750.612 567.758 750.612ZM581.62 755.976L577.732 754.5L581.404 744.06L585.58 745.608L581.62 755.976ZM154.918 798V775.5H160.03V798H154.918ZM147.322 776.22V771.72H167.626V776.22H147.322ZM181.854 798V792.204H181.026V785.76C181.026 784.632 180.75 783.792 180.198 783.24C179.646 782.688 178.794 782.412 177.642 782.412C177.042 782.412 176.322 782.424 175.482 782.448C174.642 782.472 173.79 782.508 172.926 782.556C172.086 782.58 171.33 782.616 170.658 782.664V778.416C171.21 778.368 171.834 778.32 172.53 778.272C173.226 778.224 173.934 778.2 174.654 778.2C175.398 778.176 176.094 778.164 176.742 778.164C178.758 778.164 180.426 778.428 181.746 778.956C183.09 779.484 184.098 780.312 184.77 781.44C185.466 782.568 185.814 784.044 185.814 785.868V798H181.854ZM175.554 798.504C174.138 798.504 172.89 798.252 171.81 797.748C170.754 797.244 169.926 796.524 169.326 795.588C168.75 794.652 168.462 793.524 168.462 792.204C168.462 790.764 168.81 789.588 169.506 788.676C170.226 787.764 171.222 787.08 172.494 786.624C173.79 786.168 175.302 785.94 177.03 785.94H181.566V788.928H176.958C175.806 788.928 174.918 789.216 174.294 789.792C173.694 790.344 173.394 791.064 173.394 791.952C173.394 792.84 173.694 793.56 174.294 794.112C174.918 794.664 175.806 794.94 176.958 794.94C177.654 794.94 178.29 794.82 178.866 794.58C179.466 794.316 179.958 793.884 180.342 793.284C180.75 792.66 180.978 791.82 181.026 790.764L182.25 792.168C182.13 793.536 181.794 794.688 181.242 795.624C180.714 796.56 179.97 797.28 179.01 797.784C178.074 798.264 176.922 798.504 175.554 798.504ZM192.11 798V778.452H197.114V798H192.11ZM189.374 782.196V778.452H197.114V782.196H189.374ZM193.946 776.112C192.962 776.112 192.23 775.86 191.75 775.356C191.294 774.828 191.066 774.18 191.066 773.412C191.066 772.596 191.294 771.936 191.75 771.432C192.23 770.928 192.962 770.676 193.946 770.676C194.93 770.676 195.65 770.928 196.106 771.432C196.562 771.936 196.79 772.596 196.79 773.412C196.79 774.18 196.562 774.828 196.106 775.356C195.65 775.86 194.93 776.112 193.946 776.112ZM203.133 798V771.72H208.137V798H203.133ZM200.685 775.464V771.72H208.137V775.464H200.685ZM223.246 798.684C221.518 798.684 219.994 798.408 218.674 797.856C217.354 797.304 216.238 796.56 215.326 795.624C214.414 794.664 213.718 793.584 213.238 792.384C212.782 791.184 212.554 789.936 212.554 788.64V787.884C212.554 786.54 212.794 785.268 213.274 784.068C213.778 782.844 214.486 781.764 215.398 780.828C216.334 779.868 217.462 779.124 218.782 778.596C220.102 778.044 221.59 777.768 223.246 777.768C224.902 777.768 226.39 778.044 227.71 778.596C229.03 779.124 230.146 779.868 231.058 780.828C231.994 781.764 232.702 782.844 233.182 784.068C233.662 785.268 233.902 786.54 233.902 787.884V788.64C233.902 789.936 233.662 791.184 233.182 792.384C232.726 793.584 232.042 794.664 231.13 795.624C230.218 796.56 229.102 797.304 227.782 797.856C226.462 798.408 224.95 798.684 223.246 798.684ZM223.246 794.4C224.47 794.4 225.502 794.136 226.342 793.608C227.182 793.056 227.818 792.324 228.25 791.412C228.682 790.476 228.898 789.42 228.898 788.244C228.898 787.044 228.67 785.988 228.214 785.076C227.782 784.14 227.134 783.408 226.27 782.88C225.43 782.328 224.422 782.052 223.246 782.052C222.07 782.052 221.05 782.328 220.186 782.88C219.346 783.408 218.698 784.14 218.242 785.076C217.786 785.988 217.558 787.044 217.558 788.244C217.558 789.42 217.774 790.476 218.206 791.412C218.662 792.324 219.31 793.056 220.15 793.608C220.99 794.136 222.022 794.4 223.246 794.4ZM238.283 798V778.452H242.243V786.732H242.135C242.135 783.924 242.735 781.8 243.935 780.36C245.135 778.92 246.899 778.2 249.227 778.2H249.947V782.556H248.579C246.899 782.556 245.591 783.012 244.655 783.924C243.743 784.812 243.287 786.108 243.287 787.812V798H238.283ZM261.903 798.684C260.223 798.684 258.747 798.396 257.475 797.82C256.227 797.244 255.183 796.476 254.343 795.516C253.527 794.532 252.903 793.44 252.471 792.24C252.063 791.04 251.859 789.816 251.859 788.568V787.884C251.859 786.588 252.063 785.34 252.471 784.14C252.903 782.916 253.527 781.836 254.343 780.9C255.183 779.94 256.215 779.184 257.439 778.632C258.663 778.056 260.079 777.768 261.687 777.768C263.799 777.768 265.563 778.236 266.979 779.172C268.419 780.084 269.499 781.296 270.219 782.808C270.939 784.296 271.299 785.904 271.299 787.632V789.432H253.983V786.372H268.167L266.619 787.884C266.619 786.636 266.439 785.568 266.079 784.68C265.719 783.792 265.167 783.108 264.423 782.628C263.703 782.148 262.791 781.908 261.687 781.908C260.583 781.908 259.647 782.16 258.879 782.664C258.111 783.168 257.523 783.9 257.115 784.86C256.731 785.796 256.539 786.924 256.539 788.244C256.539 789.468 256.731 790.56 257.115 791.52C257.499 792.456 258.087 793.2 258.879 793.752C259.671 794.28 260.679 794.544 261.903 794.544C263.127 794.544 264.123 794.304 264.891 793.824C265.659 793.32 266.151 792.708 266.367 791.988H270.975C270.687 793.332 270.135 794.508 269.319 795.516C268.503 796.524 267.459 797.304 266.187 797.856C264.939 798.408 263.511 798.684 261.903 798.684ZM283.579 798.648C282.211 798.648 280.951 798.396 279.799 797.892C278.647 797.388 277.651 796.68 276.811 795.768C275.971 794.856 275.323 793.8 274.867 792.6C274.411 791.376 274.183 790.056 274.183 788.64V787.884C274.183 786.492 274.399 785.184 274.831 783.96C275.287 782.736 275.911 781.668 276.703 780.756C277.519 779.844 278.491 779.136 279.619 778.632C280.771 778.104 282.043 777.84 283.435 777.84C284.971 777.84 286.315 778.176 287.467 778.848C288.643 779.496 289.579 780.48 290.275 781.8C290.971 783.12 291.355 784.776 291.427 786.768L289.951 785.04V771.72H294.955V798H290.995V789.684H291.859C291.787 791.676 291.379 793.344 290.635 794.688C289.891 796.008 288.907 797.004 287.683 797.676C286.483 798.324 285.115 798.648 283.579 798.648ZM284.695 794.436C285.679 794.436 286.579 794.22 287.395 793.788C288.211 793.332 288.859 792.684 289.339 791.844C289.843 790.98 290.095 789.972 290.095 788.82V787.38C290.095 786.228 289.843 785.268 289.339 784.5C288.835 783.708 288.175 783.108 287.359 782.7C286.543 782.268 285.655 782.052 284.695 782.052C283.615 782.052 282.655 782.316 281.815 782.844C280.999 783.348 280.351 784.068 279.871 785.004C279.415 785.94 279.187 787.032 279.187 788.28C279.187 789.528 279.427 790.62 279.907 791.556C280.387 792.468 281.035 793.176 281.851 793.68C282.691 794.184 283.639 794.436 284.695 794.436ZM308.816 798V771.72H313.928V798H308.816ZM313.208 787.056V782.736L323.72 782.7V787.02L313.208 787.056ZM313.208 776.04V771.72H324.224V776.04H313.208ZM328.319 798V778.452H332.279V786.732H332.171C332.171 783.924 332.771 781.8 333.971 780.36C335.171 778.92 336.935 778.2 339.263 778.2H339.983V782.556H338.615C336.935 782.556 335.627 783.012 334.691 783.924C333.779 784.812 333.323 786.108 333.323 787.812V798H328.319ZM352.586 798.684C350.858 798.684 349.334 798.408 348.014 797.856C346.694 797.304 345.578 796.56 344.666 795.624C343.754 794.664 343.058 793.584 342.578 792.384C342.122 791.184 341.894 789.936 341.894 788.64V787.884C341.894 786.54 342.134 785.268 342.614 784.068C343.118 782.844 343.826 781.764 344.738 780.828C345.674 779.868 346.802 779.124 348.122 778.596C349.442 778.044 350.93 777.768 352.586 777.768C354.242 777.768 355.73 778.044 357.05 778.596C358.37 779.124 359.486 779.868 360.398 780.828C361.334 781.764 362.042 782.844 362.522 784.068C363.002 785.268 363.242 786.54 363.242 787.884V788.64C363.242 789.936 363.002 791.184 362.522 792.384C362.066 793.584 361.382 794.664 360.47 795.624C359.558 796.56 358.442 797.304 357.122 797.856C355.802 798.408 354.29 798.684 352.586 798.684ZM352.586 794.4C353.81 794.4 354.842 794.136 355.682 793.608C356.522 793.056 357.158 792.324 357.59 791.412C358.022 790.476 358.238 789.42 358.238 788.244C358.238 787.044 358.01 785.988 357.554 785.076C357.122 784.14 356.474 783.408 355.61 782.88C354.77 782.328 353.762 782.052 352.586 782.052C351.41 782.052 350.39 782.328 349.526 782.88C348.686 783.408 348.038 784.14 347.582 785.076C347.126 785.988 346.898 787.044 346.898 788.244C346.898 789.42 347.114 790.476 347.546 791.412C348.002 792.324 348.65 793.056 349.49 793.608C350.33 794.136 351.362 794.4 352.586 794.4ZM367.623 798V778.452H371.583V786.84H371.223C371.223 784.872 371.475 783.228 371.979 781.908C372.483 780.564 373.227 779.556 374.211 778.884C375.219 778.188 376.467 777.84 377.955 777.84H378.171C379.683 777.84 380.931 778.188 381.915 778.884C382.923 779.556 383.667 780.564 384.147 781.908C384.651 783.228 384.903 784.872 384.903 786.84H383.643C383.643 784.872 383.895 783.228 384.399 781.908C384.927 780.564 385.683 779.556 386.667 778.884C387.675 778.188 388.923 777.84 390.411 777.84H390.627C392.139 777.84 393.399 778.188 394.407 778.884C395.415 779.556 396.171 780.564 396.675 781.908C397.203 783.228 397.467 784.872 397.467 786.84V798H392.463V786.372C392.463 785.148 392.151 784.176 391.527 783.456C390.903 782.712 390.015 782.34 388.863 782.34C387.711 782.34 386.787 782.724 386.091 783.492C385.395 784.236 385.047 785.244 385.047 786.516V798H380.043V786.372C380.043 785.148 379.731 784.176 379.107 783.456C378.483 782.712 377.595 782.34 376.443 782.34C375.291 782.34 374.367 782.724 373.671 783.492C372.975 784.236 372.627 785.244 372.627 786.516V798H367.623ZM416.02 787.956L408.1 771.72H413.356L419.404 784.428L418.252 784.068H421.672L420.448 784.428L425.956 771.72H430.924L423.616 787.956H416.02ZM417.316 798V787.164H422.32V798H417.316ZM441.566 798.684C439.838 798.684 438.314 798.408 436.994 797.856C435.674 797.304 434.558 796.56 433.646 795.624C432.734 794.664 432.038 793.584 431.558 792.384C431.102 791.184 430.874 789.936 430.874 788.64V787.884C430.874 786.54 431.114 785.268 431.594 784.068C432.098 782.844 432.806 781.764 433.718 780.828C434.654 779.868 435.782 779.124 437.102 778.596C438.422 778.044 439.91 777.768 441.566 777.768C443.222 777.768 444.71 778.044 446.03 778.596C447.35 779.124 448.466 779.868 449.378 780.828C450.314 781.764 451.022 782.844 451.502 784.068C451.982 785.268 452.222 786.54 452.222 787.884V788.64C452.222 789.936 451.982 791.184 451.502 792.384C451.046 793.584 450.362 794.664 449.45 795.624C448.538 796.56 447.422 797.304 446.102 797.856C444.782 798.408 443.27 798.684 441.566 798.684ZM441.566 794.4C442.79 794.4 443.822 794.136 444.662 793.608C445.502 793.056 446.138 792.324 446.57 791.412C447.002 790.476 447.218 789.42 447.218 788.244C447.218 787.044 446.99 785.988 446.534 785.076C446.102 784.14 445.454 783.408 444.59 782.88C443.75 782.328 442.742 782.052 441.566 782.052C440.39 782.052 439.37 782.328 438.506 782.88C437.666 783.408 437.018 784.14 436.562 785.076C436.106 785.988 435.878 787.044 435.878 788.244C435.878 789.42 436.094 790.476 436.526 791.412C436.982 792.324 437.63 793.056 438.47 793.608C439.31 794.136 440.342 794.4 441.566 794.4ZM463.264 798.612C461.008 798.612 459.256 797.868 458.008 796.38C456.784 794.892 456.172 792.684 456.172 789.756V778.416H461.176V790.188C461.176 791.388 461.512 792.348 462.184 793.068C462.856 793.764 463.768 794.112 464.92 794.112C466.072 794.112 467.008 793.74 467.728 792.996C468.472 792.252 468.844 791.244 468.844 789.972V778.416H473.848V798H469.888V789.684H470.284C470.284 791.652 470.032 793.296 469.528 794.616C469.024 795.936 468.268 796.932 467.26 797.604C466.252 798.276 464.992 798.612 463.48 798.612H463.264ZM479.596 798V778.452H483.556V786.732H483.448C483.448 783.924 484.048 781.8 485.248 780.36C486.448 778.92 488.212 778.2 490.54 778.2H491.26V782.556H489.892C488.212 782.556 486.904 783.012 485.968 783.924C485.056 784.812 484.6 786.108 484.6 787.812V798H479.596ZM507.165 789.936V785.508H512.277C513.309 785.508 514.173 785.304 514.869 784.896C515.589 784.488 516.129 783.924 516.489 783.204C516.873 782.484 517.065 781.656 517.065 780.72C517.065 779.784 516.873 778.956 516.489 778.236C516.129 777.516 515.589 776.964 514.869 776.58C514.173 776.172 513.309 775.968 512.277 775.968H507.165V771.54H511.845C514.053 771.54 515.925 771.9 517.461 772.62C519.021 773.34 520.209 774.372 521.025 775.716C521.841 777.036 522.249 778.608 522.249 780.432V781.008C522.249 782.832 521.841 784.416 521.025 785.76C520.209 787.08 519.021 788.112 517.461 788.856C515.925 789.576 514.053 789.936 511.845 789.936H507.165ZM502.773 798V771.54H507.885V798H502.773ZM526.213 798V778.452H530.173V786.732H530.065C530.065 783.924 530.665 781.8 531.865 780.36C533.065 778.92 534.829 778.2 537.157 778.2H537.877V782.556H536.509C534.829 782.556 533.521 783.012 532.585 783.924C531.673 784.812 531.217 786.108 531.217 787.812V798H526.213ZM550.48 798.684C548.752 798.684 547.228 798.408 545.908 797.856C544.588 797.304 543.472 796.56 542.56 795.624C541.648 794.664 540.952 793.584 540.472 792.384C540.016 791.184 539.788 789.936 539.788 788.64V787.884C539.788 786.54 540.028 785.268 540.508 784.068C541.012 782.844 541.72 781.764 542.632 780.828C543.568 779.868 544.696 779.124 546.016 778.596C547.336 778.044 548.824 777.768 550.48 777.768C552.136 777.768 553.624 778.044 554.944 778.596C556.264 779.124 557.38 779.868 558.292 780.828C559.228 781.764 559.936 782.844 560.416 784.068C560.896 785.268 561.136 786.54 561.136 787.884V788.64C561.136 789.936 560.896 791.184 560.416 792.384C559.96 793.584 559.276 794.664 558.364 795.624C557.452 796.56 556.336 797.304 555.016 797.856C553.696 798.408 552.184 798.684 550.48 798.684ZM550.48 794.4C551.704 794.4 552.736 794.136 553.576 793.608C554.416 793.056 555.052 792.324 555.484 791.412C555.916 790.476 556.132 789.42 556.132 788.244C556.132 787.044 555.904 785.988 555.448 785.076C555.016 784.14 554.368 783.408 553.504 782.88C552.664 782.328 551.656 782.052 550.48 782.052C549.304 782.052 548.284 782.328 547.42 782.88C546.58 783.408 545.932 784.14 545.476 785.076C545.02 785.988 544.792 787.044 544.792 788.244C544.792 789.42 545.008 790.476 545.44 791.412C545.896 792.324 546.544 793.056 547.384 793.608C548.224 794.136 549.256 794.4 550.48 794.4ZM565.95 798V777.768C565.95 775.536 566.562 773.892 567.786 772.836C569.034 771.756 570.87 771.216 573.294 771.216H575.31V775.068H572.934C572.19 775.068 571.614 775.272 571.206 775.68C570.822 776.064 570.63 776.616 570.63 777.336V798H565.95ZM563.538 782.232V778.56H575.13V782.232H563.538ZM579.306 798V778.452H584.31V798H579.306ZM576.822 782.196V778.452H584.31V782.196H576.822ZM581.106 776.112C580.146 776.112 579.426 775.86 578.946 775.356C578.49 774.828 578.262 774.18 578.262 773.412C578.262 772.596 578.49 771.936 578.946 771.432C579.426 770.928 580.146 770.676 581.106 770.676C582.09 770.676 582.81 770.928 583.266 771.432C583.746 771.936 583.986 772.596 583.986 773.412C583.986 774.18 583.746 774.828 583.266 775.356C582.81 775.86 582.09 776.112 581.106 776.112ZM590.309 798V771.72H595.313V798H590.309ZM587.861 775.464V771.72H595.313V775.464H587.861ZM609.774 798.684C608.094 798.684 606.618 798.396 605.346 797.82C604.098 797.244 603.054 796.476 602.214 795.516C601.398 794.532 600.774 793.44 600.342 792.24C599.934 791.04 599.73 789.816 599.73 788.568V787.884C599.73 786.588 599.934 785.34 600.342 784.14C600.774 782.916 601.398 781.836 602.214 780.9C603.054 779.94 604.086 779.184 605.31 778.632C606.534 778.056 607.95 777.768 609.558 777.768C611.67 777.768 613.434 778.236 614.85 779.172C616.29 780.084 617.37 781.296 618.09 782.808C618.81 784.296 619.17 785.904 619.17 787.632V789.432H601.854V786.372H616.038L614.49 787.884C614.49 786.636 614.31 785.568 613.95 784.68C613.59 783.792 613.038 783.108 612.294 782.628C611.574 782.148 610.662 781.908 609.558 781.908C608.454 781.908 607.518 782.16 606.75 782.664C605.982 783.168 605.394 783.9 604.986 784.86C604.602 785.796 604.41 786.924 604.41 788.244C604.41 789.468 604.602 790.56 604.986 791.52C605.37 792.456 605.958 793.2 606.75 793.752C607.542 794.28 608.55 794.544 609.774 794.544C610.998 794.544 611.994 794.304 612.762 793.824C613.53 793.32 614.022 792.708 614.238 791.988H618.846C618.558 793.332 618.006 794.508 617.19 795.516C616.374 796.524 615.33 797.304 614.058 797.856C612.81 798.408 611.382 798.684 609.774 798.684Z" fill="white"/>
<path opacity="0.703738" d="M231.288 847.368V845.88H239.048V847.368H236.088V857H234.264V847.368H231.288ZM242.719 852.36V857H240.895V848.184H242.719V849.464C243.231 848.584 244.111 848.04 245.359 848.04V849.928H244.895C243.551 849.928 242.719 850.488 242.719 852.36ZM246.428 852.552C246.428 849.832 248.268 848.04 250.588 848.04C252.076 848.04 253.1 848.744 253.644 849.464V848.184H255.484V857H253.644V855.688C253.084 856.44 252.028 857.144 250.556 857.144C248.268 857.144 246.428 855.272 246.428 852.552ZM253.644 852.584C253.644 850.696 252.348 849.624 250.972 849.624C249.612 849.624 248.3 850.648 248.3 852.552C248.3 854.456 249.612 855.56 250.972 855.56C252.348 855.56 253.644 854.488 253.644 852.584ZM264.136 857V852.072C264.136 850.456 263.256 849.624 261.928 849.624C260.584 849.624 259.704 850.456 259.704 852.072V857H257.88V848.184H259.704V849.192C260.296 848.472 261.272 848.04 262.328 848.04C264.392 848.04 265.944 849.336 265.944 851.8V857H264.136ZM274.846 854.536C274.846 856.024 273.55 857.144 271.47 857.144C269.358 857.144 267.87 855.896 267.79 854.296H269.678C269.742 855.016 270.43 855.608 271.438 855.608C272.494 855.608 273.054 855.16 273.054 854.552C273.054 852.824 267.934 853.816 267.934 850.584C267.934 849.176 269.246 848.04 271.326 848.04C273.326 848.04 274.638 849.112 274.734 850.872H272.91C272.846 850.104 272.254 849.576 271.262 849.576C270.286 849.576 269.774 849.976 269.774 850.568C269.774 852.344 274.75 851.352 274.846 854.536ZM277.041 857V849.672H276.001V848.184H277.041V847.56C277.041 845.528 278.081 844.648 280.385 844.648V846.168C279.265 846.168 278.881 846.552 278.881 847.56V848.184H280.513V849.672H278.881V857H277.041ZM290.53 852.584C290.53 855.352 288.482 857.144 285.954 857.144C283.442 857.144 281.538 855.352 281.538 852.584C281.538 849.816 283.522 848.04 286.034 848.04C288.546 848.04 290.53 849.816 290.53 852.584ZM283.394 852.584C283.394 854.584 284.578 855.56 285.954 855.56C287.314 855.56 288.658 854.584 288.658 852.584C288.658 850.584 287.362 849.624 286.002 849.624C284.626 849.624 283.394 850.584 283.394 852.584ZM294.157 852.36V857H292.333V848.184H294.157V849.464C294.669 848.584 295.549 848.04 296.797 848.04V849.928H296.333C294.989 849.928 294.157 850.488 294.157 852.36ZM310.969 857V852.072C310.969 850.456 310.089 849.624 308.761 849.624C307.417 849.624 306.537 850.456 306.537 852.072V857H304.729V852.072C304.729 850.456 303.849 849.624 302.521 849.624C301.177 849.624 300.297 850.456 300.297 852.072V857H298.473V848.184H300.297V849.192C300.889 848.472 301.849 848.04 302.905 848.04C304.297 848.04 305.465 848.632 306.073 849.784C306.617 848.712 307.865 848.04 309.145 848.04C311.209 848.04 312.777 849.336 312.777 851.8V857H310.969ZM322.727 854.904L325.303 848.184H327.191L321.783 861.144H319.895L321.687 856.856L318.215 848.184H320.247L322.727 854.904ZM336.967 852.584C336.967 855.352 334.919 857.144 332.391 857.144C329.879 857.144 327.975 855.352 327.975 852.584C327.975 849.816 329.959 848.04 332.471 848.04C334.983 848.04 336.967 849.816 336.967 852.584ZM329.831 852.584C329.831 854.584 331.015 855.56 332.391 855.56C333.751 855.56 335.095 854.584 335.095 852.584C335.095 850.584 333.799 849.624 332.439 849.624C331.063 849.624 329.831 850.584 329.831 852.584ZM346.754 848.184V857H344.93V855.944C344.354 856.696 343.362 857.128 342.322 857.128C340.258 857.128 338.69 855.832 338.69 853.368V848.184H340.498V853.096C340.498 854.712 341.378 855.544 342.706 855.544C344.05 855.544 344.93 854.712 344.93 853.096V848.184H346.754ZM350.985 852.36V857H349.161V848.184H350.985V849.464C351.497 848.584 352.377 848.04 353.625 848.04V849.928H353.161C351.817 849.928 350.985 850.488 350.985 852.36ZM360.386 847.016C359.73 847.016 359.218 846.504 359.218 845.848C359.218 845.192 359.73 844.68 360.386 844.68C361.026 844.68 361.538 845.192 361.538 845.848C361.538 846.504 361.026 847.016 360.386 847.016ZM359.458 848.184H361.282V858.728C361.282 860.52 360.322 861.192 358.754 861.192H357.81V859.656H358.434C359.202 859.656 359.458 859.384 359.458 858.728V848.184ZM372.077 852.584C372.077 855.352 370.029 857.144 367.501 857.144C364.989 857.144 363.085 855.352 363.085 852.584C363.085 849.816 365.069 848.04 367.581 848.04C370.093 848.04 372.077 849.816 372.077 852.584ZM364.941 852.584C364.941 854.584 366.125 855.56 367.501 855.56C368.861 855.56 370.205 854.584 370.205 852.584C370.205 850.584 368.909 849.624 367.549 849.624C366.173 849.624 364.941 850.584 364.941 852.584ZM375.704 849.496C376.28 848.696 377.384 848.04 378.776 848.04C381.112 848.04 382.92 849.832 382.92 852.552C382.92 855.272 381.096 857.144 378.776 857.144C377.32 857.144 376.28 856.488 375.704 855.72V857H373.88V845.16H375.704V849.496ZM381.064 852.552C381.064 850.648 379.752 849.624 378.376 849.624C377.016 849.624 375.704 850.696 375.704 852.584C375.704 854.488 377.016 855.56 378.376 855.56C379.752 855.56 381.064 854.456 381.064 852.552ZM395.456 854.536C395.456 856.024 394.16 857.144 392.08 857.144C389.968 857.144 388.48 855.896 388.4 854.296H390.288C390.352 855.016 391.04 855.608 392.048 855.608C393.104 855.608 393.664 855.16 393.664 854.552C393.664 852.824 388.544 853.816 388.544 850.584C388.544 849.176 389.856 848.04 391.936 848.04C393.936 848.04 395.248 849.112 395.344 850.872H393.52C393.456 850.104 392.864 849.576 391.872 849.576C390.896 849.576 390.384 849.976 390.384 850.568C390.384 852.344 395.36 851.352 395.456 854.536ZM401.139 849.576C399.907 849.576 398.915 850.408 398.723 851.8H403.603C403.571 850.44 402.499 849.576 401.139 849.576ZM405.267 854.376C404.771 855.912 403.379 857.144 401.219 857.144C398.691 857.144 396.819 855.352 396.819 852.584C396.819 849.816 398.611 848.04 401.219 848.04C403.731 848.04 405.507 849.784 405.507 852.376C405.507 852.68 405.491 852.968 405.443 853.272H398.707C398.835 854.728 399.875 855.608 401.219 855.608C402.339 855.608 402.963 855.064 403.299 854.376H405.267ZM406.694 852.552C406.694 849.832 408.534 848.04 410.854 848.04C412.342 848.04 413.366 848.744 413.91 849.464V848.184H415.75V857H413.91V855.688C413.35 856.44 412.294 857.144 410.822 857.144C408.534 857.144 406.694 855.272 406.694 852.552ZM413.91 852.584C413.91 850.696 412.614 849.624 411.238 849.624C409.878 849.624 408.566 850.648 408.566 852.552C408.566 854.456 409.878 855.56 411.238 855.56C412.614 855.56 413.91 854.488 413.91 852.584ZM419.969 852.36V857H418.145V848.184H419.969V849.464C420.481 848.584 421.361 848.04 422.609 848.04V849.928H422.145C420.801 849.928 419.969 850.488 419.969 852.36ZM423.678 852.584C423.678 849.832 425.47 848.04 427.998 848.04C430.158 848.04 431.566 849.112 432.062 850.968H430.094C429.79 850.12 429.086 849.576 427.998 849.576C426.526 849.576 425.55 850.664 425.55 852.584C425.55 854.52 426.526 855.608 427.998 855.608C429.086 855.608 429.758 855.128 430.094 854.216H432.062C431.566 855.944 430.158 857.144 427.998 857.144C425.47 857.144 423.678 855.352 423.678 852.584ZM433.88 857V845.16H435.704V849.208C436.312 848.472 437.304 848.04 438.44 848.04C440.408 848.04 441.944 849.336 441.944 851.8V857H440.136V852.072C440.136 850.456 439.256 849.624 437.928 849.624C436.584 849.624 435.704 850.456 435.704 852.072V857H433.88ZM450.139 857L447.387 848.184H449.243L451.083 855.272L452.955 848.184H454.859L456.651 855.24L458.475 848.184H460.267L457.531 857H455.611L453.835 850.488L452.059 857H450.139ZM461.63 857V848.184H463.454V857H461.63ZM462.558 847.016C461.902 847.016 461.39 846.504 461.39 845.848C461.39 845.192 461.902 844.68 462.558 844.68C463.198 844.68 463.71 845.192 463.71 845.848C463.71 846.504 463.198 847.016 462.558 847.016ZM466.136 854.552V849.672H465.096V848.184H466.136V845.992H467.976V848.184H470.12V849.672H467.976V854.552C467.976 855.208 468.232 855.48 469 855.48H470.12V857H468.68C467.112 857 466.136 856.344 466.136 854.552ZM471.802 857V845.16H473.626V849.208C474.234 848.472 475.226 848.04 476.362 848.04C478.33 848.04 479.866 849.336 479.866 851.8V857H478.058V852.072C478.058 850.456 477.178 849.624 475.85 849.624C474.506 849.624 473.626 850.456 473.626 852.072V857H471.802ZM494.748 852.584C494.748 855.352 492.7 857.144 490.172 857.144C487.66 857.144 485.756 855.352 485.756 852.584C485.756 849.816 487.74 848.04 490.252 848.04C492.764 848.04 494.748 849.816 494.748 852.584ZM487.612 852.584C487.612 854.584 488.796 855.56 490.172 855.56C491.532 855.56 492.876 854.584 492.876 852.584C492.876 850.584 491.58 849.624 490.22 849.624C488.844 849.624 487.612 850.584 487.612 852.584ZM504.536 848.184V857H502.712V855.944C502.136 856.696 501.144 857.128 500.104 857.128C498.04 857.128 496.472 855.832 496.472 853.368V848.184H498.28V853.096C498.28 854.712 499.16 855.544 500.488 855.544C501.832 855.544 502.712 854.712 502.712 853.096V848.184H504.536ZM508.766 852.36V857H506.942V848.184H508.766V849.464C509.278 848.584 510.158 848.04 511.406 848.04V849.928H510.942C509.598 849.928 508.766 850.488 508.766 852.36ZM524.743 857L523.943 854.728H519.287L518.487 857H516.583L520.567 845.864H522.679L526.663 857H524.743ZM523.431 853.24L521.623 848.072L519.799 853.24H523.431ZM528.395 857V845.88H530.219V857H528.395ZM534.502 855.944C534.502 856.6 533.99 857.112 533.35 857.112C532.694 857.112 532.182 856.6 532.182 855.944C532.182 855.288 532.694 854.776 533.35 854.776C533.99 854.776 534.502 855.288 534.502 855.944ZM534.502 849.224C534.502 849.88 533.99 850.392 533.35 850.392C532.694 850.392 532.182 849.88 532.182 849.224C532.182 848.568 532.694 848.056 533.35 848.056C533.99 848.056 534.502 848.568 534.502 849.224ZM151.787 873.576C150.555 873.576 149.563 874.408 149.371 875.8H154.251C154.219 874.44 153.147 873.576 151.787 873.576ZM155.915 878.376C155.419 879.912 154.027 881.144 151.867 881.144C149.339 881.144 147.467 879.352 147.467 876.584C147.467 873.816 149.259 872.04 151.867 872.04C154.379 872.04 156.155 873.784 156.155 876.376C156.155 876.68 156.139 876.968 156.091 877.272H149.355C149.483 878.728 150.523 879.608 151.867 879.608C152.987 879.608 153.611 879.064 153.947 878.376H155.915ZM158.174 881V873.672H157.134V872.184H158.174V871.56C158.174 869.528 159.214 868.648 161.518 868.648V870.168C160.398 870.168 160.014 870.552 160.014 871.56V872.184H161.646V873.672H160.014V881H158.174ZM163.487 881V873.672H162.447V872.184H163.487V871.56C163.487 869.528 164.527 868.648 166.831 868.648V870.168C165.711 870.168 165.327 870.552 165.327 871.56V872.184H166.959V873.672H165.327V881H163.487ZM168.575 881V872.184H170.399V881H168.575ZM169.503 871.016C168.847 871.016 168.335 870.504 168.335 869.848C168.335 869.192 168.847 868.68 169.503 868.68C170.143 868.68 170.655 869.192 170.655 869.848C170.655 870.504 170.143 871.016 169.503 871.016ZM172.186 876.584C172.186 873.832 173.978 872.04 176.506 872.04C178.666 872.04 180.074 873.112 180.57 874.968H178.602C178.298 874.12 177.594 873.576 176.506 873.576C175.034 873.576 174.058 874.664 174.058 876.584C174.058 878.52 175.034 879.608 176.506 879.608C177.594 879.608 178.266 879.128 178.602 878.216H180.57C180.074 879.944 178.666 881.144 176.506 881.144C173.978 881.144 172.186 879.352 172.186 876.584ZM182.388 881V872.184H184.212V881H182.388ZM183.316 871.016C182.66 871.016 182.148 870.504 182.148 869.848C182.148 869.192 182.66 868.68 183.316 868.68C183.956 868.68 184.468 869.192 184.468 869.848C184.468 870.504 183.956 871.016 183.316 871.016ZM190.318 873.576C189.086 873.576 188.094 874.408 187.902 875.8H192.782C192.75 874.44 191.678 873.576 190.318 873.576ZM194.446 878.376C193.95 879.912 192.558 881.144 190.398 881.144C187.87 881.144 185.998 879.352 185.998 876.584C185.998 873.816 187.79 872.04 190.398 872.04C192.91 872.04 194.686 873.784 194.686 876.376C194.686 876.68 194.67 876.968 194.622 877.272H187.886C188.014 878.728 189.054 879.608 190.398 879.608C191.518 879.608 192.142 879.064 192.478 878.376H194.446ZM202.737 881V876.072C202.737 874.456 201.857 873.624 200.529 873.624C199.185 873.624 198.305 874.456 198.305 876.072V881H196.481V872.184H198.305V873.192C198.897 872.472 199.873 872.04 200.929 872.04C202.993 872.04 204.545 873.336 204.545 875.8V881H202.737ZM207.16 878.552V873.672H206.12V872.184H207.16V869.992H209V872.184H211.144V873.672H209V878.552C209 879.208 209.256 879.48 210.024 879.48H211.144V881H209.704C208.136 881 207.16 880.344 207.16 878.552ZM211.705 883.224L212.841 878.808H214.825L212.889 883.224H211.705ZM222.399 873.48C222.959 872.744 224.031 872.04 225.471 872.04C227.791 872.04 229.615 873.832 229.615 876.552C229.615 879.272 227.791 881.144 225.471 881.144C224.015 881.144 222.975 880.408 222.399 879.72V885.192H220.575V872.184H222.399V873.48ZM227.759 876.552C227.759 874.648 226.447 873.624 225.071 873.624C223.711 873.624 222.399 874.696 222.399 876.584C222.399 878.488 223.711 879.56 225.071 879.56C226.447 879.56 227.759 878.456 227.759 876.552ZM233.243 876.36V881H231.419V872.184H233.243V873.464C233.755 872.584 234.635 872.04 235.883 872.04V873.928H235.419C234.075 873.928 233.243 874.488 233.243 876.36ZM245.959 876.584C245.959 879.352 243.911 881.144 241.383 881.144C238.871 881.144 236.967 879.352 236.967 876.584C236.967 873.816 238.951 872.04 241.463 872.04C243.975 872.04 245.959 873.816 245.959 876.584ZM238.823 876.584C238.823 878.584 240.007 879.56 241.383 879.56C242.743 879.56 244.087 878.584 244.087 876.584C244.087 874.584 242.791 873.624 241.431 873.624C240.055 873.624 238.823 874.584 238.823 876.584ZM247.987 881V873.672H246.947V872.184H247.987V871.56C247.987 869.528 249.027 868.648 251.331 868.648V870.168C250.211 870.168 249.827 870.552 249.827 871.56V872.184H251.459V873.672H249.827V881H247.987ZM256.787 873.576C255.555 873.576 254.563 874.408 254.371 875.8H259.251C259.219 874.44 258.147 873.576 256.787 873.576ZM260.915 878.376C260.419 879.912 259.027 881.144 256.867 881.144C254.339 881.144 252.467 879.352 252.467 876.584C252.467 873.816 254.259 872.04 256.867 872.04C259.379 872.04 261.155 873.784 261.155 876.376C261.155 876.68 261.139 876.968 261.091 877.272H254.355C254.483 878.728 255.523 879.608 256.867 879.608C257.987 879.608 258.611 879.064 258.947 878.376H260.915ZM269.526 878.536C269.526 880.024 268.23 881.144 266.15 881.144C264.038 881.144 262.55 879.896 262.47 878.296H264.358C264.422 879.016 265.11 879.608 266.118 879.608C267.174 879.608 267.734 879.16 267.734 878.552C267.734 876.824 262.614 877.816 262.614 874.584C262.614 873.176 263.926 872.04 266.006 872.04C268.006 872.04 269.318 873.112 269.414 874.872H267.59C267.526 874.104 266.934 873.576 265.942 873.576C264.966 873.576 264.454 873.976 264.454 874.568C264.454 876.344 269.43 875.352 269.526 878.536ZM278.073 878.536C278.073 880.024 276.777 881.144 274.697 881.144C272.585 881.144 271.097 879.896 271.017 878.296H272.905C272.969 879.016 273.657 879.608 274.665 879.608C275.721 879.608 276.281 879.16 276.281 878.552C276.281 876.824 271.161 877.816 271.161 874.584C271.161 873.176 272.473 872.04 274.553 872.04C276.553 872.04 277.865 873.112 277.961 874.872H276.137C276.073 874.104 275.481 873.576 274.489 873.576C273.513 873.576 273.001 873.976 273.001 874.568C273.001 876.344 277.977 875.352 278.073 878.536ZM280.044 881V872.184H281.868V881H280.044ZM280.972 871.016C280.316 871.016 279.804 870.504 279.804 869.848C279.804 869.192 280.316 868.68 280.972 868.68C281.612 868.68 282.124 869.192 282.124 869.848C282.124 870.504 281.612 871.016 280.972 871.016ZM292.663 876.584C292.663 879.352 290.615 881.144 288.087 881.144C285.575 881.144 283.671 879.352 283.671 876.584C283.671 873.816 285.655 872.04 288.167 872.04C290.679 872.04 292.663 873.816 292.663 876.584ZM285.527 876.584C285.527 878.584 286.711 879.56 288.087 879.56C289.447 879.56 290.791 878.584 290.791 876.584C290.791 874.584 289.495 873.624 288.135 873.624C286.759 873.624 285.527 874.584 285.527 876.584ZM300.722 881V876.072C300.722 874.456 299.842 873.624 298.514 873.624C297.17 873.624 296.29 874.456 296.29 876.072V881H294.466V872.184H296.29V873.192C296.882 872.472 297.858 872.04 298.914 872.04C300.978 872.04 302.53 873.336 302.53 875.8V881H300.722ZM304.248 876.552C304.248 873.832 306.088 872.04 308.408 872.04C309.896 872.04 310.92 872.744 311.464 873.464V872.184H313.304V881H311.464V879.688C310.904 880.44 309.848 881.144 308.376 881.144C306.088 881.144 304.248 879.272 304.248 876.552ZM311.464 876.584C311.464 874.696 310.168 873.624 308.792 873.624C307.432 873.624 306.12 874.648 306.12 876.552C306.12 878.456 307.432 879.56 308.792 879.56C310.168 879.56 311.464 878.488 311.464 876.584ZM315.7 881V869.16H317.524V881H315.7ZM318.799 883.224L319.935 878.808H321.919L319.983 883.224H318.799ZM327.061 876.552C327.061 873.832 328.901 872.04 331.221 872.04C332.709 872.04 333.733 872.744 334.277 873.464V872.184H336.117V881H334.277V879.688C333.717 880.44 332.661 881.144 331.189 881.144C328.901 881.144 327.061 879.272 327.061 876.552ZM334.277 876.584C334.277 874.696 332.981 873.624 331.605 873.624C330.245 873.624 328.933 874.648 328.933 876.552C328.933 878.456 330.245 879.56 331.605 879.56C332.981 879.56 334.277 878.488 334.277 876.584ZM344.769 881V876.072C344.769 874.456 343.889 873.624 342.561 873.624C341.217 873.624 340.337 874.456 340.337 876.072V881H338.513V872.184H340.337V873.192C340.929 872.472 341.905 872.04 342.961 872.04C345.025 872.04 346.577 873.336 346.577 875.8V881H344.769ZM348.295 876.552C348.295 873.832 350.135 872.04 352.471 872.04C353.623 872.04 354.839 872.584 355.511 873.416V869.16H357.351V881H355.511V879.672C354.951 880.472 353.895 881.144 352.455 881.144C350.135 881.144 348.295 879.272 348.295 876.552ZM355.511 876.584C355.511 874.696 354.215 873.624 352.839 873.624C351.479 873.624 350.167 874.648 350.167 876.552C350.167 878.456 351.479 879.56 352.839 879.56C354.215 879.56 355.511 878.488 355.511 876.584ZM365.727 873.496C366.303 872.696 367.407 872.04 368.799 872.04C371.135 872.04 372.943 873.832 372.943 876.552C372.943 879.272 371.119 881.144 368.799 881.144C367.343 881.144 366.303 880.488 365.727 879.72V881H363.903V869.16H365.727V873.496ZM371.087 876.552C371.087 874.648 369.775 873.624 368.399 873.624C367.039 873.624 365.727 874.696 365.727 876.584C365.727 878.488 367.039 879.56 368.399 879.56C369.775 879.56 371.087 878.456 371.087 876.552ZM382.731 872.184V881H380.907V879.944C380.331 880.696 379.339 881.128 378.299 881.128C376.235 881.128 374.667 879.832 374.667 877.368V872.184H376.475V877.096C376.475 878.712 377.355 879.544 378.683 879.544C380.027 879.544 380.907 878.712 380.907 877.096V872.184H382.731ZM385.138 881V872.184H386.962V881H385.138ZM386.066 871.016C385.41 871.016 384.898 870.504 384.898 869.848C384.898 869.192 385.41 868.68 386.066 868.68C386.706 868.68 387.218 869.192 387.218 869.848C387.218 870.504 386.706 871.016 386.066 871.016ZM389.356 881V869.16H391.18V881H389.356ZM393.863 878.552V873.672H392.823V872.184H393.863V869.992H395.703V872.184H397.847V873.672H395.703V878.552C395.703 879.208 395.959 879.48 396.727 879.48H397.847V881H396.407C394.839 881 393.863 880.344 393.863 878.552ZM403.972 878.552V873.672H402.932V872.184H403.972V869.992H405.812V872.184H407.956V873.672H405.812V878.552C405.812 879.208 406.068 879.48 406.836 879.48H407.956V881H406.516C404.948 881 403.972 880.344 403.972 878.552ZM418.038 876.584C418.038 879.352 415.99 881.144 413.462 881.144C410.95 881.144 409.046 879.352 409.046 876.584C409.046 873.816 411.03 872.04 413.542 872.04C416.054 872.04 418.038 873.816 418.038 876.584ZM410.902 876.584C410.902 878.584 412.086 879.56 413.462 879.56C414.822 879.56 416.166 878.584 416.166 876.584C416.166 874.584 414.87 873.624 413.51 873.624C412.134 873.624 410.902 874.584 410.902 876.584ZM423.997 881V869.16H425.821V873.208C426.429 872.472 427.421 872.04 428.557 872.04C430.525 872.04 432.061 873.336 432.061 875.8V881H430.253V876.072C430.253 874.456 429.373 873.624 428.045 873.624C426.701 873.624 425.821 874.456 425.821 876.072V881H423.997ZM434.388 881V872.184H436.212V881H434.388ZM435.316 871.016C434.66 871.016 434.148 870.504 434.148 869.848C434.148 869.192 434.66 868.68 435.316 868.68C435.956 868.68 436.468 869.192 436.468 869.848C436.468 870.504 435.956 871.016 435.316 871.016ZM437.998 876.552C437.998 873.832 439.838 872.04 442.158 872.04C443.598 872.04 444.67 872.712 445.214 873.464V872.184H447.054V881.144C447.054 883.544 445.502 885.352 442.75 885.352C440.398 885.352 438.654 884.184 438.43 882.232H440.238C440.51 883.144 441.486 883.768 442.75 883.768C444.158 883.768 445.214 882.904 445.214 881.144V879.672C444.654 880.424 443.598 881.144 442.158 881.144C439.838 881.144 437.998 879.272 437.998 876.552ZM445.214 876.584C445.214 874.696 443.918 873.624 442.542 873.624C441.182 873.624 439.87 874.648 439.87 876.552C439.87 878.456 441.182 879.56 442.542 879.56C443.918 879.56 445.214 878.488 445.214 876.584ZM449.45 881V869.16H451.274V873.208C451.882 872.472 452.874 872.04 454.01 872.04C455.978 872.04 457.514 873.336 457.514 875.8V881H455.706V876.072C455.706 874.456 454.826 873.624 453.498 873.624C452.154 873.624 451.274 874.456 451.274 876.072V881H449.45ZM459.841 881V869.16H461.665V881H459.841ZM464.059 881V872.184H465.883V881H464.059ZM464.987 871.016C464.331 871.016 463.819 870.504 463.819 869.848C463.819 869.192 464.331 868.68 464.987 868.68C465.627 868.68 466.139 869.192 466.139 869.848C466.139 870.504 465.627 871.016 464.987 871.016ZM467.67 876.552C467.67 873.832 469.51 872.04 471.83 872.04C473.27 872.04 474.342 872.712 474.886 873.464V872.184H476.726V881.144C476.726 883.544 475.174 885.352 472.422 885.352C470.07 885.352 468.326 884.184 468.102 882.232H469.91C470.182 883.144 471.158 883.768 472.422 883.768C473.83 883.768 474.886 882.904 474.886 881.144V879.672C474.326 880.424 473.27 881.144 471.83 881.144C469.51 881.144 467.67 879.272 467.67 876.552ZM474.886 876.584C474.886 874.696 473.59 873.624 472.214 873.624C470.854 873.624 469.542 874.648 469.542 876.552C469.542 878.456 470.854 879.56 472.214 879.56C473.59 879.56 474.886 878.488 474.886 876.584ZM479.122 881V869.16H480.946V873.208C481.554 872.472 482.546 872.04 483.682 872.04C485.65 872.04 487.186 873.336 487.186 875.8V881H485.378V876.072C485.378 874.456 484.498 873.624 483.17 873.624C481.826 873.624 480.946 874.456 480.946 876.072V881H479.122ZM489.801 878.552V873.672H488.761V872.184H489.801V869.992H491.641V872.184H493.785V873.672H491.641V878.552C491.641 879.208 491.897 879.48 492.665 879.48H493.785V881H492.345C490.777 881 489.801 880.344 489.801 878.552ZM503.094 878.904L505.67 872.184H507.558L502.15 885.144H500.262L502.054 880.856L498.582 872.184H500.614L503.094 878.904ZM517.334 876.584C517.334 879.352 515.286 881.144 512.758 881.144C510.246 881.144 508.342 879.352 508.342 876.584C508.342 873.816 510.326 872.04 512.838 872.04C515.35 872.04 517.334 873.816 517.334 876.584ZM510.198 876.584C510.198 878.584 511.382 879.56 512.758 879.56C514.118 879.56 515.462 878.584 515.462 876.584C515.462 874.584 514.166 873.624 512.806 873.624C511.43 873.624 510.198 874.584 510.198 876.584ZM527.122 872.184V881H525.298V879.944C524.722 880.696 523.73 881.128 522.69 881.128C520.626 881.128 519.058 879.832 519.058 877.368V872.184H520.866V877.096C520.866 878.712 521.746 879.544 523.074 879.544C524.418 879.544 525.298 878.712 525.298 877.096V872.184H527.122ZM531.352 876.36V881H529.528V872.184H531.352V873.464C531.864 872.584 532.744 872.04 533.992 872.04V873.928H533.528C532.184 873.928 531.352 874.488 531.352 876.36ZM546.401 878.536C546.401 880.024 545.105 881.144 543.025 881.144C540.913 881.144 539.425 879.896 539.345 878.296H541.233C541.297 879.016 541.985 879.608 542.993 879.608C544.049 879.608 544.609 879.16 544.609 878.552C544.609 876.824 539.489 877.816 539.489 874.584C539.489 873.176 540.801 872.04 542.881 872.04C544.881 872.04 546.193 873.112 546.289 874.872H544.465C544.401 874.104 543.809 873.576 542.817 873.576C541.841 873.576 541.329 873.976 541.329 874.568C541.329 876.344 546.305 875.352 546.401 878.536ZM548.66 878.552V873.672H547.62V872.184H548.66V869.992H550.5V872.184H552.644V873.672H550.5V878.552C550.5 879.208 550.756 879.48 551.524 879.48H552.644V881H551.204C549.636 881 548.66 880.344 548.66 878.552ZM556.149 876.36V881H554.325V872.184H556.149V873.464C556.661 872.584 557.541 872.04 558.789 872.04V873.928H558.325C556.981 873.928 556.149 874.488 556.149 876.36ZM564.178 873.576C562.946 873.576 561.954 874.408 561.762 875.8H566.642C566.61 874.44 565.538 873.576 564.178 873.576ZM568.306 878.376C567.81 879.912 566.418 881.144 564.258 881.144C561.73 881.144 559.858 879.352 559.858 876.584C559.858 873.816 561.65 872.04 564.258 872.04C566.77 872.04 568.546 873.784 568.546 876.376C568.546 876.68 568.53 876.968 568.482 877.272H561.746C561.874 878.728 562.914 879.608 564.258 879.608C565.378 879.608 566.002 879.064 566.338 878.376H568.306ZM576.597 881V876.072C576.597 874.456 575.717 873.624 574.389 873.624C573.045 873.624 572.165 874.456 572.165 876.072V881H570.341V872.184H572.165V873.192C572.757 872.472 573.733 872.04 574.789 872.04C576.853 872.04 578.405 873.336 578.405 875.8V881H576.597ZM580.123 876.552C580.123 873.832 581.963 872.04 584.283 872.04C585.723 872.04 586.795 872.712 587.339 873.464V872.184H589.179V881.144C589.179 883.544 587.627 885.352 584.875 885.352C582.523 885.352 580.779 884.184 580.555 882.232H582.363C582.635 883.144 583.611 883.768 584.875 883.768C586.283 883.768 587.339 882.904 587.339 881.144V879.672C586.779 880.424 585.723 881.144 584.283 881.144C581.963 881.144 580.123 879.272 580.123 876.552ZM587.339 876.584C587.339 874.696 586.043 873.624 584.667 873.624C583.307 873.624 581.995 874.648 581.995 876.552C581.995 878.456 583.307 879.56 584.667 879.56C586.043 879.56 587.339 878.488 587.339 876.584ZM591.863 878.552V873.672H590.823V872.184H591.863V869.992H593.703V872.184H595.847V873.672H593.703V878.552C593.703 879.208 593.959 879.48 594.727 879.48H595.847V881H594.407C592.839 881 591.863 880.344 591.863 878.552ZM597.528 881V869.16H599.352V873.208C599.96 872.472 600.952 872.04 602.088 872.04C604.056 872.04 605.592 873.336 605.592 875.8V881H603.784V876.072C603.784 874.456 602.904 873.624 601.576 873.624C600.232 873.624 599.352 874.456 599.352 876.072V881H597.528ZM614.495 878.536C614.495 880.024 613.199 881.144 611.119 881.144C609.007 881.144 607.519 879.896 607.439 878.296H609.327C609.391 879.016 610.079 879.608 611.087 879.608C612.143 879.608 612.703 879.16 612.703 878.552C612.703 876.824 607.583 877.816 607.583 874.584C607.583 873.176 608.895 872.04 610.975 872.04C612.975 872.04 614.287 873.112 614.383 874.872H612.559C612.495 874.104 611.903 873.576 610.911 873.576C609.935 873.576 609.423 873.976 609.423 874.568C609.423 876.344 614.399 875.352 614.495 878.536ZM618.354 879.944C618.354 880.6 617.842 881.112 617.202 881.112C616.546 881.112 616.034 880.6 616.034 879.944C616.034 879.288 616.546 878.776 617.202 878.776C617.842 878.776 618.354 879.288 618.354 879.944Z" fill="white"/>
<defs>
<linearGradient id="paint0_linear_2742_7761" x1="322.913" y1="11" x2="370.081" y2="982.336" gradientUnits="userSpaceOnUse">
<stop offset="0.574988" stop-color="#297AC0"/>
<stop offset="1" stop-color="#13395A"/>
</linearGradient>
<linearGradient id="paint1_linear_2742_7761" x1="377" y1="542.232" x2="377" y2="773" gradientUnits="userSpaceOnUse">
<stop offset="0.283531" stop-color="white"/>
<stop offset="1" stop-color="#737373" stop-opacity="0"/>
</linearGradient>
<linearGradient id="paint2_linear_2742_7761" x1="392.953" y1="361.2" x2="395.561" y2="465.573" gradientUnits="userSpaceOnUse">
<stop offset="0.329238" stop-color="white"/>
<stop offset="1" stop-color="#999999" stop-opacity="0"/>
</linearGradient>
<linearGradient id="paint3_linear_2742_7761" x1="387.861" y1="425.86" x2="387.861" y2="640.698" gradientUnits="userSpaceOnUse">
<stop offset="0.242159" stop-color="#FFE559"/>
<stop offset="1" stop-color="#FFF9DB"/>
</linearGradient>
<linearGradient id="paint4_linear_2742_7761" x1="387.428" y1="433.466" x2="387.428" y2="418.777" gradientUnits="userSpaceOnUse">
<stop stop-color="#434343"/>
<stop offset="1" stop-color="#A9A9A9"/>
</linearGradient>
<linearGradient id="paint5_linear_2742_7761" x1="387.428" y1="433.466" x2="387.428" y2="418.777" gradientUnits="userSpaceOnUse">
<stop stop-color="#434343"/>
<stop offset="1" stop-color="#A9A9A9"/>
</linearGradient>
<linearGradient id="paint6_linear_2742_7761" x1="35.2733" y1="7.75923e-08" x2="37.8737" y2="104.204" gradientUnits="userSpaceOnUse">
<stop offset="0.0283309" stop-color="white"/>
<stop offset="1" stop-color="#999999" stop-opacity="0"/>
</linearGradient>
<linearGradient id="paint7_linear_2742_7761" x1="260.01" y1="200.13" x2="263.336" y2="333.26" gradientUnits="userSpaceOnUse">
<stop offset="0.0283309" stop-color="white"/>
<stop offset="1" stop-color="#999999" stop-opacity="0"/>
</linearGradient>
<linearGradient id="paint8_linear_2742_7761" x1="398.832" y1="252.822" x2="401.44" y2="357.195" gradientUnits="userSpaceOnUse">
<stop offset="0.0283309" stop-color="white"/>
<stop offset="1" stop-color="#999999" stop-opacity="0"/>
</linearGradient>
<linearGradient id="paint9_linear_2742_7761" x1="484.873" y1="150" x2="487.939" y2="272.747" gradientUnits="userSpaceOnUse">
<stop offset="0.0283309" stop-color="white"/>
<stop offset="1" stop-color="#999999" stop-opacity="0"/>
</linearGradient>
<clipPath id="clip0_2742_7761">
<rect width="302" height="267" fill="white" transform="translate(236.861 411)"/>
</clipPath>
</defs>
</svg>
