<svg width="21" height="20" viewBox="0 0 21 20" fill="none" xmlns="http://www.w3.org/2000/svg">
<g clip-path="url(#clip0_2024_30741)">
<path d="M2.16667 9.16667H11.3333C11.7754 9.16667 12.1993 8.99107 12.5118 8.67851C12.8244 8.36595 13 7.94203 13 7.5V1.66667C13 1.22464 12.8244 0.800716 12.5118 0.488155C12.1993 0.175595 11.7754 0 11.3333 0L2.16667 0C1.72464 0 1.30072 0.175595 0.988155 0.488155C0.675595 0.800716 0.5 1.22464 0.5 1.66667L0.5 7.5C0.5 7.94203 0.675595 8.36595 0.988155 8.67851C1.30072 8.99107 1.72464 9.16667 2.16667 9.16667ZM2.16667 1.66667H11.3333V7.5H2.16667V1.66667Z" fill="#FFE458"/>
<path d="M18.8334 0H16.3334C15.8914 0 15.4675 0.175595 15.1549 0.488155C14.8423 0.800716 14.6667 1.22464 14.6667 1.66667V7.5C14.6667 7.94203 14.8423 8.36595 15.1549 8.67851C15.4675 8.99107 15.8914 9.16667 16.3334 9.16667H18.8334C19.2754 9.16667 19.6994 8.99107 20.0119 8.67851C20.3245 8.36595 20.5001 7.94203 20.5001 7.5V1.66667C20.5001 1.22464 20.3245 0.800716 20.0119 0.488155C19.6994 0.175595 19.2754 0 18.8334 0V0ZM18.8334 7.5H16.3334V1.66667H18.8334V7.5Z" fill="#FFE458"/>
<path d="M4.66667 10.832H2.16667C1.72464 10.832 1.30072 11.0076 0.988155 11.3202C0.675595 11.6327 0.5 12.0567 0.5 12.4987L0.5 18.332C0.5 18.774 0.675595 19.198 0.988155 19.5105C1.30072 19.8231 1.72464 19.9987 2.16667 19.9987H4.66667C5.10869 19.9987 5.53262 19.8231 5.84518 19.5105C6.15774 19.198 6.33333 18.774 6.33333 18.332V12.4987C6.33333 12.0567 6.15774 11.6327 5.84518 11.3202C5.53262 11.0076 5.10869 10.832 4.66667 10.832ZM4.66667 18.332H2.16667V12.4987H4.66667V18.332Z" fill="#FFE458"/>
<path d="M18.8333 10.832H9.66667C9.22464 10.832 8.80072 11.0076 8.48816 11.3202C8.1756 11.6327 8 12.0567 8 12.4987V18.332C8 18.774 8.1756 19.198 8.48816 19.5105C8.80072 19.8231 9.22464 19.9987 9.66667 19.9987H18.8333C19.2754 19.9987 19.6993 19.8231 20.0118 19.5105C20.3244 19.198 20.5 18.774 20.5 18.332V12.4987C20.5 12.0567 20.3244 11.6327 20.0118 11.3202C19.6993 11.0076 19.2754 10.832 18.8333 10.832ZM18.8333 18.332H9.66667V12.4987H18.8333V18.332Z" fill="#FFE458"/>
</g>
<defs>
<clipPath id="clip0_2024_30741">
<rect width="20" height="20" fill="white" transform="translate(0.5)"/>
</clipPath>
</defs>
</svg>
