<svg width="21" height="20" viewBox="0 0 21 20" fill="none" xmlns="http://www.w3.org/2000/svg">
<g clip-path="url(#clip0_1541_3808)">
<path d="M2.16667 9.16667H11.3333C11.7754 9.16667 12.1993 8.99107 12.5118 8.67851C12.8244 8.36595 13 7.94203 13 7.5V1.66667C13 1.22464 12.8244 0.800716 12.5118 0.488155C12.1993 0.175595 11.7754 0 11.3333 0L2.16667 0C1.72464 0 1.30072 0.175595 0.988155 0.488155C0.675595 0.800716 0.5 1.22464 0.5 1.66667L0.5 7.5C0.5 7.94203 0.675595 8.36595 0.988155 8.67851C1.30072 8.99107 1.72464 9.16667 2.16667 9.16667ZM2.16667 1.66667H11.3333V7.5H2.16667V1.66667Z" fill="#9197B3"/>
<path d="M18.8334 0H16.3334C15.8914 0 15.4675 0.175595 15.1549 0.488155C14.8423 0.800716 14.6667 1.22464 14.6667 1.66667V7.5C14.6667 7.94203 14.8423 8.36595 15.1549 8.67851C15.4675 8.99107 15.8914 9.16667 16.3334 9.16667H18.8334C19.2754 9.16667 19.6994 8.99107 20.0119 8.67851C20.3245 8.36595 20.5001 7.94203 20.5001 7.5V1.66667C20.5001 1.22464 20.3245 0.800716 20.0119 0.488155C19.6994 0.175595 19.2754 0 18.8334 0V0ZM18.8334 7.5H16.3334V1.66667H18.8334V7.5Z" fill="#9197B3"/>
<path d="M4.66667 10.8335H2.16667C1.72464 10.8335 1.30072 11.0091 0.988155 11.3217C0.675595 11.6342 0.5 12.0581 0.5 12.5002L0.5 18.3335C0.5 18.7755 0.675595 19.1994 0.988155 19.512C1.30072 19.8246 1.72464 20.0001 2.16667 20.0001H4.66667C5.10869 20.0001 5.53262 19.8246 5.84518 19.512C6.15774 19.1994 6.33333 18.7755 6.33333 18.3335V12.5002C6.33333 12.0581 6.15774 11.6342 5.84518 11.3217C5.53262 11.0091 5.10869 10.8335 4.66667 10.8335ZM4.66667 18.3335H2.16667V12.5002H4.66667V18.3335Z" fill="#9197B3"/>
<path d="M18.8333 10.8335H9.66667C9.22464 10.8335 8.80072 11.0091 8.48816 11.3217C8.1756 11.6342 8 12.0581 8 12.5002V18.3335C8 18.7755 8.1756 19.1994 8.48816 19.512C8.80072 19.8246 9.22464 20.0001 9.66667 20.0001H18.8333C19.2754 20.0001 19.6993 19.8246 20.0118 19.512C20.3244 19.1994 20.5 18.7755 20.5 18.3335V12.5002C20.5 12.0581 20.3244 11.6342 20.0118 11.3217C19.6993 11.0091 19.2754 10.8335 18.8333 10.8335ZM18.8333 18.3335H9.66667V12.5002H18.8333V18.3335Z" fill="#9197B3"/>
</g>
<defs>
<clipPath id="clip0_1541_3808">
<rect width="20" height="20" fill="white" transform="translate(0.5)"/>
</clipPath>
</defs>
</svg>
