<svg width="219" height="48" viewBox="0 0 219 48" fill="none" xmlns="http://www.w3.org/2000/svg">
<path d="M25.9159 5.47771C16.428 10.242 7.81872 9.50828 1 7.02876L3.38933 11.2298C3.41042 11.267 3.44283 11.296 3.48192 11.3125C3.68099 11.3972 3.88263 11.4809 4.08838 11.5631C9.62165 13.7796 16.9362 15 24.6839 15C32.4316 15 39.7462 13.7791 45.2795 11.5631C45.4847 11.4809 45.6869 11.3972 45.8854 11.313C45.9245 11.2965 45.9569 11.267 45.978 11.2304L51 2.40092C44.9055 0.239676 36.6337 0.0950065 25.9149 5.47719L25.9159 5.47771Z" fill="url(#paint0_linear_2024_30914)"/>
<path d="M0 5.06663L0.982407 6.89591C7.60029 9.44464 15.8742 10.284 25 5.91602C19.948 1.32495 10.4285 -4.29229 0 5.06663Z" fill="url(#paint1_linear_2024_30914)"/>
<path d="M15.2758 30.0198C15.1056 29.9373 14.9329 30.1286 15.0262 30.2969L24.5844 47.4611H24.5854C24.731 47.7755 25.1061 48 25.5473 48C25.9886 48 26.3637 47.7755 26.5092 47.4611H26.5108L35.9736 30.4677C36.0664 30.3016 35.8978 30.1108 35.7276 30.1891C32.7645 31.5565 29.2956 32.2926 25.6806 32.2926C22.0656 32.2926 18.3153 31.4961 15.2753 30.0198H15.2758Z" fill="#2D6DA4"/>
<path d="M5.02643 13.2911L13.1365 27.6635C13.1518 27.6909 13.1738 27.7141 13.1998 27.7312C16.4296 29.8398 20.6568 31 25.1331 31C29.6093 31 33.4764 29.9369 36.6485 27.9957C36.6765 27.9786 36.7 27.9543 36.7163 27.9249L44.9739 13.2911C45.0627 13.1341 44.9101 12.9507 44.7417 13.0122C39.2782 15.0139 32.3243 16.109 24.9999 16.109C17.6755 16.109 10.7216 15.0133 5.25808 13.0122C5.0897 12.9507 4.93765 13.1341 5.02592 13.2911H5.02643Z" fill="#2D6DA4"/>
<path d="M68.832 23.624C68.832 28.64 65.16 32.168 60.432 32.168C55.728 32.168 52.032 28.64 52.032 23.624C52.032 18.608 55.728 15.08 60.432 15.08C65.16 15.08 68.832 18.608 68.832 23.624ZM54.264 23.624C54.264 27.704 56.904 30.272 60.432 30.272C63.96 30.272 66.6 27.704 66.6 23.624C66.6 19.52 63.96 16.976 60.432 16.976C56.904 16.976 54.264 19.52 54.264 23.624ZM73.8992 21.272C74.6912 19.88 76.4192 18.632 78.8192 18.632C82.3472 18.632 85.0592 21.272 85.0592 25.376C85.0592 29.456 82.3472 32.216 78.8192 32.216C76.4192 32.216 74.7152 30.92 73.8992 29.576V38.24H71.7152V18.848H73.8992V21.272ZM82.8272 25.376C82.8272 22.28 80.7872 20.528 78.3632 20.528C75.9872 20.528 73.8992 22.352 73.8992 25.4C73.8992 28.496 75.9872 30.296 78.3632 30.296C80.7872 30.296 82.8272 28.472 82.8272 25.376ZM88.4139 28.4V20.648H86.7099V18.848H88.4139V15.536H90.5979V18.848H94.0299V20.648H90.5979V28.4C90.5979 29.696 91.0779 30.152 92.4219 30.152H94.0299V32H92.0619C89.7339 32 88.4139 31.04 88.4139 28.4ZM96.6761 32V18.848H98.8601V32H96.6761ZM97.8041 16.712C96.9641 16.712 96.3161 16.064 96.3161 15.224C96.3161 14.384 96.9641 13.736 97.8041 13.736C98.5961 13.736 99.2441 14.384 99.2441 15.224C99.2441 16.064 98.5961 16.712 97.8041 16.712ZM121.566 32V24.56C121.566 21.872 120.126 20.504 117.966 20.504C115.758 20.504 114.246 21.92 114.246 24.752V32H112.086V24.56C112.086 21.872 110.646 20.504 108.486 20.504C106.278 20.504 104.766 21.92 104.766 24.752V32H102.582V18.848H104.766V20.744C105.63 19.352 107.19 18.608 108.918 18.608C111.078 18.608 112.878 19.568 113.742 21.536C114.51 19.64 116.382 18.608 118.398 18.608C121.398 18.608 123.726 20.48 123.726 24.248V32H121.566ZM127.309 32V18.848H129.493V32H127.309ZM128.437 16.712C127.597 16.712 126.949 16.064 126.949 15.224C126.949 14.384 127.597 13.736 128.437 13.736C129.229 13.736 129.877 14.384 129.877 15.224C129.877 16.064 129.229 16.712 128.437 16.712ZM141.255 18.848V20.624L134.847 30.2H141.303V32H132.351V30.2L138.735 20.624H132.399V18.848H141.255ZM149.729 20.48C147.593 20.48 145.817 21.896 145.577 24.464H153.881C153.905 21.896 151.985 20.48 149.729 20.48ZM155.873 27.944C155.201 30.344 153.089 32.216 149.825 32.216C146.081 32.216 143.321 29.576 143.321 25.4C143.321 21.248 145.985 18.632 149.825 18.632C153.641 18.632 156.137 21.32 156.137 24.92C156.137 25.4 156.113 25.784 156.065 26.24H145.553C145.721 28.904 147.593 30.368 149.825 30.368C151.793 30.368 153.041 29.36 153.521 27.944H155.873ZM158.204 25.376C158.204 21.272 160.916 18.632 164.468 18.632C166.532 18.632 168.428 19.688 169.34 21.2V14.24H171.548V32H169.34V29.528C168.548 30.992 166.844 32.216 164.444 32.216C160.916 32.216 158.204 29.456 158.204 25.376ZM169.34 25.4C169.34 22.352 167.276 20.528 164.876 20.528C162.476 20.528 160.436 22.28 160.436 25.376C160.436 28.472 162.476 30.296 164.876 30.296C167.276 30.296 169.34 28.496 169.34 25.4ZM180.821 23.624C180.821 18.608 184.493 15.056 189.173 15.056C192.797 15.056 195.677 16.88 196.925 20.12H194.309C193.397 18.104 191.621 16.976 189.173 16.976C185.669 16.976 183.053 19.52 183.053 23.624C183.053 27.704 185.669 30.248 189.173 30.248C191.621 30.248 193.397 29.12 194.309 27.128H196.925C195.677 30.344 192.797 32.144 189.173 32.144C184.493 32.144 180.821 28.64 180.821 23.624ZM206.44 29.696L211.696 15.272H214L207.688 32H205.168L198.856 15.272H201.184L206.44 29.696Z" fill="#3C3C3C"/>
<defs>
<linearGradient id="paint0_linear_2024_30914" x1="25.9995" y1="-17.4591" x2="25.9995" y2="13.7189" gradientUnits="userSpaceOnUse">
<stop offset="0.26" stop-color="#408CC1"/>
<stop offset="1" stop-color="#2D6DA4"/>
</linearGradient>
<linearGradient id="paint1_linear_2024_30914" x1="12.4997" y1="-11.8665" x2="12.4997" y2="8.17641" gradientUnits="userSpaceOnUse">
<stop offset="0.614344" stop-color="#408CC1"/>
<stop offset="1" stop-color="#12538A"/>
</linearGradient>
</defs>
</svg>
