<svg width="51" height="48" viewBox="0 0 51 48" fill="none" xmlns="http://www.w3.org/2000/svg">
<path d="M25.9159 5.47771C16.428 10.242 7.81872 9.50828 1 7.02876L3.38933 11.2298C3.41042 11.267 3.44283 11.296 3.48192 11.3125C3.68099 11.3972 3.88263 11.4809 4.08838 11.5631C9.62165 13.7796 16.9362 15 24.6839 15C32.4316 15 39.7462 13.7791 45.2795 11.5631C45.4847 11.4809 45.6869 11.3972 45.8854 11.313C45.9245 11.2965 45.9569 11.267 45.978 11.2304L51 2.40092C44.9055 0.239676 36.6337 0.0950065 25.9149 5.47719L25.9159 5.47771Z" fill="url(#paint0_linear_2203_6906)"/>
<path d="M0 5.06663L0.982407 6.89591C7.60029 9.44464 15.8742 10.284 25 5.91602C19.948 1.32495 10.4285 -4.29229 0 5.06663Z" fill="url(#paint1_linear_2203_6906)"/>
<path d="M15.2758 30.0198C15.1056 29.9373 14.9329 30.1286 15.0262 30.2969L24.5844 47.4611H24.5854C24.731 47.7755 25.1061 48 25.5473 48C25.9886 48 26.3637 47.7755 26.5092 47.4611H26.5108L35.9736 30.4677C36.0664 30.3016 35.8978 30.1108 35.7276 30.1891C32.7645 31.5565 29.2956 32.2926 25.6806 32.2926C22.0656 32.2926 18.3153 31.4961 15.2753 30.0198H15.2758Z" fill="#2D6DA4"/>
<path d="M5.02643 13.2911L13.1365 27.6635C13.1518 27.6909 13.1738 27.7141 13.1998 27.7312C16.4296 29.8398 20.6568 31 25.1331 31C29.6093 31 33.4764 29.9369 36.6485 27.9957C36.6765 27.9786 36.7 27.9543 36.7163 27.9249L44.9739 13.2911C45.0627 13.1341 44.9101 12.9507 44.7417 13.0122C39.2782 15.0139 32.3243 16.109 24.9999 16.109C17.6755 16.109 10.7216 15.0133 5.25808 13.0122C5.0897 12.9507 4.93765 13.1341 5.02592 13.2911H5.02643Z" fill="#2D6DA4"/>
<defs>
<linearGradient id="paint0_linear_2203_6906" x1="25.9995" y1="-17.4591" x2="25.9995" y2="13.7189" gradientUnits="userSpaceOnUse">
<stop offset="0.26" stop-color="#408CC1"/>
<stop offset="1" stop-color="#2D6DA4"/>
</linearGradient>
<linearGradient id="paint1_linear_2203_6906" x1="12.4997" y1="-11.8665" x2="12.4997" y2="8.17641" gradientUnits="userSpaceOnUse">
<stop offset="0.614344" stop-color="#408CC1"/>
<stop offset="1" stop-color="#12538A"/>
</linearGradient>
</defs>
</svg>
