<svg width="25" height="24" viewBox="0 0 25 24" fill="none" xmlns="http://www.w3.org/2000/svg">
<g clip-path="url(#clip0_776_80)">
<path d="M2.50002 11H13.5C14.6045 11 15.5 10.1046 15.5 9V2.00002C15.5 0.895453 14.6045 0 13.5 0H2.50002C1.39545 0 0.5 0.895453 0.5 2.00002V9C0.5 10.1046 1.39545 11 2.50002 11Z" fill="white"/>
<path d="M24.158 0.882C23.7863 0.330656 23.1649 9.375e-05 22.5 0H19.5C18.3955 0 17.5 0.895453 17.5 2.00002V9C17.5 10.1046 18.3954 11 19.5 11H22.5C23.6046 11 24.5 10.1046 24.5 9V2.00002C24.5007 1.60148 24.3815 1.21195 24.158 0.882Z" fill="white"/>
<path d="M6.61798 13.3419C6.28803 13.1184 5.8985 12.9992 5.49997 12.9999H2.49997C1.39545 12.9999 0.5 13.8953 0.5 14.9999V21.9999C0.5 23.1045 1.39545 23.9999 2.50002 23.9999H5.50002C6.60458 23.9999 7.50003 23.1044 7.50003 21.9999V14.9999C7.49989 14.335 7.16933 13.7136 6.61798 13.3419Z" fill="white"/>
<path d="M23.618 13.3419C23.288 13.1184 22.8985 12.9992 22.5 12.9999H11.5C10.3955 12.9999 9.5 13.8953 9.5 14.9999V21.9999C9.5 23.1045 10.3955 23.9999 11.5 23.9999H22.5C23.6046 23.9999 24.5 23.1045 24.5 21.9999V14.9999C24.4999 14.335 24.1693 13.7136 23.618 13.3419Z" fill="white"/>
</g>
<defs>
<clipPath id="clip0_776_80">
<rect width="24" height="24" fill="white" transform="translate(0.5)"/>
</clipPath>
</defs>
</svg>
