<svg width="704" height="902" viewBox="10 20 704 922" fill="none" xmlns="http://www.w3.org/2000/svg">
<rect width="704" height="902" fill="url(#paint0_linear_1253_4685)"/>
<path d="M38.0372 479.445C20.0787 493.359 5.19634 493.831 0 492.328V750H704C691.944 740.981 656.859 703.748 612.96 626.961C569.061 550.175 526.077 489.751 510.073 469.137C466.423 418.247 432.959 440.793 418.409 459.475C387.481 497.095 329.864 535.273 304.921 549.66C232.588 570.789 161.294 509.077 134.689 475.58C107.252 438.475 58.8226 462.696 38.0372 479.445Z" fill="url(#paint1_linear_1253_4685)" fill-opacity="0.3"/>
<path d="M45.8511 491.355C18.3824 476.094 9.0431 482.878 3 487.4V797.088L704 805V688.583C617.419 534.414 496.52 562.558 446.893 595.901C398.988 617.15 346.724 564.82 326.581 535.998C277.796 451.454 222.749 474.399 201.324 496.439C164.406 540.293 126.609 539.577 112.325 533.738C106.612 535.094 65.6285 506.048 45.8511 491.355Z" fill="url(#paint2_linear_1253_4685)" fill-opacity="0.6"/>
<path d="M531 228.397L427 170V374.59L531 435V228.397Z" fill="#F3F3F3"/>
<path d="M507 255.397L403 197V401.59L507 462V255.397Z" fill="url(#paint3_linear_1253_4685)"/>
<path d="M198 337.482L89 276V491.398L198 555V337.482Z" fill="url(#paint4_linear_1253_4685)"/>
<circle cx="444.5" cy="443.5" r="6.5" fill="white"/>
<circle cx="130.5" cy="540.5" r="6.5" fill="#FFE458"/>
<path d="M436.516 413.757L444.82 439.821L462.261 414.647L436.516 413.757Z" fill="#FFE559"/>
<path d="M123.397 504.266L132.129 531.675L150.469 505.203L123.397 504.266Z" fill="white"/>
<defs>
<linearGradient id="paint0_linear_1253_4685" x1="301.5" y1="11" x2="352" y2="982" gradientUnits="userSpaceOnUse">
<stop offset="0.574988" stop-color="#297AC0"/>
<stop offset="1" stop-color="#13395A"/>
</linearGradient>
<linearGradient id="paint1_linear_1253_4685" x1="488.187" y1="418.145" x2="439.034" y2="722.282" gradientUnits="userSpaceOnUse">
<stop offset="0.0736851" stop-color="white"/>
<stop offset="1" stop-color="#737373" stop-opacity="0"/>
</linearGradient>
<linearGradient id="paint2_linear_1253_4685" x1="489.107" y1="455.064" x2="434.386" y2="774.783" gradientUnits="userSpaceOnUse">
<stop offset="0.0736851" stop-color="white"/>
<stop offset="1" stop-color="#737373" stop-opacity="0"/>
</linearGradient>
<linearGradient id="paint3_linear_1253_4685" x1="215.638" y1="147.464" x2="464.656" y2="463.161" gradientUnits="userSpaceOnUse">
<stop stop-color="white" stop-opacity="0"/>
<stop offset="0.70319" stop-color="#FFE458"/>
</linearGradient>
<linearGradient id="paint4_linear_1253_4685" x1="-107.37" y1="223.847" x2="155.078" y2="555.068" gradientUnits="userSpaceOnUse">
<stop offset="0.333622" stop-color="white" stop-opacity="0"/>
<stop offset="0.855812" stop-color="white"/>
</linearGradient>
</defs>
</svg>
