<svg width="25" height="24" viewBox="0 0 25 24" fill="none" xmlns="http://www.w3.org/2000/svg">
<g clip-path="url(#clip0_1541_3811)">
<path d="M23.6189 0.881892C23.2604 0.519019 22.8143 0.254747 22.3238 0.114608C21.8333 -0.0255306 21.315 -0.036799 20.8189 0.0818918L4.81889 3.45189C3.89746 3.57826 3.02962 3.95937 2.31309 4.5523C1.59656 5.14524 1.0598 5.92645 0.763263 6.80796C0.466725 7.68946 0.422185 8.63626 0.63466 9.54171C0.847135 10.4472 1.30818 11.2753 1.96589 11.9329L3.68389 13.6499C3.77687 13.7428 3.85061 13.8532 3.90089 13.9747C3.95117 14.0962 3.97699 14.2264 3.97689 14.3579V17.5259C3.97909 17.9713 4.08163 18.4105 4.27689 18.8109L4.26889 18.8179L4.29489 18.8439C4.5879 19.433 5.06647 19.9095 5.65689 20.1999L5.68289 20.2259L5.68989 20.2179C6.09025 20.4131 6.52946 20.5157 6.97489 20.5179H10.1429C10.4079 20.5177 10.6622 20.6227 10.8499 20.8099L12.5669 22.5269C13.0274 22.9925 13.5755 23.3624 14.1797 23.6152C14.7838 23.868 15.432 23.9988 16.0869 23.9999C16.6326 23.9992 17.1747 23.9101 17.6919 23.7359C18.5653 23.4491 19.3413 22.9239 19.9321 22.2196C20.523 21.5153 20.9053 20.6599 21.0359 19.7499L24.4109 3.71489C24.5357 3.21453 24.5284 2.69031 24.3895 2.19365C24.2507 1.697 23.9851 1.24496 23.6189 0.881892ZM5.09989 12.2379L3.38089 10.5209C2.98061 10.1303 2.70006 9.63354 2.57217 9.08905C2.44429 8.54456 2.47437 7.97489 2.65889 7.44689C2.83778 6.90522 3.16849 6.42632 3.61168 6.06715C4.05488 5.70799 4.5919 5.48368 5.15889 5.42089L20.9999 2.08589L5.97489 17.1129V14.3579C5.9764 13.9642 5.89985 13.5742 5.74966 13.2103C5.59947 12.8464 5.37862 12.5159 5.09989 12.2379ZM19.0709 19.4079C18.9941 19.9602 18.7649 20.4802 18.409 20.9095C18.0531 21.3388 17.5846 21.6604 17.056 21.8382C16.5275 22.0161 15.9598 22.043 15.4168 21.9161C14.8738 21.7892 14.3769 21.5135 13.9819 21.1199L12.2619 19.3999C11.9843 19.1207 11.654 18.8994 11.2903 18.7487C10.9266 18.598 10.5366 18.5209 10.1429 18.5219H7.38789L22.4149 3.49989L19.0709 19.4079Z" fill="#9197B3"/>
</g>
<defs>
<clipPath id="clip0_1541_3811">
<rect width="24" height="24" fill="white" transform="translate(0.5)"/>
</clipPath>
</defs>
</svg>
