<svg width="21" height="20" viewBox="0 0 21 20" fill="none" xmlns="http://www.w3.org/2000/svg">
<path d="M19.7658 0.734503C19.467 0.432109 19.0953 0.211882 18.6866 0.0951C18.2778 -0.0216824 17.8459 -0.0310727 17.4325 0.0678363L4.09913 2.87617C3.33128 2.98147 2.60808 3.29907 2.01097 3.79318C1.41386 4.28729 0.966562 4.9383 0.719447 5.67289C0.472332 6.40748 0.435216 7.19647 0.612278 7.95102C0.78934 8.70556 1.17355 9.39568 1.72163 9.94367L3.1533 11.3745C3.23079 11.452 3.29224 11.544 3.33414 11.6452C3.37603 11.7464 3.39755 11.8549 3.39747 11.9645V14.6045C3.39931 14.9757 3.48476 15.3417 3.64747 15.6753L3.6408 15.6812L3.66247 15.7028C3.90665 16.1938 4.30545 16.5908 4.79747 16.8328L4.81913 16.8545L4.82497 16.8478C5.1586 17.0105 5.52461 17.096 5.8958 17.0978H8.5358C8.75668 17.0977 8.96859 17.1852 9.12497 17.3412L10.5558 18.772C10.9396 19.16 11.3963 19.4683 11.8998 19.6789C12.4032 19.8896 12.9434 19.9986 13.4891 19.9995C13.9439 19.9989 14.3956 19.9246 14.8266 19.7795C15.5545 19.5405 16.2011 19.1028 16.6935 18.5159C17.1859 17.929 17.5045 17.2162 17.6133 16.4578L20.4258 3.09534C20.5298 2.67837 20.5237 2.24152 20.408 1.82764C20.2923 1.41376 20.071 1.03706 19.7658 0.734503ZM4.3333 10.1978L2.9008 8.767C2.56723 8.44147 2.33344 8.02754 2.22687 7.5738C2.1203 7.12006 2.14537 6.64533 2.29913 6.20534C2.44821 5.75394 2.72381 5.35486 3.09313 5.05556C3.46246 4.75625 3.90998 4.56932 4.38247 4.517L17.5833 1.73784L5.06247 14.2603V11.9645C5.06373 11.6364 4.99994 11.3114 4.87478 11.0082C4.74962 10.7049 4.56558 10.4295 4.3333 10.1978ZM15.9758 16.1728C15.9118 16.6331 15.7208 17.0665 15.4242 17.4242C15.1276 17.782 14.7372 18.05 14.2967 18.1981C13.8563 18.3463 13.3833 18.3688 12.9307 18.263C12.4782 18.1573 12.0641 17.9275 11.735 17.5995L10.3016 16.1662C10.0703 15.9335 9.79509 15.7491 9.49199 15.6235C9.18888 15.4979 8.86389 15.4337 8.5358 15.4345H6.23997L18.7625 2.91617L15.9758 16.1728Z" fill="#FFE458"/>
</svg>
