<svg width="46" height="46" viewBox="0 0 46 46" fill="none" xmlns="http://www.w3.org/2000/svg">
<path fill-rule="evenodd" clip-rule="evenodd" d="M35.8362 24.654V26.6948H26.0117V24.654H35.8362ZM37.677 8.22252L38.4596 10.2838C38.4831 10.3458 38.5378 10.3856 38.6041 10.3887L40.8063 10.4961C40.9561 10.5034 41.0174 10.6921 40.9006 10.786L39.182 12.1673C39.1304 12.2088 39.1094 12.2732 39.1269 12.3371L39.7053 14.4647C39.7446 14.6094 39.5841 14.726 39.4587 14.6439L37.6139 13.4363C37.5585 13.4 37.4908 13.4 37.4354 13.4363L35.5906 14.6439C35.4651 14.726 35.3046 14.6095 35.344 14.4648L35.9224 12.3372C35.9398 12.2732 35.9189 12.2089 35.8672 12.1674L34.1487 10.7861C34.0318 10.6922 34.0932 10.5035 34.2429 10.4962L36.4451 10.3888C36.5113 10.3856 36.566 10.3458 36.5896 10.2839L37.3722 8.22261C37.425 8.08318 37.6241 8.08317 37.677 8.22252ZM7.4369 8.22252L8.21953 10.2838C8.24307 10.3458 8.29779 10.3856 8.364 10.3887L10.5662 10.4961C10.7159 10.5034 10.7772 10.6921 10.6604 10.786L8.94188 12.1673C8.89022 12.2088 8.86928 12.2732 8.88671 12.3371L9.46513 14.4647C9.50448 14.6094 9.34402 14.726 9.21851 14.6439L7.37374 13.4363C7.31831 13.4 7.25057 13.4 7.19513 13.4363L5.35046 14.6439C5.22504 14.726 5.06449 14.6095 5.10384 14.4648L5.68226 12.3372C5.6996 12.2732 5.67875 12.2089 5.62709 12.1674L3.90856 10.7861C3.79167 10.6922 3.85295 10.5035 4.00281 10.4962L6.20506 10.3888C6.27127 10.3856 6.32599 10.3458 6.34952 10.2839L7.13215 8.22261C7.18498 8.08318 7.38399 8.08317 7.4369 8.22252ZM22.557 1.54201L23.3396 3.6033C23.3631 3.66529 23.4179 3.705 23.4841 3.70823L25.6862 3.8156C25.836 3.82287 25.8973 4.01155 25.7805 4.10552L24.0619 5.48678C24.0102 5.52829 23.9893 5.59271 24.0067 5.65659L24.5851 7.78417C24.6245 7.92891 24.464 8.04544 24.3385 7.96332L22.4937 6.75573C22.4383 6.71944 22.3706 6.71944 22.3151 6.75573L20.4704 7.96332C20.3448 8.04544 20.1844 7.92891 20.2237 7.78417L20.8022 5.65659C20.8195 5.59271 20.7986 5.52829 20.747 5.48678L19.0285 4.10552C18.9116 4.01164 18.9729 3.82287 19.1226 3.8156L21.3249 3.70823C21.3911 3.705 21.4458 3.6652 21.4693 3.6033L22.2519 1.54201C22.3051 1.40266 22.5041 1.40266 22.557 1.54201ZM37.5784 33.1534H21.6311C21.4001 33.8718 20.8357 34.4362 20.1172 34.6672V40.1788C20.8357 40.4099 21.4001 40.9743 21.6311 41.6926H37.5784C37.8095 40.9742 38.3738 40.4099 39.0923 40.1788V34.6672C38.3739 34.4361 37.8094 33.8717 37.5784 33.1534ZM22.3854 38.34C21.8789 38.34 21.4683 37.9294 21.4683 37.423C21.4683 36.9165 21.8789 36.506 22.3854 36.506C22.8919 36.506 23.3025 36.9165 23.3025 37.423C23.3025 37.9294 22.8918 38.34 22.3854 38.34ZM30.3236 40.478V40.5423C30.3236 40.9392 30.0018 41.261 29.6049 41.261C29.2079 41.261 28.8861 40.9392 28.8861 40.5423V40.463C28.1211 40.25 27.5234 39.7069 27.3271 38.9202C27.2325 38.5357 27.4676 38.1473 27.8522 38.0527C28.2367 37.9581 28.6252 38.1931 28.7197 38.5778C28.8213 38.9855 29.2735 39.1382 29.6524 39.1291C29.6885 39.1283 29.7398 39.1238 29.8059 39.1158C30.0128 39.0907 30.4764 38.9845 30.4699 38.707L30.4644 38.6611C30.4175 38.2741 29.8018 38.1633 29.4942 38.1128C28.4828 37.9467 27.5276 37.4449 27.4719 36.2973C27.427 35.3729 28.0356 34.6622 28.886 34.3961V34.3038C28.886 33.9069 29.2078 33.5851 29.6048 33.5851C30.0017 33.5851 30.3235 33.9069 30.3235 34.3038V34.3869C30.9102 34.5657 31.4351 34.9726 31.7185 35.6477C31.872 36.0136 31.6998 36.4347 31.3339 36.5883C30.968 36.7417 30.5469 36.5696 30.3934 36.2036C30.2281 35.8099 29.812 35.6566 29.4125 35.737C29.1644 35.7869 28.8898 35.9408 28.9038 36.23C28.9195 36.5554 29.4775 36.6573 29.7244 36.6979C30.7625 36.8683 31.7488 37.3241 31.8907 38.4928C31.8963 38.5398 31.9 38.6004 31.9018 38.6734C31.9249 39.6452 31.2016 40.2609 30.3236 40.478ZM36.8243 38.34C36.3178 38.34 35.9072 37.9294 35.9072 37.423C35.9072 36.9165 36.3178 36.506 36.8243 36.506C37.3307 36.506 37.7414 36.9165 37.7414 37.423C37.7414 37.9294 37.3307 38.34 36.8243 38.34ZM41.6466 30.2835H17.5629C17.2842 30.2835 17.057 30.5108 17.057 30.7894V44.0566C17.057 44.3352 17.2843 44.5625 17.5629 44.5625H41.6466C41.9253 44.5625 42.1526 44.3352 42.1526 44.0566V30.7894C42.1526 30.5107 41.9253 30.2835 41.6466 30.2835ZM40.5298 40.5651C40.5298 41.0601 40.1733 41.4338 39.6929 41.5077C39.2879 41.5585 38.961 41.8885 38.9102 42.2934C38.8523 42.7685 38.4425 43.1301 37.9648 43.1301H21.2448C20.7837 43.1301 20.3489 42.7621 20.3023 42.2932C20.2618 41.8871 19.9215 41.5613 19.5164 41.5104C19.0454 41.4529 18.6798 41.04 18.6798 40.5651V34.2808C18.6798 33.7965 19.0385 33.3878 19.5164 33.3383C19.9126 33.2972 20.2508 32.9394 20.2994 32.5524C20.3572 32.0794 20.7674 31.7158 21.2447 31.7158H37.9647C38.4474 31.7158 38.8434 32.0766 38.9073 32.5524C38.9618 32.9586 39.2856 33.2843 39.6931 33.3354C40.1708 33.3953 40.5298 33.7988 40.5298 34.2807V40.5651ZM15.2214 28.1323C14.9427 28.1323 14.7155 28.3596 14.7155 28.6382V41.9054C14.7155 42.184 14.9428 42.4113 15.2214 42.4113H15.6195V30.7894C15.6195 29.7174 16.4909 28.846 17.5629 28.846H39.811V28.6383C39.811 28.3597 39.5837 28.1323 39.3051 28.1323H15.2214V28.1323ZM7.24778 23.2165H18.7973V18.8446C18.3946 18.7536 17.9945 18.6531 17.5987 18.5413C16.3086 18.177 14.9722 17.6353 13.8454 16.8692H7.24778C6.5497 16.8692 5.97856 17.4403 5.97856 18.1384V21.9474C5.97856 22.6454 6.5497 23.2165 7.24778 23.2165ZM26.0117 23.2165H37.5612C38.2593 23.2165 38.8305 22.6454 38.8305 21.9473V18.1383C38.8305 17.4402 38.2593 16.8691 37.5612 16.8691H30.6465C30.4317 17.0257 30.2062 17.1708 29.9722 17.3037C29.0094 17.8505 27.9421 18.2424 26.8787 18.5424C26.5918 18.6234 26.3026 18.6984 26.0117 18.7681V23.2165H26.0117ZM31.3887 12.7499C31.3062 11.3938 30.3171 10.2903 29.0653 9.84789C26.2884 8.86643 24.1868 11.1361 23.0252 13.3663C22.7478 13.8991 22.4818 14.4968 22.2272 15.1594C21.9568 14.5066 21.6685 13.9224 21.3755 13.3949C20.1876 11.2563 18.1687 8.31488 15.4108 8.6394C13.7361 8.83651 12.5411 10.2436 12.4868 11.9074C12.3877 14.9466 15.515 16.459 17.9894 17.1578C18.6678 17.3495 19.4163 17.5198 20.2348 17.6689V26.6947H24.5742V17.607C25.2644 17.4735 25.9026 17.3241 26.4885 17.1589C28.5747 16.5704 31.5478 15.3644 31.3887 12.7499ZM18.525 15.2486C17.0596 14.8348 14.4043 13.8661 14.4661 11.9695C14.4883 11.2902 14.9399 10.6929 15.636 10.611C17.2998 10.4152 18.9196 13.052 19.6448 14.3575C19.8656 14.755 20.083 15.1878 20.2901 15.6621C19.6519 15.5385 19.0635 15.4006 18.525 15.2486ZM25.953 15.2495C25.4056 15.4038 24.8064 15.5435 24.1557 15.6685C24.3572 15.1659 24.5677 14.7038 24.7872 14.2822C25.4443 13.0205 26.7325 11.1272 28.4054 11.7184C28.8903 11.8899 29.3764 12.3233 29.4094 12.8664C29.489 14.172 26.9428 14.9704 25.953 15.2495ZM13.3448 42.4114C13.3014 42.25 13.278 42.0804 13.278 41.9055V28.6383C13.278 27.5662 14.1494 26.6948 15.2214 26.6948H18.7974V24.654H8.97287V40.0121C8.97287 41.3318 10.0526 42.4113 11.3722 42.4113H13.3448V42.4114Z" fill="#2D6DA4"/>
</svg>
