<svg width="16" height="16" viewBox="0 0 16 16" fill="none" xmlns="http://www.w3.org/2000/svg">
<path d="M11.134 1.5353C11.834 1.0263 12.55 0.593302 13.21 0.380302C13.859 0.170302 14.673 0.113302 15.279 0.720302C15.882 1.3213 15.847 2.1313 15.647 2.7903C15.445 3.4583 15.023 4.1803 14.522 4.8863C13.511 6.3103 12.026 7.8733 10.747 9.1353C9.64902 10.2193 8.61502 10.9743 7.70702 11.4353C7.79624 12.0167 7.74721 12.6109 7.56392 13.1699C7.38062 13.7288 7.06822 14.2366 6.65202 14.6523C6.22102 15.0833 5.58702 15.3433 4.99502 15.5133C4.38102 15.6903 3.70102 15.8003 3.08102 15.8703C2.32259 15.9548 1.56014 15.9982 0.797023 16.0003H0.743023C0.546704 15.9985 0.357926 15.9198 0.219008 15.781C0.0800902 15.6423 0.00110915 15.4546 -0.000976562 15.2583L0.742023 15.2503L2.34375e-05 15.2573V15.2033C0.00231444 14.4402 0.0457106 13.6777 0.130023 12.9193C0.197023 12.2723 0.317023 11.6323 0.488023 11.0053C0.658023 10.4143 0.918024 9.7793 1.34802 9.3483C1.76493 8.93093 2.27451 8.61793 2.83527 8.43477C3.39604 8.25161 3.99214 8.20348 4.57502 8.2943C5.04102 7.4013 5.80002 6.3873 6.88902 5.3123C8.16002 4.0573 9.72202 2.5623 11.134 1.5353ZM1.62002 13.0893C1.56902 13.5533 1.53402 14.0183 1.51602 14.4843C1.98202 14.4663 2.44802 14.4313 2.91202 14.3803C3.47544 14.3224 4.03326 14.2191 4.58002 14.0713C5.10602 13.9203 5.43602 13.7463 5.59102 13.5913C6.01298 13.1693 6.25004 12.597 6.25004 12.0003C6.25004 11.4036 6.01298 10.8313 5.59102 10.4093C5.38209 10.2004 5.13405 10.0346 4.86107 9.92156C4.58808 9.80849 4.2955 9.75029 4.00002 9.75029C3.40328 9.75029 2.83098 9.98734 2.40902 10.4093C2.25402 10.5643 2.08002 10.8943 1.92902 11.4193C1.78116 11.9667 1.67783 12.5252 1.62002 13.0893ZM12.016 2.7493C10.792 3.6393 9.41102 4.9383 8.19402 6.1333L9.91202 7.8513C11.122 6.6463 12.422 5.2543 13.299 4.0183C13.769 3.3563 14.079 2.7913 14.211 2.3563C14.345 1.9123 14.243 1.8053 14.22 1.7813H14.219V1.7803C14.205 1.7663 14.106 1.6673 13.671 1.8073C13.239 1.9473 12.676 2.2693 12.016 2.7493ZM7.18402 10.0153L7.18302 10.0163C7.76349 9.69159 8.3096 9.30898 8.81302 8.8743L7.15502 7.2163C6.71416 7.71091 6.32512 8.24939 5.99402 8.8233C6.47602 9.1253 6.88302 9.5333 7.18402 10.0153Z" fill="#57606A"/>
</svg>
