<svg width="10" height="13" viewBox="0 0 10 13" fill="none" xmlns="http://www.w3.org/2000/svg">
<g clip-path="url(#clip0_1897_12640)">
<path d="M0.555556 1.625H9.44444C9.59179 1.625 9.7331 1.68207 9.83728 1.78365C9.94147 1.88523 10 2.02301 10 2.16667V2.70833H0V2.16667C0 2.02301 0.0585316 1.88523 0.162718 1.78365C0.266905 1.68207 0.408213 1.625 0.555556 1.625Z" fill="#F14336"/>
<path d="M3.88856 0H6.11079C6.25813 0 6.39944 0.0570683 6.50362 0.158651C6.60781 0.260233 6.66634 0.398008 6.66634 0.541667V1.08333H3.33301V0.541667C3.33301 0.398008 3.39154 0.260233 3.49573 0.158651C3.59991 0.0570683 3.74122 0 3.88856 0Z" fill="#F14336"/>
<path d="M1.11133 3.25L1.63911 12.4881C1.64693 12.6266 1.70889 12.7568 1.81224 12.852C1.9156 12.9472 2.05246 13.0002 2.19466 13H7.80855C7.95075 13.0002 8.08762 12.9472 8.19097 12.852C8.29432 12.7568 8.35629 12.6266 8.36411 12.4881L8.88911 3.25H1.11133ZM3.61133 11.1042C3.61133 11.2478 3.5528 11.3856 3.44861 11.4872C3.34442 11.5888 3.20312 11.6458 3.05577 11.6458C2.90843 11.6458 2.76712 11.5888 2.66294 11.4872C2.55875 11.3856 2.50022 11.2478 2.50022 11.1042V5.14583C2.50022 5.00217 2.55875 4.8644 2.66294 4.76282C2.76712 4.66124 2.90843 4.60417 3.05577 4.60417C3.20312 4.60417 3.34442 4.66124 3.44861 4.76282C3.5528 4.8644 3.61133 5.00217 3.61133 5.14583V11.1042ZM5.55577 11.1042C5.55577 11.2478 5.49724 11.3856 5.39305 11.4872C5.28887 11.5888 5.14756 11.6458 5.00022 11.6458C4.85287 11.6458 4.71157 11.5888 4.60738 11.4872C4.50319 11.3856 4.44466 11.2478 4.44466 11.1042V5.14583C4.44466 5.00217 4.50319 4.8644 4.60738 4.76282C4.71157 4.66124 4.85287 4.60417 5.00022 4.60417C5.14756 4.60417 5.28887 4.66124 5.39305 4.76282C5.49724 4.8644 5.55577 5.00217 5.55577 5.14583V11.1042ZM7.50022 11.1042C7.50022 11.2478 7.44169 11.3856 7.3375 11.4872C7.23331 11.5888 7.092 11.6458 6.94466 11.6458C6.79732 11.6458 6.65601 11.5888 6.55182 11.4872C6.44764 11.3856 6.38911 11.2478 6.38911 11.1042V5.14583C6.38911 5.00217 6.44764 4.8644 6.55182 4.76282C6.65601 4.66124 6.79732 4.60417 6.94466 4.60417C7.092 4.60417 7.23331 4.66124 7.3375 4.76282C7.44169 4.8644 7.50022 5.00217 7.50022 5.14583V11.1042Z" fill="#F14336"/>
</g>
<defs>
<clipPath id="clip0_1897_12640">
<rect width="10" height="13" fill="white"/>
</clipPath>
</defs>
</svg>
