<svg width="22" height="21" viewBox="0 0 22 21" fill="none" xmlns="http://www.w3.org/2000/svg">
<g clip-path="url(#clip0_1541_3802)">
<path d="M11.2676 10.5C12.2946 10.5 13.2984 10.2068 14.1523 9.65735C15.0062 9.10794 15.6717 8.32705 16.0647 7.41342C16.4577 6.49979 16.5605 5.49446 16.3602 4.52455C16.1598 3.55465 15.6653 2.66373 14.9391 1.96447C14.213 1.26521 13.2878 0.789002 12.2806 0.596076C11.2734 0.40315 10.2294 0.502166 9.28062 0.880605C8.33184 1.25904 7.52092 1.89991 6.95038 2.72215C6.37984 3.5444 6.07532 4.5111 6.07532 5.5C6.07669 6.82568 6.62418 8.09668 7.59763 9.03407C8.57108 9.97147 9.89096 10.4987 11.2676 10.5ZM11.2676 2.16667C11.9523 2.16667 12.6215 2.36217 13.1908 2.72844C13.76 3.09471 14.2037 3.6153 14.4657 4.22439C14.7277 4.83348 14.7962 5.5037 14.6627 6.1503C14.5291 6.79691 14.1994 7.39085 13.7153 7.85703C13.2312 8.3232 12.6144 8.64067 11.9429 8.76929C11.2715 8.8979 10.5755 8.83189 9.94295 8.5796C9.31044 8.32731 8.76982 7.90007 8.38946 7.3519C8.0091 6.80374 7.80609 6.15927 7.80609 5.5C7.80609 4.61595 8.17078 3.7681 8.81995 3.14298C9.46911 2.51786 10.3496 2.16667 11.2676 2.16667Z" fill="#FFE458"/>
<path d="M11.2677 12.167C9.20278 12.1692 7.22309 12.9601 5.76297 14.3661C4.30284 15.7722 3.48154 17.6785 3.47925 19.667C3.47925 19.888 3.57042 20.1 3.73271 20.2562C3.895 20.4125 4.11512 20.5003 4.34463 20.5003C4.57415 20.5003 4.79426 20.4125 4.95655 20.2562C5.11884 20.1 5.21002 19.888 5.21002 19.667C5.21002 18.1199 5.84824 16.6362 6.98427 15.5422C8.12031 14.4482 9.66111 13.8337 11.2677 13.8337C12.8743 13.8337 14.4151 14.4482 15.5511 15.5422C16.6872 16.6362 17.3254 18.1199 17.3254 19.667C17.3254 19.888 17.4166 20.1 17.5789 20.2562C17.7412 20.4125 17.9613 20.5003 18.1908 20.5003C18.4203 20.5003 18.6404 20.4125 18.8027 20.2562C18.965 20.1 19.0562 19.888 19.0562 19.667C19.0539 17.6785 18.2326 15.7722 16.7725 14.3661C15.3123 12.9601 13.3326 12.1692 11.2677 12.167Z" fill="#FFE458"/>
</g>
<defs>
<clipPath id="clip0_1541_3802">
<rect width="20.7692" height="20" fill="white" transform="translate(0.883057 0.5)"/>
</clipPath>
</defs>
</svg>
