<svg width="12" height="14" viewBox="0 0 12 14" fill="none" xmlns="http://www.w3.org/2000/svg">
<path d="M8.56094 7.07385C9.54548 7.53921 10.3849 8.26352 10.9895 9.16928C11.594 10.075 11.9409 11.1281 11.9929 12.2159C11.9998 12.3155 11.9867 12.4155 11.9544 12.51C11.9221 12.6045 11.8712 12.6916 11.8048 12.7662C11.7383 12.8408 11.6577 12.9014 11.5675 12.9444C11.4773 12.9874 11.3795 13.0119 11.2797 13.0166C11.1799 13.0212 11.0802 13.0059 10.9865 12.9715C10.8927 12.9371 10.8067 12.8844 10.7336 12.8163C10.6605 12.7482 10.6018 12.6662 10.5608 12.5752C10.5198 12.4841 10.4974 12.3857 10.4949 12.2859C10.4404 11.1304 9.94304 10.0403 9.10604 9.24183C8.26903 8.44338 7.1567 7.99793 5.99994 7.99793C4.84318 7.99793 3.73085 8.44338 2.89384 9.24183C2.05684 10.0403 1.55946 11.1304 1.50494 12.2859C1.49147 12.4814 1.40195 12.664 1.25556 12.7944C1.10917 12.9248 0.917538 12.9927 0.721706 12.9835C0.525874 12.9743 0.341409 12.8889 0.207814 12.7454C0.0742194 12.6019 0.00211479 12.4118 0.00694147 12.2159C0.0588023 11.1282 0.405473 10.0751 1.00984 9.16937C1.61421 8.26361 2.45353 7.53926 3.43794 7.07385C2.80695 6.54754 2.35341 5.83964 2.13899 5.04643C1.92458 4.25322 1.95971 3.41322 2.23961 2.64069C2.5195 1.86815 3.03057 1.20059 3.70331 0.728802C4.37604 0.257015 5.17777 0.00390625 5.99944 0.00390625C6.82112 0.00390625 7.62285 0.257015 8.29558 0.728802C8.96831 1.20059 9.47938 1.86815 9.75928 2.64069C10.0392 3.41322 10.0743 4.25322 9.85989 5.04643C9.64548 5.83964 9.19193 6.54754 8.56094 7.07385ZM8.49994 4.00085C8.49994 3.33781 8.23655 2.70193 7.76771 2.23309C7.29887 1.76425 6.66298 1.50085 5.99994 1.50085C5.3369 1.50085 4.70102 1.76425 4.23217 2.23309C3.76333 2.70193 3.49994 3.33781 3.49994 4.00085C3.49994 4.6639 3.76333 5.29978 4.23217 5.76862C4.70102 6.23746 5.3369 6.50085 5.99994 6.50085C6.66298 6.50085 7.29887 6.23746 7.76771 5.76862C8.23655 5.29978 8.49994 4.6639 8.49994 4.00085Z" fill="#57606A"/>
</svg>
