<svg width="46" height="46" viewBox="0 0 46 46" fill="none" xmlns="http://www.w3.org/2000/svg">
<path fill-rule="evenodd" clip-rule="evenodd" d="M41.6875 35.9362H32.5814C29.67 35.9362 27.3106 33.5768 27.3106 30.6654V26.832C27.3106 23.9206 29.67 21.5612 32.5814 21.5612H41.6875V19.1654C41.6875 17.7681 41.1317 16.4264 40.1446 15.4374C39.1556 14.4504 37.8139 13.8945 36.4167 13.8945C29.7792 13.8945 16.2207 13.8945 9.58333 13.8945C8.18608 13.8945 6.84442 14.4504 5.85542 15.4374C4.86833 16.4264 4.3125 17.7681 4.3125 19.1654V38.332C4.3125 39.7293 4.86833 41.071 5.85542 42.06C6.84442 43.047 8.18608 43.6029 9.58333 43.6029H36.4167C37.8139 43.6029 39.1556 43.047 40.1446 42.06C41.1317 41.071 41.6875 39.7293 41.6875 38.332V35.9362ZM41.6875 24.4362V33.0612H32.5814C31.2589 33.0612 30.1856 31.9879 30.1856 30.6654V26.832C30.1856 25.5095 31.2589 24.4362 32.5814 24.4362H41.6875ZM33.5417 26.832C34.5997 26.832 35.4583 27.6907 35.4583 28.7487C35.4583 29.8067 34.5997 30.6654 33.5417 30.6654C32.4837 30.6654 31.625 29.8067 31.625 28.7487C31.625 27.6907 32.4837 26.832 33.5417 26.832Z" fill="#2D6DA4"/>
<path fill-rule="evenodd" clip-rule="evenodd" d="M30.8354 11.9785H36.4168C36.7829 11.9785 37.147 12.0072 37.5054 12.0609L38.4139 10.1097C38.7494 9.39097 38.4389 8.53614 37.7201 8.20072L25.5589 2.5293C24.8401 2.19389 23.9853 2.5063 23.6499 3.22505L22.6206 5.43114L28.9456 8.37897C30.3448 9.03256 31.0827 10.5276 30.8354 11.9785Z" fill="#2D6DA4"/>
<path fill-rule="evenodd" clip-rule="evenodd" d="M10.8772 11.9778H28.8536C29.1526 11.2687 28.8402 10.4445 28.1368 10.1167L15.9755 4.44532C15.2568 4.1099 14.4019 4.42232 14.0665 5.14107L10.8772 11.9778Z" fill="#2D6DA4"/>
</svg>
